%
M48
M72
T01C0.02362
T02C0.03937
T03C0.04000
%
T01
X100000Y195000
X95000Y185000
X95000Y175000
X145000Y205000
X190000Y205000
X236500Y204000
X182000Y236000
X196500Y241500
X222000Y241500
X232000Y167500
X210000Y145000
X236500Y130000
X221000Y126000
X235000Y115000
X230000Y105000
X220000Y101000
X207500Y96500
X185000Y103500
X147500Y122000
X145000Y77500
T02
X80000Y262500
X90000Y262500
X100000Y262500
X110000Y262500
X120000Y262500
X130000Y262500
X140000Y262500
X150000Y262500
X160000Y262500
X170000Y262500
X180000Y262500
X190000Y262500
X200000Y262500
X210000Y262500
X220000Y262500
X230000Y262500
X240000Y262500
X250000Y262500
X260000Y262500
X270000Y262500
X280000Y262500
X290000Y262500
X300000Y262500
X300000Y252500
X290000Y252500
X280000Y252500
X270000Y252500
X260000Y252500
X250000Y252500
X240000Y252500
X230000Y252500
X220000Y252500
X210000Y252500
X200000Y252500
X190000Y252500
X180000Y252500
X170000Y252500
X160000Y252500
X150000Y252500
X140000Y252500
X130000Y252500
X120000Y252500
X110000Y252500
X100000Y252500
X90000Y252500
X80000Y252500
X80000Y72500
X90000Y72500
X100000Y72500
X110000Y72500
X120000Y72500
X130000Y72500
X140000Y72500
X150000Y72500
X160000Y72500
X170000Y72500
X180000Y72500
X190000Y72500
X200000Y72500
X210000Y72500
X220000Y72500
X230000Y72500
X240000Y72500
X250000Y72500
X260000Y72500
X270000Y72500
X280000Y72500
X290000Y72500
X300000Y72500
X300000Y62500
X290000Y62500
X280000Y62500
X270000Y62500
X260000Y62500
X250000Y62500
X240000Y62500
X230000Y62500
X220000Y62500
X210000Y62500
X200000Y62500
X190000Y62500
X180000Y62500
X170000Y62500
X160000Y62500
X150000Y62500
X140000Y62500
X130000Y62500
X120000Y62500
X110000Y62500
X100000Y62500
X90000Y62500
X80000Y62500
T03
X130000Y110000
X140000Y110000
X150000Y110000
X160000Y110000
X170000Y110000
X180000Y110000
X190000Y110000
X200000Y110000
X210000Y110000
X220000Y110000
X180000Y90000
X170000Y90000
X160000Y90000
X150000Y90000
X140000Y90000
X130000Y90000
M30
