G75*
%MOIN*%
%OFA0B0*%
%FSLAX25Y25*%
%IPPOS*%
%LPD*%
%AMOC8*
5,1,8,0,0,1.08239X$1,22.5*
%
%ADD10C,0.01000*%
%ADD11R,0.05512X0.04331*%
%ADD12R,0.06102X0.02362*%
%ADD13R,0.07087X0.04724*%
%ADD14R,0.04331X0.05512*%
%ADD15R,0.03543X0.03150*%
%ADD16R,0.02362X0.06102*%
%ADD17R,0.04724X0.07087*%
D10*
X0075000Y0055000D02*
X0305000Y0055000D01*
X0305140Y0055002D01*
X0305280Y0055008D01*
X0305420Y0055018D01*
X0305560Y0055031D01*
X0305699Y0055049D01*
X0305838Y0055071D01*
X0305975Y0055096D01*
X0306113Y0055125D01*
X0306249Y0055158D01*
X0306384Y0055195D01*
X0306518Y0055236D01*
X0306651Y0055281D01*
X0306783Y0055329D01*
X0306913Y0055381D01*
X0307042Y0055436D01*
X0307169Y0055495D01*
X0307295Y0055558D01*
X0307419Y0055624D01*
X0307540Y0055693D01*
X0307660Y0055766D01*
X0307778Y0055843D01*
X0307893Y0055922D01*
X0308007Y0056005D01*
X0308117Y0056091D01*
X0308226Y0056180D01*
X0308332Y0056272D01*
X0308435Y0056367D01*
X0308536Y0056464D01*
X0308633Y0056565D01*
X0308728Y0056668D01*
X0308820Y0056774D01*
X0308909Y0056883D01*
X0308995Y0056993D01*
X0309078Y0057107D01*
X0309157Y0057222D01*
X0309234Y0057340D01*
X0309307Y0057460D01*
X0309376Y0057581D01*
X0309442Y0057705D01*
X0309505Y0057831D01*
X0309564Y0057958D01*
X0309619Y0058087D01*
X0309671Y0058217D01*
X0309719Y0058349D01*
X0309764Y0058482D01*
X0309805Y0058616D01*
X0309842Y0058751D01*
X0309875Y0058887D01*
X0309904Y0059025D01*
X0309929Y0059162D01*
X0309951Y0059301D01*
X0309969Y0059440D01*
X0309982Y0059580D01*
X0309992Y0059720D01*
X0309998Y0059860D01*
X0310000Y0060000D01*
X0310000Y0262929D01*
X0309998Y0263100D01*
X0309992Y0263271D01*
X0309981Y0263441D01*
X0309967Y0263611D01*
X0309948Y0263781D01*
X0309926Y0263951D01*
X0309899Y0264119D01*
X0309868Y0264288D01*
X0309833Y0264455D01*
X0309795Y0264621D01*
X0309752Y0264787D01*
X0309705Y0264951D01*
X0309654Y0265114D01*
X0309599Y0265276D01*
X0309540Y0265436D01*
X0309478Y0265595D01*
X0309412Y0265753D01*
X0309342Y0265909D01*
X0309268Y0266063D01*
X0309190Y0266215D01*
X0309109Y0266365D01*
X0309024Y0266514D01*
X0308936Y0266660D01*
X0308844Y0266804D01*
X0308748Y0266946D01*
X0308650Y0267085D01*
X0308547Y0267222D01*
X0308442Y0267357D01*
X0308333Y0267489D01*
X0308222Y0267618D01*
X0308107Y0267744D01*
X0307989Y0267868D01*
X0307868Y0267989D01*
X0307744Y0268107D01*
X0307618Y0268222D01*
X0307489Y0268333D01*
X0307357Y0268442D01*
X0307222Y0268547D01*
X0307085Y0268650D01*
X0306946Y0268748D01*
X0306804Y0268844D01*
X0306660Y0268936D01*
X0306514Y0269024D01*
X0306365Y0269109D01*
X0306215Y0269190D01*
X0306063Y0269268D01*
X0305909Y0269342D01*
X0305753Y0269412D01*
X0305595Y0269478D01*
X0305436Y0269540D01*
X0305276Y0269599D01*
X0305114Y0269654D01*
X0304951Y0269705D01*
X0304787Y0269752D01*
X0304621Y0269795D01*
X0304455Y0269833D01*
X0304288Y0269868D01*
X0304119Y0269899D01*
X0303951Y0269926D01*
X0303781Y0269948D01*
X0303611Y0269967D01*
X0303441Y0269981D01*
X0303271Y0269992D01*
X0303100Y0269998D01*
X0302929Y0270000D01*
X0077071Y0270000D01*
X0070000Y0265000D02*
X0070000Y0220000D01*
X0082071Y0207929D01*
X0085000Y0200858D02*
X0085000Y0124142D01*
X0084997Y0123904D01*
X0084989Y0123666D01*
X0084975Y0123429D01*
X0084955Y0123191D01*
X0084929Y0122955D01*
X0084898Y0122719D01*
X0084862Y0122484D01*
X0084819Y0122249D01*
X0084771Y0122016D01*
X0084718Y0121784D01*
X0084659Y0121554D01*
X0084595Y0121325D01*
X0084525Y0121097D01*
X0084450Y0120871D01*
X0084369Y0120647D01*
X0084284Y0120425D01*
X0084193Y0120205D01*
X0084096Y0119988D01*
X0083995Y0119773D01*
X0083888Y0119560D01*
X0083777Y0119350D01*
X0083660Y0119142D01*
X0083539Y0118937D01*
X0083413Y0118736D01*
X0083281Y0118537D01*
X0083146Y0118341D01*
X0083005Y0118149D01*
X0082861Y0117960D01*
X0082711Y0117775D01*
X0082557Y0117593D01*
X0082400Y0117415D01*
X0082237Y0117241D01*
X0082071Y0117071D01*
X0070000Y0105000D01*
X0070000Y0060000D01*
X0070002Y0059860D01*
X0070008Y0059720D01*
X0070018Y0059580D01*
X0070031Y0059440D01*
X0070049Y0059301D01*
X0070071Y0059162D01*
X0070096Y0059025D01*
X0070125Y0058887D01*
X0070158Y0058751D01*
X0070195Y0058616D01*
X0070236Y0058482D01*
X0070281Y0058349D01*
X0070329Y0058217D01*
X0070381Y0058087D01*
X0070436Y0057958D01*
X0070495Y0057831D01*
X0070558Y0057705D01*
X0070624Y0057581D01*
X0070693Y0057460D01*
X0070766Y0057340D01*
X0070843Y0057222D01*
X0070922Y0057107D01*
X0071005Y0056993D01*
X0071091Y0056883D01*
X0071180Y0056774D01*
X0071272Y0056668D01*
X0071367Y0056565D01*
X0071464Y0056464D01*
X0071565Y0056367D01*
X0071668Y0056272D01*
X0071774Y0056180D01*
X0071883Y0056091D01*
X0071993Y0056005D01*
X0072107Y0055922D01*
X0072222Y0055843D01*
X0072340Y0055766D01*
X0072460Y0055693D01*
X0072581Y0055624D01*
X0072705Y0055558D01*
X0072831Y0055495D01*
X0072958Y0055436D01*
X0073087Y0055381D01*
X0073217Y0055329D01*
X0073349Y0055281D01*
X0073482Y0055236D01*
X0073616Y0055195D01*
X0073751Y0055158D01*
X0073887Y0055125D01*
X0074025Y0055096D01*
X0074162Y0055071D01*
X0074301Y0055049D01*
X0074440Y0055031D01*
X0074580Y0055018D01*
X0074720Y0055008D01*
X0074860Y0055002D01*
X0075000Y0055000D01*
X0074860Y0055002D01*
X0074720Y0055008D01*
X0074580Y0055018D01*
X0074440Y0055031D01*
X0074301Y0055049D01*
X0074162Y0055071D01*
X0074025Y0055096D01*
X0073887Y0055125D01*
X0073751Y0055158D01*
X0073616Y0055195D01*
X0073482Y0055236D01*
X0073349Y0055281D01*
X0073217Y0055329D01*
X0073087Y0055381D01*
X0072958Y0055436D01*
X0072831Y0055495D01*
X0072705Y0055558D01*
X0072581Y0055624D01*
X0072460Y0055693D01*
X0072340Y0055766D01*
X0072222Y0055843D01*
X0072107Y0055922D01*
X0071993Y0056005D01*
X0071883Y0056091D01*
X0071774Y0056180D01*
X0071668Y0056272D01*
X0071565Y0056367D01*
X0071464Y0056464D01*
X0071367Y0056565D01*
X0071272Y0056668D01*
X0071180Y0056774D01*
X0071091Y0056883D01*
X0071005Y0056993D01*
X0070922Y0057107D01*
X0070843Y0057222D01*
X0070766Y0057340D01*
X0070693Y0057460D01*
X0070624Y0057581D01*
X0070558Y0057705D01*
X0070495Y0057831D01*
X0070436Y0057958D01*
X0070381Y0058087D01*
X0070329Y0058217D01*
X0070281Y0058349D01*
X0070236Y0058482D01*
X0070195Y0058616D01*
X0070158Y0058751D01*
X0070125Y0058887D01*
X0070096Y0059025D01*
X0070071Y0059162D01*
X0070049Y0059301D01*
X0070031Y0059440D01*
X0070018Y0059580D01*
X0070008Y0059720D01*
X0070002Y0059860D01*
X0070000Y0060000D01*
X0085000Y0200858D02*
X0084997Y0201096D01*
X0084989Y0201334D01*
X0084975Y0201571D01*
X0084955Y0201809D01*
X0084929Y0202045D01*
X0084898Y0202281D01*
X0084862Y0202516D01*
X0084819Y0202751D01*
X0084771Y0202984D01*
X0084718Y0203216D01*
X0084659Y0203446D01*
X0084595Y0203675D01*
X0084525Y0203903D01*
X0084450Y0204129D01*
X0084369Y0204353D01*
X0084284Y0204575D01*
X0084193Y0204795D01*
X0084096Y0205012D01*
X0083995Y0205227D01*
X0083888Y0205440D01*
X0083777Y0205650D01*
X0083660Y0205858D01*
X0083539Y0206063D01*
X0083413Y0206264D01*
X0083281Y0206463D01*
X0083146Y0206659D01*
X0083005Y0206851D01*
X0082861Y0207040D01*
X0082711Y0207225D01*
X0082557Y0207407D01*
X0082400Y0207585D01*
X0082237Y0207759D01*
X0082071Y0207929D01*
X0070000Y0262929D02*
X0070002Y0263100D01*
X0070008Y0263271D01*
X0070019Y0263441D01*
X0070033Y0263611D01*
X0070052Y0263781D01*
X0070074Y0263951D01*
X0070101Y0264119D01*
X0070132Y0264288D01*
X0070167Y0264455D01*
X0070205Y0264621D01*
X0070248Y0264787D01*
X0070295Y0264951D01*
X0070346Y0265114D01*
X0070401Y0265276D01*
X0070460Y0265436D01*
X0070522Y0265595D01*
X0070588Y0265753D01*
X0070658Y0265909D01*
X0070732Y0266063D01*
X0070810Y0266215D01*
X0070891Y0266365D01*
X0070976Y0266514D01*
X0071064Y0266660D01*
X0071156Y0266804D01*
X0071252Y0266946D01*
X0071350Y0267085D01*
X0071453Y0267222D01*
X0071558Y0267357D01*
X0071667Y0267489D01*
X0071778Y0267618D01*
X0071893Y0267744D01*
X0072011Y0267868D01*
X0072132Y0267989D01*
X0072256Y0268107D01*
X0072382Y0268222D01*
X0072511Y0268333D01*
X0072643Y0268442D01*
X0072778Y0268547D01*
X0072915Y0268650D01*
X0073054Y0268748D01*
X0073196Y0268844D01*
X0073340Y0268936D01*
X0073486Y0269024D01*
X0073635Y0269109D01*
X0073785Y0269190D01*
X0073937Y0269268D01*
X0074091Y0269342D01*
X0074247Y0269412D01*
X0074405Y0269478D01*
X0074564Y0269540D01*
X0074724Y0269599D01*
X0074886Y0269654D01*
X0075049Y0269705D01*
X0075213Y0269752D01*
X0075379Y0269795D01*
X0075545Y0269833D01*
X0075712Y0269868D01*
X0075881Y0269899D01*
X0076049Y0269926D01*
X0076219Y0269948D01*
X0076389Y0269967D01*
X0076559Y0269981D01*
X0076729Y0269992D01*
X0076900Y0269998D01*
X0077071Y0270000D01*
D11*
X0135000Y0228937D03*
X0135000Y0221063D03*
X0175000Y0221063D03*
X0175000Y0228937D03*
X0214500Y0228937D03*
X0214500Y0221063D03*
X0255000Y0221063D03*
X0255000Y0228937D03*
X0255000Y0188937D03*
X0255000Y0181063D03*
X0215000Y0181063D03*
X0215000Y0188937D03*
X0215000Y0163937D03*
X0215000Y0156063D03*
X0215000Y0138937D03*
X0215000Y0131063D03*
X0175000Y0146063D03*
X0175000Y0153937D03*
X0135000Y0153937D03*
X0135000Y0146063D03*
X0135000Y0181063D03*
X0135000Y0188937D03*
X0175000Y0188937D03*
X0175000Y0181063D03*
D12*
X0161398Y0179094D03*
X0161398Y0183031D03*
X0161398Y0186969D03*
X0161398Y0190906D03*
X0201398Y0190906D03*
X0201398Y0186969D03*
X0201398Y0183031D03*
X0201398Y0179094D03*
X0201398Y0155906D03*
X0201398Y0151969D03*
X0201398Y0148031D03*
X0201398Y0144094D03*
X0241398Y0144094D03*
X0241398Y0148031D03*
X0241398Y0151969D03*
X0241398Y0155906D03*
X0241398Y0179094D03*
X0241398Y0183031D03*
X0241398Y0186969D03*
X0241398Y0190906D03*
X0241398Y0219094D03*
X0241398Y0223031D03*
X0241398Y0226969D03*
X0241398Y0230906D03*
X0201398Y0230906D03*
X0201398Y0226969D03*
X0201398Y0223031D03*
X0201398Y0219094D03*
X0161398Y0219094D03*
X0161398Y0223031D03*
X0161398Y0226969D03*
X0161398Y0230906D03*
X0121398Y0230906D03*
X0121398Y0226969D03*
X0121398Y0223031D03*
X0121398Y0219094D03*
X0121398Y0190906D03*
X0121398Y0186969D03*
X0121398Y0183031D03*
X0121398Y0179094D03*
X0121398Y0155906D03*
X0121398Y0151969D03*
X0121398Y0148031D03*
X0121398Y0144094D03*
X0161398Y0144094D03*
X0161398Y0148031D03*
X0161398Y0151969D03*
X0161398Y0155906D03*
D13*
X0151457Y0161024D03*
X0151457Y0173976D03*
X0151457Y0196024D03*
X0151457Y0213976D03*
X0151457Y0236024D03*
X0191457Y0236024D03*
X0191457Y0213976D03*
X0191457Y0196024D03*
X0191457Y0173976D03*
X0191457Y0161024D03*
X0191457Y0138976D03*
X0231457Y0138976D03*
X0231457Y0161024D03*
X0231457Y0173976D03*
X0231457Y0196024D03*
X0231457Y0213976D03*
X0231457Y0236024D03*
X0111457Y0236024D03*
X0111457Y0213976D03*
X0111457Y0196024D03*
X0111457Y0173976D03*
X0111457Y0161024D03*
X0111457Y0138976D03*
X0151457Y0138976D03*
D14*
X0252063Y0139000D03*
X0259937Y0139000D03*
X0259937Y0150000D03*
X0252063Y0150000D03*
X0252063Y0161500D03*
X0259937Y0161500D03*
D15*
X0241063Y0128740D03*
X0241063Y0121260D03*
X0249331Y0125000D03*
D16*
X0253031Y0101398D03*
X0256969Y0101398D03*
D17*
X0262087Y0091457D03*
X0247913Y0091457D03*
M02*
