G75*
%MOIN*%
%OFA0B0*%
%FSLAX25Y25*%
%IPPOS*%
%LPD*%
%AMOC8*
5,1,8,0,0,1.08239X$1,22.5*
%
%ADD10C,0.01000*%
%ADD11R,0.05937X0.05937*%
%ADD12C,0.05937*%
%ADD13OC8,0.07000*%
%ADD14R,0.05512X0.04331*%
%ADD15R,0.06102X0.02362*%
%ADD16R,0.07087X0.04724*%
%ADD17R,0.04331X0.05512*%
%ADD18R,0.03543X0.03150*%
%ADD19R,0.02362X0.06102*%
%ADD20R,0.04724X0.07087*%
%ADD21C,0.03937*%
%ADD22C,0.01600*%
%ADD23C,0.03962*%
D10*
X0075000Y0055000D02*
X0305000Y0055000D01*
X0305140Y0055002D01*
X0305280Y0055008D01*
X0305420Y0055018D01*
X0305560Y0055031D01*
X0305699Y0055049D01*
X0305838Y0055071D01*
X0305975Y0055096D01*
X0306113Y0055125D01*
X0306249Y0055158D01*
X0306384Y0055195D01*
X0306518Y0055236D01*
X0306651Y0055281D01*
X0306783Y0055329D01*
X0306913Y0055381D01*
X0307042Y0055436D01*
X0307169Y0055495D01*
X0307295Y0055558D01*
X0307419Y0055624D01*
X0307540Y0055693D01*
X0307660Y0055766D01*
X0307778Y0055843D01*
X0307893Y0055922D01*
X0308007Y0056005D01*
X0308117Y0056091D01*
X0308226Y0056180D01*
X0308332Y0056272D01*
X0308435Y0056367D01*
X0308536Y0056464D01*
X0308633Y0056565D01*
X0308728Y0056668D01*
X0308820Y0056774D01*
X0308909Y0056883D01*
X0308995Y0056993D01*
X0309078Y0057107D01*
X0309157Y0057222D01*
X0309234Y0057340D01*
X0309307Y0057460D01*
X0309376Y0057581D01*
X0309442Y0057705D01*
X0309505Y0057831D01*
X0309564Y0057958D01*
X0309619Y0058087D01*
X0309671Y0058217D01*
X0309719Y0058349D01*
X0309764Y0058482D01*
X0309805Y0058616D01*
X0309842Y0058751D01*
X0309875Y0058887D01*
X0309904Y0059025D01*
X0309929Y0059162D01*
X0309951Y0059301D01*
X0309969Y0059440D01*
X0309982Y0059580D01*
X0309992Y0059720D01*
X0309998Y0059860D01*
X0310000Y0060000D01*
X0310000Y0262929D01*
X0309998Y0263100D01*
X0309992Y0263271D01*
X0309981Y0263441D01*
X0309967Y0263611D01*
X0309948Y0263781D01*
X0309926Y0263951D01*
X0309899Y0264119D01*
X0309868Y0264288D01*
X0309833Y0264455D01*
X0309795Y0264621D01*
X0309752Y0264787D01*
X0309705Y0264951D01*
X0309654Y0265114D01*
X0309599Y0265276D01*
X0309540Y0265436D01*
X0309478Y0265595D01*
X0309412Y0265753D01*
X0309342Y0265909D01*
X0309268Y0266063D01*
X0309190Y0266215D01*
X0309109Y0266365D01*
X0309024Y0266514D01*
X0308936Y0266660D01*
X0308844Y0266804D01*
X0308748Y0266946D01*
X0308650Y0267085D01*
X0308547Y0267222D01*
X0308442Y0267357D01*
X0308333Y0267489D01*
X0308222Y0267618D01*
X0308107Y0267744D01*
X0307989Y0267868D01*
X0307868Y0267989D01*
X0307744Y0268107D01*
X0307618Y0268222D01*
X0307489Y0268333D01*
X0307357Y0268442D01*
X0307222Y0268547D01*
X0307085Y0268650D01*
X0306946Y0268748D01*
X0306804Y0268844D01*
X0306660Y0268936D01*
X0306514Y0269024D01*
X0306365Y0269109D01*
X0306215Y0269190D01*
X0306063Y0269268D01*
X0305909Y0269342D01*
X0305753Y0269412D01*
X0305595Y0269478D01*
X0305436Y0269540D01*
X0305276Y0269599D01*
X0305114Y0269654D01*
X0304951Y0269705D01*
X0304787Y0269752D01*
X0304621Y0269795D01*
X0304455Y0269833D01*
X0304288Y0269868D01*
X0304119Y0269899D01*
X0303951Y0269926D01*
X0303781Y0269948D01*
X0303611Y0269967D01*
X0303441Y0269981D01*
X0303271Y0269992D01*
X0303100Y0269998D01*
X0302929Y0270000D01*
X0077071Y0270000D01*
X0070000Y0265000D02*
X0070000Y0220000D01*
X0082071Y0207929D01*
X0085000Y0200858D02*
X0085000Y0124142D01*
X0084997Y0123904D01*
X0084989Y0123666D01*
X0084975Y0123429D01*
X0084955Y0123191D01*
X0084929Y0122955D01*
X0084898Y0122719D01*
X0084862Y0122484D01*
X0084819Y0122249D01*
X0084771Y0122016D01*
X0084718Y0121784D01*
X0084659Y0121554D01*
X0084595Y0121325D01*
X0084525Y0121097D01*
X0084450Y0120871D01*
X0084369Y0120647D01*
X0084284Y0120425D01*
X0084193Y0120205D01*
X0084096Y0119988D01*
X0083995Y0119773D01*
X0083888Y0119560D01*
X0083777Y0119350D01*
X0083660Y0119142D01*
X0083539Y0118937D01*
X0083413Y0118736D01*
X0083281Y0118537D01*
X0083146Y0118341D01*
X0083005Y0118149D01*
X0082861Y0117960D01*
X0082711Y0117775D01*
X0082557Y0117593D01*
X0082400Y0117415D01*
X0082237Y0117241D01*
X0082071Y0117071D01*
X0070000Y0105000D01*
X0070000Y0060000D01*
X0070002Y0059860D01*
X0070008Y0059720D01*
X0070018Y0059580D01*
X0070031Y0059440D01*
X0070049Y0059301D01*
X0070071Y0059162D01*
X0070096Y0059025D01*
X0070125Y0058887D01*
X0070158Y0058751D01*
X0070195Y0058616D01*
X0070236Y0058482D01*
X0070281Y0058349D01*
X0070329Y0058217D01*
X0070381Y0058087D01*
X0070436Y0057958D01*
X0070495Y0057831D01*
X0070558Y0057705D01*
X0070624Y0057581D01*
X0070693Y0057460D01*
X0070766Y0057340D01*
X0070843Y0057222D01*
X0070922Y0057107D01*
X0071005Y0056993D01*
X0071091Y0056883D01*
X0071180Y0056774D01*
X0071272Y0056668D01*
X0071367Y0056565D01*
X0071464Y0056464D01*
X0071565Y0056367D01*
X0071668Y0056272D01*
X0071774Y0056180D01*
X0071883Y0056091D01*
X0071993Y0056005D01*
X0072107Y0055922D01*
X0072222Y0055843D01*
X0072340Y0055766D01*
X0072460Y0055693D01*
X0072581Y0055624D01*
X0072705Y0055558D01*
X0072831Y0055495D01*
X0072958Y0055436D01*
X0073087Y0055381D01*
X0073217Y0055329D01*
X0073349Y0055281D01*
X0073482Y0055236D01*
X0073616Y0055195D01*
X0073751Y0055158D01*
X0073887Y0055125D01*
X0074025Y0055096D01*
X0074162Y0055071D01*
X0074301Y0055049D01*
X0074440Y0055031D01*
X0074580Y0055018D01*
X0074720Y0055008D01*
X0074860Y0055002D01*
X0075000Y0055000D01*
X0074860Y0055002D01*
X0074720Y0055008D01*
X0074580Y0055018D01*
X0074440Y0055031D01*
X0074301Y0055049D01*
X0074162Y0055071D01*
X0074025Y0055096D01*
X0073887Y0055125D01*
X0073751Y0055158D01*
X0073616Y0055195D01*
X0073482Y0055236D01*
X0073349Y0055281D01*
X0073217Y0055329D01*
X0073087Y0055381D01*
X0072958Y0055436D01*
X0072831Y0055495D01*
X0072705Y0055558D01*
X0072581Y0055624D01*
X0072460Y0055693D01*
X0072340Y0055766D01*
X0072222Y0055843D01*
X0072107Y0055922D01*
X0071993Y0056005D01*
X0071883Y0056091D01*
X0071774Y0056180D01*
X0071668Y0056272D01*
X0071565Y0056367D01*
X0071464Y0056464D01*
X0071367Y0056565D01*
X0071272Y0056668D01*
X0071180Y0056774D01*
X0071091Y0056883D01*
X0071005Y0056993D01*
X0070922Y0057107D01*
X0070843Y0057222D01*
X0070766Y0057340D01*
X0070693Y0057460D01*
X0070624Y0057581D01*
X0070558Y0057705D01*
X0070495Y0057831D01*
X0070436Y0057958D01*
X0070381Y0058087D01*
X0070329Y0058217D01*
X0070281Y0058349D01*
X0070236Y0058482D01*
X0070195Y0058616D01*
X0070158Y0058751D01*
X0070125Y0058887D01*
X0070096Y0059025D01*
X0070071Y0059162D01*
X0070049Y0059301D01*
X0070031Y0059440D01*
X0070018Y0059580D01*
X0070008Y0059720D01*
X0070002Y0059860D01*
X0070000Y0060000D01*
X0085000Y0200858D02*
X0084997Y0201096D01*
X0084989Y0201334D01*
X0084975Y0201571D01*
X0084955Y0201809D01*
X0084929Y0202045D01*
X0084898Y0202281D01*
X0084862Y0202516D01*
X0084819Y0202751D01*
X0084771Y0202984D01*
X0084718Y0203216D01*
X0084659Y0203446D01*
X0084595Y0203675D01*
X0084525Y0203903D01*
X0084450Y0204129D01*
X0084369Y0204353D01*
X0084284Y0204575D01*
X0084193Y0204795D01*
X0084096Y0205012D01*
X0083995Y0205227D01*
X0083888Y0205440D01*
X0083777Y0205650D01*
X0083660Y0205858D01*
X0083539Y0206063D01*
X0083413Y0206264D01*
X0083281Y0206463D01*
X0083146Y0206659D01*
X0083005Y0206851D01*
X0082861Y0207040D01*
X0082711Y0207225D01*
X0082557Y0207407D01*
X0082400Y0207585D01*
X0082237Y0207759D01*
X0082071Y0207929D01*
X0070000Y0262929D02*
X0070002Y0263100D01*
X0070008Y0263271D01*
X0070019Y0263441D01*
X0070033Y0263611D01*
X0070052Y0263781D01*
X0070074Y0263951D01*
X0070101Y0264119D01*
X0070132Y0264288D01*
X0070167Y0264455D01*
X0070205Y0264621D01*
X0070248Y0264787D01*
X0070295Y0264951D01*
X0070346Y0265114D01*
X0070401Y0265276D01*
X0070460Y0265436D01*
X0070522Y0265595D01*
X0070588Y0265753D01*
X0070658Y0265909D01*
X0070732Y0266063D01*
X0070810Y0266215D01*
X0070891Y0266365D01*
X0070976Y0266514D01*
X0071064Y0266660D01*
X0071156Y0266804D01*
X0071252Y0266946D01*
X0071350Y0267085D01*
X0071453Y0267222D01*
X0071558Y0267357D01*
X0071667Y0267489D01*
X0071778Y0267618D01*
X0071893Y0267744D01*
X0072011Y0267868D01*
X0072132Y0267989D01*
X0072256Y0268107D01*
X0072382Y0268222D01*
X0072511Y0268333D01*
X0072643Y0268442D01*
X0072778Y0268547D01*
X0072915Y0268650D01*
X0073054Y0268748D01*
X0073196Y0268844D01*
X0073340Y0268936D01*
X0073486Y0269024D01*
X0073635Y0269109D01*
X0073785Y0269190D01*
X0073937Y0269268D01*
X0074091Y0269342D01*
X0074247Y0269412D01*
X0074405Y0269478D01*
X0074564Y0269540D01*
X0074724Y0269599D01*
X0074886Y0269654D01*
X0075049Y0269705D01*
X0075213Y0269752D01*
X0075379Y0269795D01*
X0075545Y0269833D01*
X0075712Y0269868D01*
X0075881Y0269899D01*
X0076049Y0269926D01*
X0076219Y0269948D01*
X0076389Y0269967D01*
X0076559Y0269981D01*
X0076729Y0269992D01*
X0076900Y0269998D01*
X0077071Y0270000D01*
D11*
X0080000Y0252500D03*
X0080000Y0062500D03*
D12*
X0090000Y0062500D03*
X0100000Y0062500D03*
X0110000Y0062500D03*
X0120000Y0062500D03*
X0130000Y0062500D03*
X0140000Y0062500D03*
X0150000Y0062500D03*
X0160000Y0062500D03*
X0170000Y0062500D03*
X0180000Y0062500D03*
X0190000Y0062500D03*
X0200000Y0062500D03*
X0210000Y0062500D03*
X0220000Y0062500D03*
X0230000Y0062500D03*
X0240000Y0062500D03*
X0250000Y0062500D03*
X0260000Y0062500D03*
X0270000Y0062500D03*
X0280000Y0062500D03*
X0290000Y0062500D03*
X0300000Y0062500D03*
X0300000Y0072500D03*
X0290000Y0072500D03*
X0280000Y0072500D03*
X0270000Y0072500D03*
X0260000Y0072500D03*
X0250000Y0072500D03*
X0240000Y0072500D03*
X0230000Y0072500D03*
X0220000Y0072500D03*
X0210000Y0072500D03*
X0200000Y0072500D03*
X0190000Y0072500D03*
X0180000Y0072500D03*
X0170000Y0072500D03*
X0160000Y0072500D03*
X0150000Y0072500D03*
X0140000Y0072500D03*
X0130000Y0072500D03*
X0120000Y0072500D03*
X0110000Y0072500D03*
X0100000Y0072500D03*
X0090000Y0072500D03*
X0080000Y0072500D03*
X0090000Y0252500D03*
X0100000Y0252500D03*
X0110000Y0252500D03*
X0120000Y0252500D03*
X0130000Y0252500D03*
X0140000Y0252500D03*
X0150000Y0252500D03*
X0160000Y0252500D03*
X0170000Y0252500D03*
X0180000Y0252500D03*
X0190000Y0252500D03*
X0200000Y0252500D03*
X0210000Y0252500D03*
X0220000Y0252500D03*
X0230000Y0252500D03*
X0240000Y0252500D03*
X0250000Y0252500D03*
X0260000Y0252500D03*
X0270000Y0252500D03*
X0280000Y0252500D03*
X0290000Y0252500D03*
X0300000Y0252500D03*
X0300000Y0262500D03*
X0290000Y0262500D03*
X0280000Y0262500D03*
X0270000Y0262500D03*
X0260000Y0262500D03*
X0250000Y0262500D03*
X0240000Y0262500D03*
X0230000Y0262500D03*
X0220000Y0262500D03*
X0210000Y0262500D03*
X0200000Y0262500D03*
X0190000Y0262500D03*
X0180000Y0262500D03*
X0170000Y0262500D03*
X0160000Y0262500D03*
X0150000Y0262500D03*
X0140000Y0262500D03*
X0130000Y0262500D03*
X0120000Y0262500D03*
X0110000Y0262500D03*
X0100000Y0262500D03*
X0090000Y0262500D03*
X0080000Y0262500D03*
D13*
X0130000Y0110000D03*
X0140000Y0110000D03*
X0150000Y0110000D03*
X0160000Y0110000D03*
X0170000Y0110000D03*
X0180000Y0110000D03*
X0190000Y0110000D03*
X0200000Y0110000D03*
X0210000Y0110000D03*
X0220000Y0110000D03*
X0180000Y0090000D03*
X0170000Y0090000D03*
X0160000Y0090000D03*
X0150000Y0090000D03*
X0140000Y0090000D03*
X0130000Y0090000D03*
D14*
X0215000Y0131063D03*
X0215000Y0138937D03*
X0215000Y0156063D03*
X0215000Y0163937D03*
X0215000Y0181063D03*
X0215000Y0188937D03*
X0175000Y0188937D03*
X0175000Y0181063D03*
X0135000Y0181063D03*
X0135000Y0188937D03*
X0135000Y0221063D03*
X0135000Y0228937D03*
X0175000Y0228937D03*
X0175000Y0221063D03*
X0214500Y0221063D03*
X0214500Y0228937D03*
X0255000Y0228937D03*
X0255000Y0221063D03*
X0255000Y0188937D03*
X0255000Y0181063D03*
X0175000Y0153937D03*
X0175000Y0146063D03*
X0135000Y0146063D03*
X0135000Y0153937D03*
D15*
X0121398Y0151969D03*
X0121398Y0155906D03*
X0121398Y0148031D03*
X0121398Y0144094D03*
X0161398Y0144094D03*
X0161398Y0148031D03*
X0161398Y0151969D03*
X0161398Y0155906D03*
X0161398Y0179094D03*
X0161398Y0183031D03*
X0161398Y0186969D03*
X0161398Y0190906D03*
X0201398Y0190906D03*
X0201398Y0186969D03*
X0201398Y0183031D03*
X0201398Y0179094D03*
X0201398Y0155906D03*
X0201398Y0151969D03*
X0201398Y0148031D03*
X0201398Y0144094D03*
X0241398Y0144094D03*
X0241398Y0148031D03*
X0241398Y0151969D03*
X0241398Y0155906D03*
X0241398Y0179094D03*
X0241398Y0183031D03*
X0241398Y0186969D03*
X0241398Y0190906D03*
X0241398Y0219094D03*
X0241398Y0223031D03*
X0241398Y0226969D03*
X0241398Y0230906D03*
X0201398Y0230906D03*
X0201398Y0226969D03*
X0201398Y0223031D03*
X0201398Y0219094D03*
X0161398Y0219094D03*
X0161398Y0223031D03*
X0161398Y0226969D03*
X0161398Y0230906D03*
X0121398Y0230906D03*
X0121398Y0226969D03*
X0121398Y0223031D03*
X0121398Y0219094D03*
X0121398Y0190906D03*
X0121398Y0186969D03*
X0121398Y0183031D03*
X0121398Y0179094D03*
D16*
X0111457Y0173976D03*
X0111457Y0161024D03*
X0111457Y0138976D03*
X0151457Y0138976D03*
X0151457Y0161024D03*
X0151457Y0173976D03*
X0151457Y0196024D03*
X0151457Y0213976D03*
X0151457Y0236024D03*
X0191457Y0236024D03*
X0191457Y0213976D03*
X0191457Y0196024D03*
X0191457Y0173976D03*
X0191457Y0161024D03*
X0191457Y0138976D03*
X0231457Y0138976D03*
X0231457Y0161024D03*
X0231457Y0173976D03*
X0231457Y0196024D03*
X0231457Y0213976D03*
X0231457Y0236024D03*
X0111457Y0236024D03*
X0111457Y0213976D03*
X0111457Y0196024D03*
D17*
X0252063Y0161500D03*
X0259937Y0161500D03*
X0259937Y0150000D03*
X0252063Y0150000D03*
X0252063Y0139000D03*
X0259937Y0139000D03*
D18*
X0249331Y0125000D03*
X0241063Y0121260D03*
X0241063Y0128740D03*
D19*
X0253031Y0101398D03*
X0256969Y0101398D03*
D20*
X0262087Y0091457D03*
X0247913Y0091457D03*
D21*
X0078000Y0084500D03*
X0303000Y0242000D03*
D22*
X0302555Y0246952D02*
X0302465Y0247004D01*
X0302133Y0246915D01*
X0301792Y0246885D01*
X0301725Y0246806D01*
X0301701Y0246799D01*
X0301604Y0246835D01*
X0301293Y0246690D01*
X0300962Y0246601D01*
X0300910Y0246511D01*
X0300888Y0246501D01*
X0300785Y0246519D01*
X0300504Y0246322D01*
X0300194Y0246177D01*
X0300158Y0246080D01*
X0300138Y0246066D01*
X0300034Y0246066D01*
X0299792Y0245823D01*
X0299511Y0245627D01*
X0299493Y0245524D01*
X0299476Y0245507D01*
X0299373Y0245489D01*
X0299177Y0245208D01*
X0298934Y0244966D01*
X0298934Y0244862D01*
X0298920Y0244842D01*
X0298823Y0244806D01*
X0298678Y0244496D01*
X0298481Y0244214D01*
X0298499Y0244112D01*
X0298489Y0244090D01*
X0298399Y0244038D01*
X0298310Y0243707D01*
X0298165Y0243396D01*
X0298201Y0243298D01*
X0298194Y0243275D01*
X0298115Y0243208D01*
X0298085Y0242867D01*
X0297996Y0242535D01*
X0298048Y0242445D01*
X0298046Y0242421D01*
X0297979Y0242342D01*
X0298009Y0242000D01*
X0297979Y0241658D01*
X0298046Y0241579D01*
X0298048Y0241555D01*
X0297996Y0241465D01*
X0298085Y0241133D01*
X0298115Y0240792D01*
X0298194Y0240725D01*
X0298201Y0240701D01*
X0298165Y0240604D01*
X0298310Y0240293D01*
X0298399Y0239962D01*
X0298489Y0239910D01*
X0298499Y0239888D01*
X0298481Y0239785D01*
X0298678Y0239504D01*
X0298823Y0239194D01*
X0298920Y0239158D01*
X0298934Y0239138D01*
X0298934Y0239034D01*
X0299177Y0238792D01*
X0299373Y0238511D01*
X0299476Y0238493D01*
X0299493Y0238476D01*
X0299511Y0238373D01*
X0299792Y0238177D01*
X0300034Y0237934D01*
X0300138Y0237934D01*
X0300158Y0237920D01*
X0300194Y0237823D01*
X0300504Y0237678D01*
X0300785Y0237481D01*
X0300888Y0237499D01*
X0300910Y0237489D01*
X0300962Y0237399D01*
X0301293Y0237310D01*
X0301604Y0237165D01*
X0301701Y0237201D01*
X0301725Y0237194D01*
X0301792Y0237115D01*
X0302133Y0237085D01*
X0302465Y0236996D01*
X0302555Y0237048D01*
X0302579Y0237046D01*
X0302658Y0236979D01*
X0303000Y0237009D01*
X0303342Y0236979D01*
X0303421Y0237046D01*
X0303445Y0237048D01*
X0303535Y0236996D01*
X0303867Y0237085D01*
X0304208Y0237115D01*
X0304275Y0237194D01*
X0304298Y0237201D01*
X0304396Y0237165D01*
X0304707Y0237310D01*
X0305038Y0237399D01*
X0305090Y0237489D01*
X0305112Y0237499D01*
X0305214Y0237481D01*
X0305496Y0237678D01*
X0305806Y0237823D01*
X0305842Y0237920D01*
X0305862Y0237934D01*
X0305966Y0237934D01*
X0306208Y0238177D01*
X0306489Y0238373D01*
X0306507Y0238476D01*
X0306524Y0238493D01*
X0306627Y0238511D01*
X0306823Y0238792D01*
X0307066Y0239034D01*
X0307066Y0239138D01*
X0307080Y0239158D01*
X0307177Y0239194D01*
X0307322Y0239504D01*
X0307519Y0239785D01*
X0307501Y0239888D01*
X0307511Y0239910D01*
X0307601Y0239962D01*
X0307690Y0240293D01*
X0307835Y0240604D01*
X0307799Y0240701D01*
X0307806Y0240725D01*
X0307885Y0240792D01*
X0307915Y0241133D01*
X0308004Y0241465D01*
X0307952Y0241555D01*
X0307954Y0241579D01*
X0308021Y0241658D01*
X0307991Y0242000D01*
X0308021Y0242342D01*
X0307954Y0242421D01*
X0307952Y0242445D01*
X0308004Y0242535D01*
X0307915Y0242867D01*
X0307885Y0243208D01*
X0307806Y0243275D01*
X0307799Y0243298D01*
X0307835Y0243396D01*
X0307690Y0243707D01*
X0307601Y0244038D01*
X0307511Y0244090D01*
X0307501Y0244112D01*
X0307519Y0244214D01*
X0307322Y0244496D01*
X0307177Y0244806D01*
X0307080Y0244842D01*
X0307066Y0244862D01*
X0307066Y0244966D01*
X0306823Y0245208D01*
X0306627Y0245489D01*
X0306524Y0245507D01*
X0306507Y0245524D01*
X0306489Y0245627D01*
X0306208Y0245823D01*
X0305966Y0246066D01*
X0305862Y0246066D01*
X0305842Y0246080D01*
X0305806Y0246177D01*
X0305496Y0246322D01*
X0305214Y0246519D01*
X0305112Y0246501D01*
X0305090Y0246511D01*
X0305038Y0246601D01*
X0304707Y0246690D01*
X0304396Y0246835D01*
X0304298Y0246799D01*
X0304275Y0246806D01*
X0304208Y0246885D01*
X0303867Y0246915D01*
X0303535Y0247004D01*
X0303445Y0246952D01*
X0303421Y0246954D01*
X0303342Y0247021D01*
X0303000Y0246991D01*
X0302658Y0247021D01*
X0302579Y0246954D01*
X0302555Y0246952D01*
X0302588Y0248627D02*
X0300909Y0247931D01*
X0299091Y0247931D01*
X0297412Y0248627D01*
X0296127Y0249912D01*
X0295431Y0251591D01*
X0295431Y0253409D01*
X0296127Y0255088D01*
X0297412Y0256373D01*
X0299091Y0257068D01*
X0300909Y0257068D01*
X0302588Y0256373D01*
X0303873Y0255088D01*
X0304568Y0253409D01*
X0304568Y0251591D01*
X0303873Y0249912D01*
X0302588Y0248627D01*
X0303533Y0249572D02*
X0310000Y0249572D01*
X0310000Y0247974D02*
X0301011Y0247974D01*
X0300580Y0246375D02*
X0242400Y0246375D01*
X0242400Y0244777D02*
X0298809Y0244777D01*
X0298112Y0243178D02*
X0242400Y0243178D01*
X0242400Y0241580D02*
X0298045Y0241580D01*
X0298394Y0239981D02*
X0242400Y0239981D01*
X0242400Y0238383D02*
X0299509Y0238383D01*
X0306491Y0238383D02*
X0310000Y0238383D01*
X0310000Y0239981D02*
X0307606Y0239981D01*
X0307955Y0241580D02*
X0310000Y0241580D01*
X0310000Y0243178D02*
X0307888Y0243178D01*
X0307191Y0244777D02*
X0310000Y0244777D01*
X0310000Y0246375D02*
X0305420Y0246375D01*
X0298989Y0247974D02*
X0291011Y0247974D01*
X0290909Y0247931D02*
X0292588Y0248627D01*
X0293873Y0249912D01*
X0294568Y0251591D01*
X0294568Y0253409D01*
X0293873Y0255088D01*
X0292588Y0256373D01*
X0290909Y0257068D01*
X0289091Y0257068D01*
X0287412Y0256373D01*
X0286127Y0255088D01*
X0285431Y0253409D01*
X0285431Y0251591D01*
X0286127Y0249912D01*
X0287412Y0248627D01*
X0289091Y0247931D01*
X0290909Y0247931D01*
X0288989Y0247974D02*
X0281011Y0247974D01*
X0280909Y0247931D02*
X0282588Y0248627D01*
X0283873Y0249912D01*
X0284568Y0251591D01*
X0284568Y0253409D01*
X0283873Y0255088D01*
X0282588Y0256373D01*
X0280909Y0257068D01*
X0279091Y0257068D01*
X0277412Y0256373D01*
X0276127Y0255088D01*
X0275431Y0253409D01*
X0275431Y0251591D01*
X0276127Y0249912D01*
X0277412Y0248627D01*
X0279091Y0247931D01*
X0280909Y0247931D01*
X0278989Y0247974D02*
X0271011Y0247974D01*
X0270909Y0247931D02*
X0272588Y0248627D01*
X0273873Y0249912D01*
X0274568Y0251591D01*
X0274568Y0253409D01*
X0273873Y0255088D01*
X0272588Y0256373D01*
X0270909Y0257068D01*
X0269091Y0257068D01*
X0267412Y0256373D01*
X0266127Y0255088D01*
X0265431Y0253409D01*
X0265431Y0251591D01*
X0266127Y0249912D01*
X0267412Y0248627D01*
X0269091Y0247931D01*
X0270909Y0247931D01*
X0268989Y0247974D02*
X0261011Y0247974D01*
X0260909Y0247931D02*
X0262588Y0248627D01*
X0263873Y0249912D01*
X0264568Y0251591D01*
X0264568Y0253409D01*
X0263873Y0255088D01*
X0262588Y0256373D01*
X0260909Y0257068D01*
X0259091Y0257068D01*
X0257412Y0256373D01*
X0256127Y0255088D01*
X0255431Y0253409D01*
X0255431Y0251591D01*
X0256127Y0249912D01*
X0257412Y0248627D01*
X0259091Y0247931D01*
X0260909Y0247931D01*
X0258989Y0247974D02*
X0251011Y0247974D01*
X0250909Y0247931D02*
X0252588Y0248627D01*
X0253873Y0249912D01*
X0254568Y0251591D01*
X0254568Y0253409D01*
X0253873Y0255088D01*
X0252588Y0256373D01*
X0250909Y0257068D01*
X0249091Y0257068D01*
X0247412Y0256373D01*
X0246127Y0255088D01*
X0245431Y0253409D01*
X0245431Y0251591D01*
X0246127Y0249912D01*
X0247412Y0248627D01*
X0249091Y0247931D01*
X0250909Y0247931D01*
X0248989Y0247974D02*
X0242400Y0247974D01*
X0242400Y0248549D02*
X0242588Y0248627D01*
X0243873Y0249912D01*
X0244568Y0251591D01*
X0244568Y0253409D01*
X0243873Y0255088D01*
X0242588Y0256373D01*
X0240909Y0257068D01*
X0239091Y0257068D01*
X0237412Y0256373D01*
X0236127Y0255088D01*
X0235431Y0253409D01*
X0235431Y0251591D01*
X0236127Y0249912D01*
X0237412Y0248627D01*
X0237600Y0248549D01*
X0237600Y0234523D01*
X0237946Y0233687D01*
X0237684Y0233687D01*
X0236746Y0232749D01*
X0236746Y0229062D01*
X0236871Y0228937D01*
X0236746Y0228812D01*
X0236746Y0225125D01*
X0236871Y0225000D01*
X0236746Y0224875D01*
X0236746Y0221188D01*
X0236871Y0221063D01*
X0236746Y0220938D01*
X0236746Y0217251D01*
X0237684Y0216313D01*
X0245112Y0216313D01*
X0246049Y0217251D01*
X0246049Y0220938D01*
X0245924Y0221063D01*
X0246049Y0221188D01*
X0246049Y0224875D01*
X0245924Y0225000D01*
X0246049Y0225125D01*
X0246049Y0227557D01*
X0246703Y0226902D01*
X0247586Y0226537D01*
X0250644Y0226537D01*
X0250644Y0226109D01*
X0251581Y0225172D01*
X0258419Y0225172D01*
X0259356Y0226109D01*
X0259356Y0231765D01*
X0258419Y0232702D01*
X0251581Y0232702D01*
X0250644Y0231765D01*
X0250644Y0231337D01*
X0249057Y0231337D01*
X0248035Y0232359D01*
X0248035Y0232359D01*
X0247359Y0233035D01*
X0246477Y0233400D01*
X0245398Y0233400D01*
X0245112Y0233687D01*
X0243798Y0233687D01*
X0243798Y0234080D01*
X0243432Y0234962D01*
X0242757Y0235637D01*
X0242400Y0235994D01*
X0242400Y0248549D01*
X0243533Y0249572D02*
X0246467Y0249572D01*
X0245606Y0251171D02*
X0244394Y0251171D01*
X0244568Y0252769D02*
X0245431Y0252769D01*
X0245829Y0254368D02*
X0244171Y0254368D01*
X0242995Y0255966D02*
X0247005Y0255966D01*
X0247412Y0258627D02*
X0249091Y0257931D01*
X0250909Y0257931D01*
X0252588Y0258627D01*
X0253873Y0259912D01*
X0254568Y0261591D01*
X0254568Y0263409D01*
X0253930Y0264950D01*
X0256070Y0264950D01*
X0255431Y0263409D01*
X0255431Y0261591D01*
X0256127Y0259912D01*
X0257412Y0258627D01*
X0259091Y0257931D01*
X0260909Y0257931D01*
X0262588Y0258627D01*
X0263873Y0259912D01*
X0264568Y0261591D01*
X0264568Y0263409D01*
X0263930Y0264950D01*
X0266070Y0264950D01*
X0265431Y0263409D01*
X0265431Y0261591D01*
X0266127Y0259912D01*
X0267412Y0258627D01*
X0269091Y0257931D01*
X0270909Y0257931D01*
X0272588Y0258627D01*
X0273873Y0259912D01*
X0274568Y0261591D01*
X0274568Y0263409D01*
X0273930Y0264950D01*
X0276070Y0264950D01*
X0275431Y0263409D01*
X0275431Y0261591D01*
X0276127Y0259912D01*
X0277412Y0258627D01*
X0279091Y0257931D01*
X0280909Y0257931D01*
X0282588Y0258627D01*
X0283873Y0259912D01*
X0284568Y0261591D01*
X0284568Y0263409D01*
X0283930Y0264950D01*
X0286070Y0264950D01*
X0285431Y0263409D01*
X0285431Y0261591D01*
X0286127Y0259912D01*
X0287412Y0258627D01*
X0289091Y0257931D01*
X0290909Y0257931D01*
X0292588Y0258627D01*
X0293873Y0259912D01*
X0294568Y0261591D01*
X0294568Y0263409D01*
X0293930Y0264950D01*
X0295000Y0264950D01*
X0296053Y0264909D01*
X0295431Y0263409D01*
X0295431Y0261591D01*
X0296127Y0259912D01*
X0297412Y0258627D01*
X0299091Y0257931D01*
X0300909Y0257931D01*
X0302588Y0258627D01*
X0303873Y0259912D01*
X0304568Y0261591D01*
X0304568Y0263409D01*
X0304371Y0263886D01*
X0305493Y0263708D01*
X0310000Y0262244D01*
X0310000Y0062756D01*
X0305493Y0061292D01*
X0304574Y0061146D01*
X0304651Y0061383D01*
X0304768Y0062125D01*
X0304768Y0062316D01*
X0300184Y0062316D01*
X0300184Y0062684D01*
X0299816Y0062684D01*
X0299816Y0062316D01*
X0295231Y0062316D01*
X0295231Y0062125D01*
X0295349Y0061383D01*
X0295581Y0060670D01*
X0295879Y0060085D01*
X0295000Y0060050D01*
X0294103Y0060050D01*
X0294419Y0060670D01*
X0294651Y0061383D01*
X0294768Y0062125D01*
X0294768Y0062316D01*
X0290184Y0062316D01*
X0290184Y0062684D01*
X0289816Y0062684D01*
X0289816Y0062316D01*
X0285231Y0062316D01*
X0285231Y0062125D01*
X0285349Y0061383D01*
X0285581Y0060670D01*
X0285897Y0060050D01*
X0283930Y0060050D01*
X0284568Y0061591D01*
X0284568Y0063409D01*
X0283873Y0065088D01*
X0282588Y0066373D01*
X0280909Y0067068D01*
X0279091Y0067068D01*
X0277412Y0066373D01*
X0276127Y0065088D01*
X0275431Y0063409D01*
X0275431Y0061591D01*
X0276070Y0060050D01*
X0273930Y0060050D01*
X0274568Y0061591D01*
X0274568Y0063409D01*
X0273873Y0065088D01*
X0272588Y0066373D01*
X0270909Y0067068D01*
X0269091Y0067068D01*
X0267412Y0066373D01*
X0266127Y0065088D01*
X0265431Y0063409D01*
X0265431Y0061591D01*
X0266070Y0060050D01*
X0263930Y0060050D01*
X0264568Y0061591D01*
X0264568Y0063409D01*
X0263873Y0065088D01*
X0262588Y0066373D01*
X0260909Y0067068D01*
X0259091Y0067068D01*
X0257412Y0066373D01*
X0256127Y0065088D01*
X0255431Y0063409D01*
X0255431Y0061591D01*
X0256070Y0060050D01*
X0253930Y0060050D01*
X0254568Y0061591D01*
X0254568Y0063409D01*
X0253873Y0065088D01*
X0252588Y0066373D01*
X0250909Y0067068D01*
X0249091Y0067068D01*
X0247412Y0066373D01*
X0246127Y0065088D01*
X0245431Y0063409D01*
X0245431Y0061591D01*
X0246070Y0060050D01*
X0243930Y0060050D01*
X0244568Y0061591D01*
X0244568Y0063409D01*
X0243873Y0065088D01*
X0242588Y0066373D01*
X0240909Y0067068D01*
X0239091Y0067068D01*
X0237412Y0066373D01*
X0236127Y0065088D01*
X0235431Y0063409D01*
X0235431Y0061591D01*
X0236070Y0060050D01*
X0233930Y0060050D01*
X0234568Y0061591D01*
X0234568Y0063409D01*
X0233873Y0065088D01*
X0232588Y0066373D01*
X0230909Y0067068D01*
X0229091Y0067068D01*
X0227412Y0066373D01*
X0226127Y0065088D01*
X0225431Y0063409D01*
X0225431Y0061591D01*
X0226070Y0060050D01*
X0223930Y0060050D01*
X0224568Y0061591D01*
X0224568Y0063409D01*
X0223873Y0065088D01*
X0222588Y0066373D01*
X0220909Y0067068D01*
X0219091Y0067068D01*
X0217412Y0066373D01*
X0216127Y0065088D01*
X0215431Y0063409D01*
X0215431Y0061591D01*
X0216070Y0060050D01*
X0213930Y0060050D01*
X0214568Y0061591D01*
X0214568Y0063409D01*
X0213873Y0065088D01*
X0212588Y0066373D01*
X0210909Y0067068D01*
X0209117Y0067068D01*
X0207894Y0068427D01*
X0209091Y0067931D01*
X0210909Y0067931D01*
X0212588Y0068627D01*
X0213873Y0069912D01*
X0214568Y0071591D01*
X0214568Y0073409D01*
X0213873Y0075088D01*
X0212588Y0076373D01*
X0210909Y0077068D01*
X0209091Y0077068D01*
X0207412Y0076373D01*
X0206127Y0075088D01*
X0205431Y0073409D01*
X0205431Y0071591D01*
X0206127Y0069912D01*
X0206227Y0069812D01*
X0206103Y0069872D01*
X0206038Y0069875D01*
X0205977Y0069900D01*
X0205563Y0069900D01*
X0205149Y0069922D01*
X0205088Y0069900D01*
X0203861Y0069900D01*
X0203873Y0069912D01*
X0204568Y0071591D01*
X0204568Y0073409D01*
X0203873Y0075088D01*
X0202588Y0076373D01*
X0200909Y0077068D01*
X0199091Y0077068D01*
X0197412Y0076373D01*
X0196127Y0075088D01*
X0195431Y0073409D01*
X0195431Y0071591D01*
X0196127Y0069912D01*
X0196139Y0069900D01*
X0193861Y0069900D01*
X0193873Y0069912D01*
X0194568Y0071591D01*
X0194568Y0073409D01*
X0193873Y0075088D01*
X0192588Y0076373D01*
X0190909Y0077068D01*
X0189091Y0077068D01*
X0187412Y0076373D01*
X0186127Y0075088D01*
X0185431Y0073409D01*
X0185431Y0071591D01*
X0186127Y0069912D01*
X0186139Y0069900D01*
X0183861Y0069900D01*
X0183873Y0069912D01*
X0184568Y0071591D01*
X0184568Y0073409D01*
X0183873Y0075088D01*
X0182588Y0076373D01*
X0180909Y0077068D01*
X0179091Y0077068D01*
X0177412Y0076373D01*
X0177141Y0076102D01*
X0177035Y0076359D01*
X0176359Y0077035D01*
X0172400Y0080994D01*
X0172400Y0085188D01*
X0175000Y0087788D01*
X0177888Y0084900D01*
X0182112Y0084900D01*
X0184812Y0087600D01*
X0214959Y0087600D01*
X0215396Y0087585D01*
X0215435Y0087600D01*
X0215477Y0087600D01*
X0215881Y0087767D01*
X0216290Y0087920D01*
X0216320Y0087949D01*
X0216359Y0087965D01*
X0216668Y0088274D01*
X0216987Y0088572D01*
X0217005Y0088611D01*
X0217035Y0088641D01*
X0217202Y0089044D01*
X0221077Y0097570D01*
X0222029Y0097964D01*
X0223036Y0098971D01*
X0223581Y0100288D01*
X0223581Y0101712D01*
X0223213Y0102600D01*
X0227336Y0102600D01*
X0227971Y0101964D01*
X0229288Y0101419D01*
X0230712Y0101419D01*
X0232029Y0101964D01*
X0233036Y0102971D01*
X0233581Y0104288D01*
X0233581Y0105712D01*
X0233036Y0107029D01*
X0232464Y0107600D01*
X0254006Y0107600D01*
X0254569Y0107037D01*
X0254569Y0106217D01*
X0254450Y0106249D01*
X0253032Y0106249D01*
X0253032Y0101398D01*
X0253031Y0101398D01*
X0253031Y0101398D01*
X0250050Y0101398D01*
X0250050Y0104686D01*
X0250173Y0105144D01*
X0250410Y0105554D01*
X0250745Y0105889D01*
X0251156Y0106126D01*
X0251613Y0106249D01*
X0253031Y0106249D01*
X0253031Y0101398D01*
X0250050Y0101398D01*
X0250050Y0098109D01*
X0250173Y0097652D01*
X0250410Y0097241D01*
X0250745Y0096906D01*
X0251156Y0096669D01*
X0251613Y0096546D01*
X0253031Y0096546D01*
X0253031Y0101398D01*
X0253032Y0101398D01*
X0253032Y0096546D01*
X0254450Y0096546D01*
X0254907Y0096669D01*
X0255094Y0096777D01*
X0255125Y0096746D01*
X0258812Y0096746D01*
X0259750Y0097684D01*
X0259750Y0105112D01*
X0259368Y0105493D01*
X0259368Y0108509D01*
X0259003Y0109391D01*
X0258328Y0110066D01*
X0256359Y0112035D01*
X0255477Y0112400D01*
X0237464Y0112400D01*
X0238036Y0112971D01*
X0238581Y0114288D01*
X0238581Y0115712D01*
X0238036Y0117029D01*
X0237029Y0118036D01*
X0235712Y0118581D01*
X0234288Y0118581D01*
X0232971Y0118036D01*
X0231964Y0117029D01*
X0231419Y0115712D01*
X0231419Y0114288D01*
X0231964Y0112971D01*
X0232536Y0112400D01*
X0224812Y0112400D01*
X0222112Y0115100D01*
X0217888Y0115100D01*
X0215000Y0112212D01*
X0212112Y0115100D01*
X0207888Y0115100D01*
X0205000Y0112212D01*
X0202112Y0115100D01*
X0197888Y0115100D01*
X0195000Y0112212D01*
X0192112Y0115100D01*
X0188105Y0115100D01*
X0192438Y0119100D01*
X0237691Y0119100D01*
X0237691Y0119022D01*
X0238629Y0118085D01*
X0243497Y0118085D01*
X0244272Y0118860D01*
X0256737Y0118860D01*
X0257619Y0119225D01*
X0271359Y0132965D01*
X0272035Y0133641D01*
X0272400Y0134523D01*
X0272400Y0155477D01*
X0272035Y0156359D01*
X0271359Y0157035D01*
X0266422Y0161972D01*
X0265540Y0162337D01*
X0263702Y0162337D01*
X0263702Y0164919D01*
X0262765Y0165856D01*
X0257109Y0165856D01*
X0256172Y0164919D01*
X0256172Y0158305D01*
X0255828Y0158305D01*
X0255828Y0164919D01*
X0254891Y0165856D01*
X0251101Y0165856D01*
X0247422Y0169535D01*
X0246540Y0169900D01*
X0234664Y0169900D01*
X0234550Y0170014D01*
X0235663Y0170014D01*
X0236600Y0170951D01*
X0236600Y0176694D01*
X0237303Y0176694D01*
X0237684Y0176313D01*
X0245112Y0176313D01*
X0246049Y0177251D01*
X0246049Y0177600D01*
X0251279Y0177600D01*
X0251581Y0177298D01*
X0258419Y0177298D01*
X0259356Y0178235D01*
X0259356Y0183891D01*
X0258419Y0184828D01*
X0251581Y0184828D01*
X0250644Y0183891D01*
X0250644Y0182400D01*
X0246249Y0182400D01*
X0246249Y0183031D01*
X0241398Y0183031D01*
X0241398Y0183032D01*
X0246249Y0183032D01*
X0246249Y0184450D01*
X0246126Y0184907D01*
X0246018Y0185094D01*
X0246049Y0185125D01*
X0246049Y0188600D01*
X0249006Y0188600D01*
X0250028Y0187578D01*
X0250644Y0186962D01*
X0250644Y0186109D01*
X0251581Y0185172D01*
X0258419Y0185172D01*
X0259356Y0186109D01*
X0259356Y0191765D01*
X0258419Y0192702D01*
X0251692Y0192702D01*
X0251359Y0193035D01*
X0250477Y0193400D01*
X0245398Y0193400D01*
X0245112Y0193687D01*
X0242400Y0193687D01*
X0242400Y0199867D01*
X0242438Y0200209D01*
X0242400Y0200341D01*
X0242400Y0200477D01*
X0242268Y0200796D01*
X0242172Y0201126D01*
X0242087Y0201233D01*
X0242035Y0201359D01*
X0241791Y0201603D01*
X0240087Y0203733D01*
X0240081Y0203747D01*
X0240081Y0204712D01*
X0239536Y0206029D01*
X0238964Y0206600D01*
X0244763Y0206600D01*
X0245000Y0206553D01*
X0245236Y0206600D01*
X0245477Y0206600D01*
X0245700Y0206692D01*
X0245936Y0206739D01*
X0246137Y0206873D01*
X0246359Y0206965D01*
X0246530Y0207136D01*
X0246730Y0207269D01*
X0246864Y0207470D01*
X0247035Y0207641D01*
X0247127Y0207863D01*
X0253433Y0217298D01*
X0258419Y0217298D01*
X0259356Y0218235D01*
X0259356Y0223891D01*
X0258419Y0224828D01*
X0251581Y0224828D01*
X0250644Y0223891D01*
X0250644Y0221763D01*
X0243717Y0211400D01*
X0236600Y0211400D01*
X0236600Y0217001D01*
X0235663Y0217939D01*
X0227251Y0217939D01*
X0226313Y0217001D01*
X0226313Y0211400D01*
X0225994Y0211400D01*
X0218856Y0218538D01*
X0218856Y0223891D01*
X0217919Y0224828D01*
X0211081Y0224828D01*
X0210144Y0223891D01*
X0210144Y0218406D01*
X0203471Y0211400D01*
X0196600Y0211400D01*
X0196600Y0217001D01*
X0195663Y0217939D01*
X0187251Y0217939D01*
X0186313Y0217001D01*
X0186313Y0211786D01*
X0179356Y0219732D01*
X0179356Y0223891D01*
X0178419Y0224828D01*
X0171581Y0224828D01*
X0170644Y0223891D01*
X0170644Y0221038D01*
X0161006Y0211400D01*
X0156600Y0211400D01*
X0156600Y0217001D01*
X0155663Y0217939D01*
X0147251Y0217939D01*
X0146313Y0217001D01*
X0146313Y0213144D01*
X0139356Y0220101D01*
X0139356Y0223891D01*
X0138419Y0224828D01*
X0131581Y0224828D01*
X0130644Y0223891D01*
X0130644Y0220101D01*
X0122443Y0211900D01*
X0116600Y0211900D01*
X0116600Y0217001D01*
X0115663Y0217939D01*
X0107251Y0217939D01*
X0106313Y0217001D01*
X0106313Y0211900D01*
X0101023Y0211900D01*
X0100141Y0211535D01*
X0099465Y0210859D01*
X0089894Y0201288D01*
X0088669Y0206657D01*
X0085975Y0212250D01*
X0085975Y0212250D01*
X0082104Y0217104D01*
X0077250Y0220975D01*
X0071657Y0223669D01*
X0070000Y0224047D01*
X0070000Y0264950D01*
X0075897Y0264950D01*
X0075581Y0264330D01*
X0075349Y0263617D01*
X0075231Y0262875D01*
X0075231Y0262684D01*
X0079816Y0262684D01*
X0079816Y0262316D01*
X0080184Y0262316D01*
X0080184Y0257731D01*
X0080375Y0257731D01*
X0081117Y0257849D01*
X0081830Y0258081D01*
X0082499Y0258422D01*
X0083106Y0258863D01*
X0083637Y0259394D01*
X0084078Y0260001D01*
X0084419Y0260670D01*
X0084651Y0261383D01*
X0084768Y0262125D01*
X0084768Y0262316D01*
X0080184Y0262316D01*
X0080184Y0262684D01*
X0084768Y0262684D01*
X0084768Y0262875D01*
X0084651Y0263617D01*
X0084419Y0264330D01*
X0084103Y0264950D01*
X0086070Y0264950D01*
X0085431Y0263409D01*
X0085431Y0261591D01*
X0086127Y0259912D01*
X0087412Y0258627D01*
X0089091Y0257931D01*
X0090909Y0257931D01*
X0092588Y0258627D01*
X0093873Y0259912D01*
X0094568Y0261591D01*
X0094568Y0263409D01*
X0093930Y0264950D01*
X0096070Y0264950D01*
X0095431Y0263409D01*
X0095431Y0261591D01*
X0096127Y0259912D01*
X0097412Y0258627D01*
X0099091Y0257931D01*
X0100909Y0257931D01*
X0102588Y0258627D01*
X0103873Y0259912D01*
X0104568Y0261591D01*
X0104568Y0263409D01*
X0103930Y0264950D01*
X0106070Y0264950D01*
X0105431Y0263409D01*
X0105431Y0261591D01*
X0106127Y0259912D01*
X0107412Y0258627D01*
X0109091Y0257931D01*
X0110909Y0257931D01*
X0112588Y0258627D01*
X0113873Y0259912D01*
X0114568Y0261591D01*
X0114568Y0263409D01*
X0113930Y0264950D01*
X0116070Y0264950D01*
X0115431Y0263409D01*
X0115431Y0261591D01*
X0116127Y0259912D01*
X0117412Y0258627D01*
X0119091Y0257931D01*
X0120909Y0257931D01*
X0122588Y0258627D01*
X0123873Y0259912D01*
X0124568Y0261591D01*
X0124568Y0263409D01*
X0123930Y0264950D01*
X0126070Y0264950D01*
X0125431Y0263409D01*
X0125431Y0261591D01*
X0126127Y0259912D01*
X0127412Y0258627D01*
X0129091Y0257931D01*
X0130909Y0257931D01*
X0132588Y0258627D01*
X0133873Y0259912D01*
X0134568Y0261591D01*
X0134568Y0263409D01*
X0133930Y0264950D01*
X0136070Y0264950D01*
X0135431Y0263409D01*
X0135431Y0261591D01*
X0136127Y0259912D01*
X0137412Y0258627D01*
X0139091Y0257931D01*
X0140909Y0257931D01*
X0142588Y0258627D01*
X0143873Y0259912D01*
X0144568Y0261591D01*
X0144568Y0263409D01*
X0143930Y0264950D01*
X0146070Y0264950D01*
X0145431Y0263409D01*
X0145431Y0261591D01*
X0146127Y0259912D01*
X0147412Y0258627D01*
X0149091Y0257931D01*
X0150909Y0257931D01*
X0152588Y0258627D01*
X0153873Y0259912D01*
X0154568Y0261591D01*
X0154568Y0263409D01*
X0153930Y0264950D01*
X0156070Y0264950D01*
X0155431Y0263409D01*
X0155431Y0261591D01*
X0156127Y0259912D01*
X0157412Y0258627D01*
X0159091Y0257931D01*
X0160909Y0257931D01*
X0162588Y0258627D01*
X0163873Y0259912D01*
X0164568Y0261591D01*
X0164568Y0263409D01*
X0163930Y0264950D01*
X0166070Y0264950D01*
X0165431Y0263409D01*
X0165431Y0261591D01*
X0166127Y0259912D01*
X0167412Y0258627D01*
X0169091Y0257931D01*
X0170909Y0257931D01*
X0172588Y0258627D01*
X0173873Y0259912D01*
X0174568Y0261591D01*
X0174568Y0263409D01*
X0173930Y0264950D01*
X0176070Y0264950D01*
X0175431Y0263409D01*
X0175431Y0261591D01*
X0176127Y0259912D01*
X0177412Y0258627D01*
X0179091Y0257931D01*
X0180909Y0257931D01*
X0182588Y0258627D01*
X0183873Y0259912D01*
X0184568Y0261591D01*
X0184568Y0263409D01*
X0183930Y0264950D01*
X0186070Y0264950D01*
X0185431Y0263409D01*
X0185431Y0261591D01*
X0186127Y0259912D01*
X0187412Y0258627D01*
X0189091Y0257931D01*
X0190909Y0257931D01*
X0192588Y0258627D01*
X0193873Y0259912D01*
X0194568Y0261591D01*
X0194568Y0263409D01*
X0193930Y0264950D01*
X0196070Y0264950D01*
X0195431Y0263409D01*
X0195431Y0261591D01*
X0196127Y0259912D01*
X0197412Y0258627D01*
X0199091Y0257931D01*
X0200909Y0257931D01*
X0202588Y0258627D01*
X0203873Y0259912D01*
X0204568Y0261591D01*
X0204568Y0263409D01*
X0203930Y0264950D01*
X0206070Y0264950D01*
X0205431Y0263409D01*
X0205431Y0261591D01*
X0206127Y0259912D01*
X0207412Y0258627D01*
X0209091Y0257931D01*
X0210909Y0257931D01*
X0212588Y0258627D01*
X0213873Y0259912D01*
X0214568Y0261591D01*
X0214568Y0263409D01*
X0213930Y0264950D01*
X0216070Y0264950D01*
X0215431Y0263409D01*
X0215431Y0261591D01*
X0215509Y0261403D01*
X0212965Y0258859D01*
X0212600Y0257977D01*
X0212600Y0256361D01*
X0212588Y0256373D01*
X0210909Y0257068D01*
X0209091Y0257068D01*
X0207412Y0256373D01*
X0206127Y0255088D01*
X0205431Y0253409D01*
X0205431Y0251591D01*
X0206127Y0249912D01*
X0207412Y0248627D01*
X0209091Y0247931D01*
X0210909Y0247931D01*
X0212588Y0248627D01*
X0212600Y0248639D01*
X0212600Y0238994D01*
X0207006Y0233400D01*
X0205398Y0233400D01*
X0205112Y0233687D01*
X0197684Y0233687D01*
X0196746Y0232749D01*
X0196746Y0229062D01*
X0196871Y0228937D01*
X0196746Y0228812D01*
X0196746Y0225125D01*
X0196871Y0225000D01*
X0196746Y0224875D01*
X0196746Y0221188D01*
X0196777Y0221157D01*
X0196669Y0220970D01*
X0196546Y0220513D01*
X0196546Y0219095D01*
X0201398Y0219095D01*
X0206249Y0219095D01*
X0206249Y0220513D01*
X0206126Y0220970D01*
X0206018Y0221157D01*
X0206049Y0221188D01*
X0206049Y0224875D01*
X0205924Y0225000D01*
X0206049Y0225125D01*
X0206049Y0228600D01*
X0207006Y0228600D01*
X0208028Y0227578D01*
X0208703Y0226902D01*
X0209586Y0226537D01*
X0210144Y0226537D01*
X0210144Y0226109D01*
X0211081Y0225172D01*
X0217919Y0225172D01*
X0218856Y0226109D01*
X0218856Y0231765D01*
X0217919Y0232702D01*
X0213096Y0232702D01*
X0216359Y0235965D01*
X0217035Y0236641D01*
X0217400Y0237523D01*
X0217400Y0248639D01*
X0217412Y0248627D01*
X0219091Y0247931D01*
X0220909Y0247931D01*
X0222588Y0248627D01*
X0222600Y0248639D01*
X0222600Y0245494D01*
X0222187Y0245081D01*
X0221288Y0245081D01*
X0219971Y0244536D01*
X0218964Y0243529D01*
X0218419Y0242212D01*
X0218419Y0240788D01*
X0218964Y0239471D01*
X0219971Y0238464D01*
X0221288Y0237919D01*
X0222712Y0237919D01*
X0224029Y0238464D01*
X0225036Y0239471D01*
X0225581Y0240788D01*
X0225581Y0241687D01*
X0227035Y0243141D01*
X0227400Y0244023D01*
X0227400Y0248639D01*
X0227412Y0248627D01*
X0229091Y0247931D01*
X0230909Y0247931D01*
X0232588Y0248627D01*
X0233873Y0249912D01*
X0234568Y0251591D01*
X0234568Y0253409D01*
X0233873Y0255088D01*
X0232588Y0256373D01*
X0230909Y0257068D01*
X0229091Y0257068D01*
X0227412Y0256373D01*
X0227400Y0256361D01*
X0227400Y0258639D01*
X0227412Y0258627D01*
X0229091Y0257931D01*
X0230909Y0257931D01*
X0232588Y0258627D01*
X0233873Y0259912D01*
X0234568Y0261591D01*
X0234568Y0263409D01*
X0233930Y0264950D01*
X0236070Y0264950D01*
X0235431Y0263409D01*
X0235431Y0261591D01*
X0236127Y0259912D01*
X0237412Y0258627D01*
X0239091Y0257931D01*
X0240909Y0257931D01*
X0242588Y0258627D01*
X0243873Y0259912D01*
X0244568Y0261591D01*
X0244568Y0263409D01*
X0243930Y0264950D01*
X0246070Y0264950D01*
X0245431Y0263409D01*
X0245431Y0261591D01*
X0246127Y0259912D01*
X0247412Y0258627D01*
X0246876Y0259163D02*
X0243124Y0259163D01*
X0244225Y0260762D02*
X0245775Y0260762D01*
X0245431Y0262360D02*
X0244568Y0262360D01*
X0244341Y0263959D02*
X0245659Y0263959D01*
X0254341Y0263959D02*
X0255659Y0263959D01*
X0255431Y0262360D02*
X0254568Y0262360D01*
X0254225Y0260762D02*
X0255775Y0260762D01*
X0256876Y0259163D02*
X0253124Y0259163D01*
X0252995Y0255966D02*
X0257005Y0255966D01*
X0255829Y0254368D02*
X0254171Y0254368D01*
X0254568Y0252769D02*
X0255431Y0252769D01*
X0255606Y0251171D02*
X0254394Y0251171D01*
X0253533Y0249572D02*
X0256467Y0249572D01*
X0263533Y0249572D02*
X0266467Y0249572D01*
X0265606Y0251171D02*
X0264394Y0251171D01*
X0264568Y0252769D02*
X0265431Y0252769D01*
X0265829Y0254368D02*
X0264171Y0254368D01*
X0262995Y0255966D02*
X0267005Y0255966D01*
X0266876Y0259163D02*
X0263124Y0259163D01*
X0264225Y0260762D02*
X0265775Y0260762D01*
X0265431Y0262360D02*
X0264568Y0262360D01*
X0264341Y0263959D02*
X0265659Y0263959D01*
X0274341Y0263959D02*
X0275659Y0263959D01*
X0275431Y0262360D02*
X0274568Y0262360D01*
X0274225Y0260762D02*
X0275775Y0260762D01*
X0276876Y0259163D02*
X0273124Y0259163D01*
X0272995Y0255966D02*
X0277005Y0255966D01*
X0275829Y0254368D02*
X0274171Y0254368D01*
X0274568Y0252769D02*
X0275431Y0252769D01*
X0275606Y0251171D02*
X0274394Y0251171D01*
X0273533Y0249572D02*
X0276467Y0249572D01*
X0283533Y0249572D02*
X0286467Y0249572D01*
X0285606Y0251171D02*
X0284394Y0251171D01*
X0284568Y0252769D02*
X0285431Y0252769D01*
X0285829Y0254368D02*
X0284171Y0254368D01*
X0282995Y0255966D02*
X0287005Y0255966D01*
X0286876Y0259163D02*
X0283124Y0259163D01*
X0284225Y0260762D02*
X0285775Y0260762D01*
X0285431Y0262360D02*
X0284568Y0262360D01*
X0284341Y0263959D02*
X0285659Y0263959D01*
X0293124Y0259163D02*
X0296876Y0259163D01*
X0295775Y0260762D02*
X0294225Y0260762D01*
X0294568Y0262360D02*
X0295431Y0262360D01*
X0295659Y0263959D02*
X0294341Y0263959D01*
X0292995Y0255966D02*
X0297005Y0255966D01*
X0295829Y0254368D02*
X0294171Y0254368D01*
X0294568Y0252769D02*
X0295431Y0252769D01*
X0295606Y0251171D02*
X0294394Y0251171D01*
X0293533Y0249572D02*
X0296467Y0249572D01*
X0304394Y0251171D02*
X0310000Y0251171D01*
X0310000Y0252769D02*
X0304568Y0252769D01*
X0304171Y0254368D02*
X0310000Y0254368D01*
X0310000Y0255966D02*
X0302995Y0255966D01*
X0303124Y0259163D02*
X0310000Y0259163D01*
X0310000Y0257565D02*
X0227400Y0257565D01*
X0225000Y0260000D02*
X0225000Y0244500D01*
X0222000Y0241500D01*
X0225581Y0241580D02*
X0237600Y0241580D01*
X0237600Y0243178D02*
X0227050Y0243178D01*
X0227400Y0244777D02*
X0237600Y0244777D01*
X0237600Y0246375D02*
X0227400Y0246375D01*
X0227400Y0247974D02*
X0228989Y0247974D01*
X0231011Y0247974D02*
X0237600Y0247974D01*
X0236467Y0249572D02*
X0233533Y0249572D01*
X0234394Y0251171D02*
X0235606Y0251171D01*
X0235431Y0252769D02*
X0234568Y0252769D01*
X0234171Y0254368D02*
X0235829Y0254368D01*
X0237005Y0255966D02*
X0232995Y0255966D01*
X0233124Y0259163D02*
X0236876Y0259163D01*
X0235775Y0260762D02*
X0234225Y0260762D01*
X0234568Y0262360D02*
X0235431Y0262360D01*
X0235659Y0263959D02*
X0234341Y0263959D01*
X0230000Y0262500D02*
X0227500Y0262500D01*
X0225000Y0260000D01*
X0220000Y0262500D02*
X0215000Y0257500D01*
X0215000Y0238000D01*
X0208000Y0231000D01*
X0210063Y0228937D01*
X0214500Y0228937D01*
X0218856Y0228792D02*
X0236746Y0228792D01*
X0236746Y0230390D02*
X0218856Y0230390D01*
X0218632Y0231989D02*
X0236746Y0231989D01*
X0236600Y0232999D02*
X0236600Y0239049D01*
X0235663Y0239986D01*
X0227251Y0239986D01*
X0226313Y0239049D01*
X0226313Y0232999D01*
X0227251Y0232061D01*
X0235663Y0232061D01*
X0236600Y0232999D01*
X0236600Y0233587D02*
X0237584Y0233587D01*
X0237600Y0235186D02*
X0236600Y0235186D01*
X0236600Y0236784D02*
X0237600Y0236784D01*
X0237600Y0238383D02*
X0236600Y0238383D01*
X0235667Y0239981D02*
X0237600Y0239981D01*
X0242400Y0236784D02*
X0310000Y0236784D01*
X0310000Y0235186D02*
X0243208Y0235186D01*
X0241398Y0233602D02*
X0241398Y0230906D01*
X0241492Y0231000D01*
X0246000Y0231000D01*
X0248063Y0228937D01*
X0255000Y0228937D01*
X0259356Y0228792D02*
X0310000Y0228792D01*
X0310000Y0230390D02*
X0259356Y0230390D01*
X0259132Y0231989D02*
X0310000Y0231989D01*
X0310000Y0233587D02*
X0245211Y0233587D01*
X0248405Y0231989D02*
X0250868Y0231989D01*
X0251158Y0225595D02*
X0246049Y0225595D01*
X0246049Y0227193D02*
X0246413Y0227193D01*
X0246049Y0223996D02*
X0250749Y0223996D01*
X0250644Y0222398D02*
X0246049Y0222398D01*
X0246049Y0220799D02*
X0250000Y0220799D01*
X0248931Y0219201D02*
X0246049Y0219201D01*
X0246049Y0217602D02*
X0247863Y0217602D01*
X0246794Y0216003D02*
X0236600Y0216003D01*
X0236600Y0214405D02*
X0245726Y0214405D01*
X0244658Y0212806D02*
X0236600Y0212806D01*
X0236746Y0217602D02*
X0235999Y0217602D01*
X0236746Y0219201D02*
X0218856Y0219201D01*
X0218856Y0220799D02*
X0236746Y0220799D01*
X0236746Y0222398D02*
X0218856Y0222398D01*
X0218751Y0223996D02*
X0236746Y0223996D01*
X0236746Y0225595D02*
X0218342Y0225595D01*
X0218856Y0227193D02*
X0236746Y0227193D01*
X0241398Y0233602D02*
X0240000Y0235000D01*
X0240000Y0252500D01*
X0227246Y0239981D02*
X0225247Y0239981D01*
X0226313Y0238383D02*
X0223832Y0238383D01*
X0226313Y0236784D02*
X0217094Y0236784D01*
X0217400Y0238383D02*
X0220168Y0238383D01*
X0218753Y0239981D02*
X0217400Y0239981D01*
X0217400Y0241580D02*
X0218419Y0241580D01*
X0218819Y0243178D02*
X0217400Y0243178D01*
X0217400Y0244777D02*
X0220553Y0244777D01*
X0222600Y0246375D02*
X0217400Y0246375D01*
X0217400Y0247974D02*
X0218989Y0247974D01*
X0221011Y0247974D02*
X0222600Y0247974D01*
X0212600Y0247974D02*
X0211011Y0247974D01*
X0208989Y0247974D02*
X0201011Y0247974D01*
X0200909Y0247931D02*
X0202588Y0248627D01*
X0203873Y0249912D01*
X0204568Y0251591D01*
X0204568Y0253409D01*
X0203873Y0255088D01*
X0202588Y0256373D01*
X0200909Y0257068D01*
X0199091Y0257068D01*
X0197412Y0256373D01*
X0196127Y0255088D01*
X0195431Y0253409D01*
X0195431Y0251591D01*
X0196127Y0249912D01*
X0197412Y0248627D01*
X0199091Y0247931D01*
X0200909Y0247931D01*
X0198989Y0247974D02*
X0191011Y0247974D01*
X0190909Y0247931D02*
X0192588Y0248627D01*
X0193873Y0249912D01*
X0194568Y0251591D01*
X0194568Y0253409D01*
X0193873Y0255088D01*
X0192588Y0256373D01*
X0190909Y0257068D01*
X0189091Y0257068D01*
X0187412Y0256373D01*
X0186127Y0255088D01*
X0185431Y0253409D01*
X0185431Y0251591D01*
X0186127Y0249912D01*
X0187412Y0248627D01*
X0189091Y0247931D01*
X0190909Y0247931D01*
X0188989Y0247974D02*
X0181011Y0247974D01*
X0180909Y0247931D02*
X0182588Y0248627D01*
X0183873Y0249912D01*
X0184568Y0251591D01*
X0184568Y0253409D01*
X0183873Y0255088D01*
X0182588Y0256373D01*
X0180909Y0257068D01*
X0179091Y0257068D01*
X0177412Y0256373D01*
X0176127Y0255088D01*
X0175431Y0253409D01*
X0175431Y0251591D01*
X0176127Y0249912D01*
X0177412Y0248627D01*
X0179091Y0247931D01*
X0180909Y0247931D01*
X0178989Y0247974D02*
X0171011Y0247974D01*
X0170909Y0247931D02*
X0172588Y0248627D01*
X0173873Y0249912D01*
X0174568Y0251591D01*
X0174568Y0253409D01*
X0173873Y0255088D01*
X0172588Y0256373D01*
X0170909Y0257068D01*
X0169091Y0257068D01*
X0167412Y0256373D01*
X0166127Y0255088D01*
X0165431Y0253409D01*
X0165431Y0251591D01*
X0166127Y0249912D01*
X0167412Y0248627D01*
X0169091Y0247931D01*
X0170909Y0247931D01*
X0168989Y0247974D02*
X0161011Y0247974D01*
X0160909Y0247931D02*
X0162588Y0248627D01*
X0163873Y0249912D01*
X0164568Y0251591D01*
X0164568Y0253409D01*
X0163873Y0255088D01*
X0162588Y0256373D01*
X0160909Y0257068D01*
X0159091Y0257068D01*
X0157412Y0256373D01*
X0156127Y0255088D01*
X0155431Y0253409D01*
X0155431Y0251591D01*
X0156127Y0249912D01*
X0157412Y0248627D01*
X0159091Y0247931D01*
X0160909Y0247931D01*
X0158989Y0247974D02*
X0151011Y0247974D01*
X0150909Y0247931D02*
X0152588Y0248627D01*
X0153873Y0249912D01*
X0154568Y0251591D01*
X0154568Y0253409D01*
X0153873Y0255088D01*
X0152588Y0256373D01*
X0150909Y0257068D01*
X0149091Y0257068D01*
X0147412Y0256373D01*
X0146127Y0255088D01*
X0145431Y0253409D01*
X0145431Y0251591D01*
X0146127Y0249912D01*
X0147412Y0248627D01*
X0149091Y0247931D01*
X0150909Y0247931D01*
X0148989Y0247974D02*
X0141011Y0247974D01*
X0140909Y0247931D02*
X0142588Y0248627D01*
X0143873Y0249912D01*
X0144568Y0251591D01*
X0144568Y0253409D01*
X0143873Y0255088D01*
X0142588Y0256373D01*
X0140909Y0257068D01*
X0139091Y0257068D01*
X0137412Y0256373D01*
X0136127Y0255088D01*
X0135431Y0253409D01*
X0135431Y0251591D01*
X0136127Y0249912D01*
X0137412Y0248627D01*
X0139091Y0247931D01*
X0140909Y0247931D01*
X0138989Y0247974D02*
X0131011Y0247974D01*
X0130909Y0247931D02*
X0132588Y0248627D01*
X0133873Y0249912D01*
X0134568Y0251591D01*
X0134568Y0253409D01*
X0133873Y0255088D01*
X0132588Y0256373D01*
X0130909Y0257068D01*
X0129091Y0257068D01*
X0127412Y0256373D01*
X0126127Y0255088D01*
X0125431Y0253409D01*
X0125431Y0251591D01*
X0126127Y0249912D01*
X0127412Y0248627D01*
X0129091Y0247931D01*
X0130909Y0247931D01*
X0128989Y0247974D02*
X0121011Y0247974D01*
X0120909Y0247931D02*
X0122588Y0248627D01*
X0123873Y0249912D01*
X0124568Y0251591D01*
X0124568Y0253409D01*
X0123873Y0255088D01*
X0122588Y0256373D01*
X0120909Y0257068D01*
X0119091Y0257068D01*
X0117412Y0256373D01*
X0116127Y0255088D01*
X0115431Y0253409D01*
X0115431Y0251591D01*
X0116127Y0249912D01*
X0117412Y0248627D01*
X0119091Y0247931D01*
X0120909Y0247931D01*
X0118989Y0247974D02*
X0111011Y0247974D01*
X0110909Y0247931D02*
X0112588Y0248627D01*
X0113873Y0249912D01*
X0114568Y0251591D01*
X0114568Y0253409D01*
X0113873Y0255088D01*
X0112588Y0256373D01*
X0110909Y0257068D01*
X0109091Y0257068D01*
X0107412Y0256373D01*
X0106127Y0255088D01*
X0105431Y0253409D01*
X0105431Y0251591D01*
X0106127Y0249912D01*
X0107412Y0248627D01*
X0109091Y0247931D01*
X0110909Y0247931D01*
X0108989Y0247974D02*
X0101011Y0247974D01*
X0100909Y0247931D02*
X0102588Y0248627D01*
X0103873Y0249912D01*
X0104568Y0251591D01*
X0104568Y0253409D01*
X0103873Y0255088D01*
X0102588Y0256373D01*
X0100909Y0257068D01*
X0099091Y0257068D01*
X0097412Y0256373D01*
X0096127Y0255088D01*
X0095431Y0253409D01*
X0095431Y0251591D01*
X0096127Y0249912D01*
X0097412Y0248627D01*
X0099091Y0247931D01*
X0100909Y0247931D01*
X0098989Y0247974D02*
X0091011Y0247974D01*
X0090909Y0247931D02*
X0092588Y0248627D01*
X0093873Y0249912D01*
X0094568Y0251591D01*
X0094568Y0253409D01*
X0093873Y0255088D01*
X0092588Y0256373D01*
X0090909Y0257068D01*
X0089091Y0257068D01*
X0087412Y0256373D01*
X0086127Y0255088D01*
X0085431Y0253409D01*
X0085431Y0251591D01*
X0086127Y0249912D01*
X0087412Y0248627D01*
X0089091Y0247931D01*
X0090909Y0247931D01*
X0088989Y0247974D02*
X0083870Y0247974D01*
X0084074Y0248091D02*
X0084409Y0248426D01*
X0084646Y0248837D01*
X0084768Y0249295D01*
X0084768Y0252316D01*
X0080184Y0252316D01*
X0080184Y0247731D01*
X0083205Y0247731D01*
X0083663Y0247854D01*
X0084074Y0248091D01*
X0084768Y0249572D02*
X0086467Y0249572D01*
X0085606Y0251171D02*
X0084768Y0251171D01*
X0084768Y0252684D02*
X0084768Y0255705D01*
X0084646Y0256163D01*
X0084409Y0256574D01*
X0084074Y0256909D01*
X0083663Y0257146D01*
X0083205Y0257268D01*
X0080184Y0257268D01*
X0080184Y0252684D01*
X0084768Y0252684D01*
X0084768Y0252769D02*
X0085431Y0252769D01*
X0085829Y0254368D02*
X0084768Y0254368D01*
X0084699Y0255966D02*
X0087005Y0255966D01*
X0086876Y0259163D02*
X0083407Y0259163D01*
X0084449Y0260762D02*
X0085775Y0260762D01*
X0085431Y0262360D02*
X0080184Y0262360D01*
X0079816Y0262360D02*
X0070000Y0262360D01*
X0070000Y0260762D02*
X0075551Y0260762D01*
X0075581Y0260670D02*
X0075922Y0260001D01*
X0076363Y0259394D01*
X0076894Y0258863D01*
X0077501Y0258422D01*
X0078170Y0258081D01*
X0078883Y0257849D01*
X0079625Y0257731D01*
X0079816Y0257731D01*
X0079816Y0262316D01*
X0075231Y0262316D01*
X0075231Y0262125D01*
X0075349Y0261383D01*
X0075581Y0260670D01*
X0076593Y0259163D02*
X0070000Y0259163D01*
X0070000Y0257565D02*
X0212600Y0257565D01*
X0213124Y0259163D02*
X0213269Y0259163D01*
X0214225Y0260762D02*
X0214868Y0260762D01*
X0214568Y0262360D02*
X0215431Y0262360D01*
X0215659Y0263959D02*
X0214341Y0263959D01*
X0205659Y0263959D02*
X0204341Y0263959D01*
X0204568Y0262360D02*
X0205431Y0262360D01*
X0205775Y0260762D02*
X0204225Y0260762D01*
X0203124Y0259163D02*
X0206876Y0259163D01*
X0207005Y0255966D02*
X0202995Y0255966D01*
X0204171Y0254368D02*
X0205829Y0254368D01*
X0205431Y0252769D02*
X0204568Y0252769D01*
X0204394Y0251171D02*
X0205606Y0251171D01*
X0206467Y0249572D02*
X0203533Y0249572D01*
X0196467Y0249572D02*
X0193533Y0249572D01*
X0194394Y0251171D02*
X0195606Y0251171D01*
X0195431Y0252769D02*
X0194568Y0252769D01*
X0194171Y0254368D02*
X0195829Y0254368D01*
X0197005Y0255966D02*
X0192995Y0255966D01*
X0193124Y0259163D02*
X0196876Y0259163D01*
X0195775Y0260762D02*
X0194225Y0260762D01*
X0194568Y0262360D02*
X0195431Y0262360D01*
X0195659Y0263959D02*
X0194341Y0263959D01*
X0185659Y0263959D02*
X0184341Y0263959D01*
X0184568Y0262360D02*
X0185431Y0262360D01*
X0185775Y0260762D02*
X0184225Y0260762D01*
X0183124Y0259163D02*
X0186876Y0259163D01*
X0187005Y0255966D02*
X0182995Y0255966D01*
X0184171Y0254368D02*
X0185829Y0254368D01*
X0185431Y0252769D02*
X0184568Y0252769D01*
X0184394Y0251171D02*
X0185606Y0251171D01*
X0186467Y0249572D02*
X0183533Y0249572D01*
X0176467Y0249572D02*
X0173533Y0249572D01*
X0174394Y0251171D02*
X0175606Y0251171D01*
X0175431Y0252769D02*
X0174568Y0252769D01*
X0174171Y0254368D02*
X0175829Y0254368D01*
X0177005Y0255966D02*
X0172995Y0255966D01*
X0173124Y0259163D02*
X0176876Y0259163D01*
X0175775Y0260762D02*
X0174225Y0260762D01*
X0174568Y0262360D02*
X0175431Y0262360D01*
X0175659Y0263959D02*
X0174341Y0263959D01*
X0165659Y0263959D02*
X0164341Y0263959D01*
X0164568Y0262360D02*
X0165431Y0262360D01*
X0165775Y0260762D02*
X0164225Y0260762D01*
X0163124Y0259163D02*
X0166876Y0259163D01*
X0167005Y0255966D02*
X0162995Y0255966D01*
X0164171Y0254368D02*
X0165829Y0254368D01*
X0165431Y0252769D02*
X0164568Y0252769D01*
X0164394Y0251171D02*
X0165606Y0251171D01*
X0166467Y0249572D02*
X0163533Y0249572D01*
X0156467Y0249572D02*
X0153533Y0249572D01*
X0154394Y0251171D02*
X0155606Y0251171D01*
X0155431Y0252769D02*
X0154568Y0252769D01*
X0154171Y0254368D02*
X0155829Y0254368D01*
X0157005Y0255966D02*
X0152995Y0255966D01*
X0153124Y0259163D02*
X0156876Y0259163D01*
X0155775Y0260762D02*
X0154225Y0260762D01*
X0154568Y0262360D02*
X0155431Y0262360D01*
X0155659Y0263959D02*
X0154341Y0263959D01*
X0146876Y0259163D02*
X0143124Y0259163D01*
X0144225Y0260762D02*
X0145775Y0260762D01*
X0145431Y0262360D02*
X0144568Y0262360D01*
X0144341Y0263959D02*
X0145659Y0263959D01*
X0147005Y0255966D02*
X0142995Y0255966D01*
X0144171Y0254368D02*
X0145829Y0254368D01*
X0145431Y0252769D02*
X0144568Y0252769D01*
X0144394Y0251171D02*
X0145606Y0251171D01*
X0146467Y0249572D02*
X0143533Y0249572D01*
X0136467Y0249572D02*
X0133533Y0249572D01*
X0134394Y0251171D02*
X0135606Y0251171D01*
X0135431Y0252769D02*
X0134568Y0252769D01*
X0134171Y0254368D02*
X0135829Y0254368D01*
X0137005Y0255966D02*
X0132995Y0255966D01*
X0133124Y0259163D02*
X0136876Y0259163D01*
X0135775Y0260762D02*
X0134225Y0260762D01*
X0134568Y0262360D02*
X0135431Y0262360D01*
X0135659Y0263959D02*
X0134341Y0263959D01*
X0125659Y0263959D02*
X0124341Y0263959D01*
X0124568Y0262360D02*
X0125431Y0262360D01*
X0125775Y0260762D02*
X0124225Y0260762D01*
X0123124Y0259163D02*
X0126876Y0259163D01*
X0127005Y0255966D02*
X0122995Y0255966D01*
X0124171Y0254368D02*
X0125829Y0254368D01*
X0125431Y0252769D02*
X0124568Y0252769D01*
X0124394Y0251171D02*
X0125606Y0251171D01*
X0126467Y0249572D02*
X0123533Y0249572D01*
X0116467Y0249572D02*
X0113533Y0249572D01*
X0114394Y0251171D02*
X0115606Y0251171D01*
X0115431Y0252769D02*
X0114568Y0252769D01*
X0114171Y0254368D02*
X0115829Y0254368D01*
X0117005Y0255966D02*
X0112995Y0255966D01*
X0113124Y0259163D02*
X0116876Y0259163D01*
X0115775Y0260762D02*
X0114225Y0260762D01*
X0114568Y0262360D02*
X0115431Y0262360D01*
X0115659Y0263959D02*
X0114341Y0263959D01*
X0105659Y0263959D02*
X0104341Y0263959D01*
X0104568Y0262360D02*
X0105431Y0262360D01*
X0105775Y0260762D02*
X0104225Y0260762D01*
X0103124Y0259163D02*
X0106876Y0259163D01*
X0107005Y0255966D02*
X0102995Y0255966D01*
X0104171Y0254368D02*
X0105829Y0254368D01*
X0105431Y0252769D02*
X0104568Y0252769D01*
X0104394Y0251171D02*
X0105606Y0251171D01*
X0106467Y0249572D02*
X0103533Y0249572D01*
X0096467Y0249572D02*
X0093533Y0249572D01*
X0094394Y0251171D02*
X0095606Y0251171D01*
X0095431Y0252769D02*
X0094568Y0252769D01*
X0094171Y0254368D02*
X0095829Y0254368D01*
X0097005Y0255966D02*
X0092995Y0255966D01*
X0093124Y0259163D02*
X0096876Y0259163D01*
X0095775Y0260762D02*
X0094225Y0260762D01*
X0094568Y0262360D02*
X0095431Y0262360D01*
X0095659Y0263959D02*
X0094341Y0263959D01*
X0085659Y0263959D02*
X0084540Y0263959D01*
X0080184Y0260762D02*
X0079816Y0260762D01*
X0079816Y0259163D02*
X0080184Y0259163D01*
X0079816Y0257268D02*
X0076795Y0257268D01*
X0076337Y0257146D01*
X0075926Y0256909D01*
X0075591Y0256574D01*
X0075354Y0256163D01*
X0075231Y0255705D01*
X0075231Y0252684D01*
X0079816Y0252684D01*
X0079816Y0252316D01*
X0080184Y0252316D01*
X0080184Y0252684D01*
X0079816Y0252684D01*
X0079816Y0257268D01*
X0079816Y0255966D02*
X0080184Y0255966D01*
X0080184Y0254368D02*
X0079816Y0254368D01*
X0079816Y0252769D02*
X0080184Y0252769D01*
X0079816Y0252316D02*
X0075231Y0252316D01*
X0075231Y0249295D01*
X0075354Y0248837D01*
X0075591Y0248426D01*
X0075926Y0248091D01*
X0076337Y0247854D01*
X0076795Y0247731D01*
X0079816Y0247731D01*
X0079816Y0252316D01*
X0079816Y0251171D02*
X0080184Y0251171D01*
X0080184Y0249572D02*
X0079816Y0249572D01*
X0079816Y0247974D02*
X0080184Y0247974D01*
X0076130Y0247974D02*
X0070000Y0247974D01*
X0070000Y0249572D02*
X0075231Y0249572D01*
X0075231Y0251171D02*
X0070000Y0251171D01*
X0070000Y0252769D02*
X0075231Y0252769D01*
X0075231Y0254368D02*
X0070000Y0254368D01*
X0070000Y0255966D02*
X0075301Y0255966D01*
X0075460Y0263959D02*
X0070000Y0263959D01*
X0070000Y0246375D02*
X0212600Y0246375D01*
X0212600Y0244777D02*
X0197947Y0244777D01*
X0198529Y0244536D02*
X0197212Y0245081D01*
X0195788Y0245081D01*
X0194471Y0244536D01*
X0193836Y0243900D01*
X0136023Y0243900D01*
X0135141Y0243535D01*
X0132965Y0241359D01*
X0132600Y0240477D01*
X0132600Y0232702D01*
X0131581Y0232702D01*
X0131137Y0232258D01*
X0130359Y0233035D01*
X0129477Y0233400D01*
X0125398Y0233400D01*
X0125112Y0233687D01*
X0117684Y0233687D01*
X0116746Y0232749D01*
X0116746Y0229062D01*
X0116871Y0228937D01*
X0116746Y0228812D01*
X0116746Y0225125D01*
X0116871Y0225000D01*
X0116746Y0224875D01*
X0116746Y0221188D01*
X0116777Y0221157D01*
X0116669Y0220970D01*
X0116546Y0220513D01*
X0116546Y0219095D01*
X0121398Y0219095D01*
X0126249Y0219095D01*
X0126249Y0220513D01*
X0126126Y0220970D01*
X0126018Y0221157D01*
X0126049Y0221188D01*
X0126049Y0224875D01*
X0125924Y0225000D01*
X0126049Y0225125D01*
X0126049Y0228600D01*
X0128006Y0228600D01*
X0129028Y0227578D01*
X0129703Y0226902D01*
X0130586Y0226537D01*
X0130644Y0226537D01*
X0130644Y0226109D01*
X0131581Y0225172D01*
X0138419Y0225172D01*
X0139356Y0226109D01*
X0139356Y0231765D01*
X0138419Y0232702D01*
X0137400Y0232702D01*
X0137400Y0239006D01*
X0137494Y0239100D01*
X0146365Y0239100D01*
X0146313Y0239049D01*
X0146313Y0232999D01*
X0147251Y0232061D01*
X0155663Y0232061D01*
X0156600Y0232999D01*
X0156600Y0239049D01*
X0156549Y0239100D01*
X0180126Y0239100D01*
X0179971Y0239036D01*
X0178964Y0238029D01*
X0178419Y0236712D01*
X0178419Y0235796D01*
X0175353Y0232702D01*
X0171581Y0232702D01*
X0170644Y0231765D01*
X0170644Y0231337D01*
X0170557Y0231337D01*
X0168859Y0233035D01*
X0167977Y0233400D01*
X0165398Y0233400D01*
X0165112Y0233687D01*
X0157684Y0233687D01*
X0156746Y0232749D01*
X0156746Y0229062D01*
X0156871Y0228937D01*
X0156746Y0228812D01*
X0156746Y0225125D01*
X0156871Y0225000D01*
X0156746Y0224875D01*
X0156746Y0221188D01*
X0156777Y0221157D01*
X0156669Y0220970D01*
X0156546Y0220513D01*
X0156546Y0219095D01*
X0161398Y0219095D01*
X0166249Y0219095D01*
X0166249Y0220513D01*
X0166126Y0220970D01*
X0166018Y0221157D01*
X0166049Y0221188D01*
X0166049Y0224875D01*
X0165924Y0225000D01*
X0166049Y0225125D01*
X0166049Y0228600D01*
X0166506Y0228600D01*
X0167528Y0227578D01*
X0168203Y0226902D01*
X0169086Y0226537D01*
X0170644Y0226537D01*
X0170644Y0226109D01*
X0171581Y0225172D01*
X0178419Y0225172D01*
X0179356Y0226109D01*
X0179356Y0229923D01*
X0181830Y0232419D01*
X0182712Y0232419D01*
X0184029Y0232964D01*
X0185036Y0233971D01*
X0185581Y0235288D01*
X0185581Y0236712D01*
X0185036Y0238029D01*
X0184029Y0239036D01*
X0183874Y0239100D01*
X0186365Y0239100D01*
X0186313Y0239049D01*
X0186313Y0232999D01*
X0187251Y0232061D01*
X0195663Y0232061D01*
X0196600Y0232999D01*
X0196600Y0237919D01*
X0197212Y0237919D01*
X0198529Y0238464D01*
X0199536Y0239471D01*
X0200081Y0240788D01*
X0200081Y0242212D01*
X0199536Y0243529D01*
X0198529Y0244536D01*
X0199681Y0243178D02*
X0212600Y0243178D01*
X0212600Y0241580D02*
X0200081Y0241580D01*
X0199747Y0239981D02*
X0212600Y0239981D01*
X0211989Y0238383D02*
X0198332Y0238383D01*
X0196600Y0236784D02*
X0210390Y0236784D01*
X0208792Y0235186D02*
X0196600Y0235186D01*
X0196600Y0233587D02*
X0197584Y0233587D01*
X0196746Y0231989D02*
X0181403Y0231989D01*
X0179819Y0230390D02*
X0196746Y0230390D01*
X0196746Y0228792D02*
X0179356Y0228792D01*
X0179356Y0227193D02*
X0196746Y0227193D01*
X0196746Y0225595D02*
X0178842Y0225595D01*
X0179251Y0223996D02*
X0196746Y0223996D01*
X0196746Y0222398D02*
X0179356Y0222398D01*
X0179356Y0220799D02*
X0196623Y0220799D01*
X0196546Y0219201D02*
X0179821Y0219201D01*
X0181221Y0217602D02*
X0186914Y0217602D01*
X0186313Y0216003D02*
X0182620Y0216003D01*
X0184020Y0214405D02*
X0186313Y0214405D01*
X0186313Y0212806D02*
X0185420Y0212806D01*
X0185563Y0209000D02*
X0204500Y0209000D01*
X0214500Y0219500D01*
X0225000Y0209000D01*
X0245000Y0209000D01*
X0253063Y0221063D01*
X0255000Y0221063D01*
X0259356Y0220799D02*
X0310000Y0220799D01*
X0310000Y0219201D02*
X0259356Y0219201D01*
X0258723Y0217602D02*
X0310000Y0217602D01*
X0310000Y0216003D02*
X0252568Y0216003D01*
X0251499Y0214405D02*
X0310000Y0214405D01*
X0310000Y0212806D02*
X0250431Y0212806D01*
X0249363Y0211208D02*
X0310000Y0211208D01*
X0310000Y0209609D02*
X0248294Y0209609D01*
X0247226Y0208011D02*
X0310000Y0208011D01*
X0310000Y0206412D02*
X0239152Y0206412D01*
X0240039Y0204814D02*
X0310000Y0204814D01*
X0310000Y0203215D02*
X0240501Y0203215D01*
X0241780Y0201617D02*
X0310000Y0201617D01*
X0310000Y0200018D02*
X0242417Y0200018D01*
X0242400Y0198420D02*
X0310000Y0198420D01*
X0310000Y0196821D02*
X0242400Y0196821D01*
X0242400Y0195223D02*
X0310000Y0195223D01*
X0310000Y0193624D02*
X0245174Y0193624D01*
X0241492Y0191000D02*
X0250000Y0191000D01*
X0252063Y0188937D01*
X0255000Y0188937D01*
X0259356Y0188829D02*
X0310000Y0188829D01*
X0310000Y0190427D02*
X0259356Y0190427D01*
X0259095Y0192026D02*
X0310000Y0192026D01*
X0310000Y0187230D02*
X0259356Y0187230D01*
X0258879Y0185632D02*
X0310000Y0185632D01*
X0310000Y0184033D02*
X0259214Y0184033D01*
X0259356Y0182435D02*
X0310000Y0182435D01*
X0310000Y0180836D02*
X0259356Y0180836D01*
X0259356Y0179238D02*
X0310000Y0179238D01*
X0310000Y0177639D02*
X0258760Y0177639D01*
X0255000Y0180000D02*
X0255000Y0181063D01*
X0255000Y0180000D02*
X0242303Y0180000D01*
X0241398Y0179094D01*
X0216969Y0179094D01*
X0215000Y0181063D01*
X0212063Y0181063D01*
X0210000Y0179000D01*
X0201492Y0179000D01*
X0201398Y0179094D01*
X0176969Y0179094D01*
X0175000Y0181063D01*
X0171563Y0181063D01*
X0169500Y0179000D01*
X0161492Y0179000D01*
X0161398Y0179094D01*
X0136969Y0179094D01*
X0135000Y0181063D01*
X0133937Y0180000D01*
X0133031Y0179094D01*
X0134094Y0179094D01*
X0135000Y0180000D01*
X0133937Y0180000D01*
X0133031Y0179094D02*
X0121398Y0179094D01*
X0121303Y0179000D01*
X0107500Y0179000D01*
X0095000Y0166500D01*
X0095000Y0135000D01*
X0104000Y0144000D01*
X0121303Y0144000D01*
X0121398Y0144094D01*
X0125492Y0140000D01*
X0130000Y0140000D01*
X0135000Y0145000D01*
X0135000Y0146063D01*
X0136969Y0144094D01*
X0161398Y0144094D01*
X0161492Y0144000D01*
X0170000Y0144000D01*
X0172063Y0146063D01*
X0175000Y0146063D01*
X0176969Y0144094D01*
X0201398Y0144094D01*
X0209094Y0144094D01*
X0210000Y0145000D01*
X0206743Y0146494D02*
X0206217Y0146494D01*
X0206249Y0146613D01*
X0206249Y0148031D01*
X0201398Y0148031D01*
X0201398Y0148032D01*
X0206249Y0148032D01*
X0206249Y0149450D01*
X0206126Y0149907D01*
X0206018Y0150094D01*
X0206049Y0150125D01*
X0206049Y0153663D01*
X0210644Y0153663D01*
X0210644Y0153235D01*
X0211581Y0152298D01*
X0215371Y0152298D01*
X0217600Y0150069D01*
X0217600Y0142702D01*
X0212767Y0142702D01*
X0213036Y0142971D01*
X0213581Y0144288D01*
X0213581Y0145712D01*
X0213036Y0147029D01*
X0212029Y0148036D01*
X0210712Y0148581D01*
X0209288Y0148581D01*
X0207971Y0148036D01*
X0206964Y0147029D01*
X0206743Y0146494D01*
X0207203Y0147268D02*
X0206249Y0147268D01*
X0206249Y0148866D02*
X0217600Y0148866D01*
X0217600Y0147268D02*
X0212797Y0147268D01*
X0213581Y0145669D02*
X0217600Y0145669D01*
X0217600Y0144070D02*
X0213491Y0144070D01*
X0215000Y0138937D02*
X0206555Y0138937D01*
X0201398Y0144094D01*
X0200785Y0141313D02*
X0197684Y0141313D01*
X0197303Y0141694D01*
X0196600Y0141694D01*
X0196600Y0135951D01*
X0195663Y0135014D01*
X0187251Y0135014D01*
X0186313Y0135951D01*
X0186313Y0141694D01*
X0176491Y0141694D01*
X0175609Y0142060D01*
X0175371Y0142298D01*
X0171692Y0142298D01*
X0171359Y0141965D01*
X0170477Y0141600D01*
X0165398Y0141600D01*
X0165112Y0141313D01*
X0157684Y0141313D01*
X0157303Y0141694D01*
X0156600Y0141694D01*
X0156600Y0135951D01*
X0155663Y0135014D01*
X0147251Y0135014D01*
X0146313Y0135951D01*
X0146313Y0141694D01*
X0136491Y0141694D01*
X0135609Y0142060D01*
X0135531Y0142137D01*
X0131359Y0137965D01*
X0130477Y0137600D01*
X0125015Y0137600D01*
X0124133Y0137965D01*
X0123458Y0138641D01*
X0120785Y0141313D01*
X0117684Y0141313D01*
X0117397Y0141600D01*
X0116600Y0141600D01*
X0116600Y0135951D01*
X0115663Y0135014D01*
X0107251Y0135014D01*
X0106313Y0135951D01*
X0106313Y0141600D01*
X0104994Y0141600D01*
X0097400Y0134006D01*
X0097400Y0077023D01*
X0097035Y0076141D01*
X0096359Y0075465D01*
X0094491Y0073597D01*
X0094568Y0073409D01*
X0094568Y0071591D01*
X0093873Y0069912D01*
X0092588Y0068627D01*
X0092400Y0068549D01*
X0092400Y0066451D01*
X0092588Y0066373D01*
X0093873Y0065088D01*
X0094568Y0063409D01*
X0094568Y0061591D01*
X0093930Y0060050D01*
X0096070Y0060050D01*
X0095431Y0061591D01*
X0095431Y0063409D01*
X0096127Y0065088D01*
X0097412Y0066373D01*
X0099091Y0067068D01*
X0100909Y0067068D01*
X0102588Y0066373D01*
X0103873Y0065088D01*
X0104568Y0063409D01*
X0104568Y0061591D01*
X0103930Y0060050D01*
X0106070Y0060050D01*
X0105431Y0061591D01*
X0105431Y0063409D01*
X0106127Y0065088D01*
X0107412Y0066373D01*
X0109091Y0067068D01*
X0110909Y0067068D01*
X0112588Y0066373D01*
X0113873Y0065088D01*
X0114568Y0063409D01*
X0114568Y0061591D01*
X0113930Y0060050D01*
X0116070Y0060050D01*
X0115431Y0061591D01*
X0115431Y0063409D01*
X0116127Y0065088D01*
X0117412Y0066373D01*
X0119091Y0067068D01*
X0120909Y0067068D01*
X0122588Y0066373D01*
X0123873Y0065088D01*
X0124568Y0063409D01*
X0124568Y0061591D01*
X0123930Y0060050D01*
X0126070Y0060050D01*
X0125431Y0061591D01*
X0125431Y0063409D01*
X0126127Y0065088D01*
X0127412Y0066373D01*
X0129091Y0067068D01*
X0130909Y0067068D01*
X0132588Y0066373D01*
X0133873Y0065088D01*
X0134568Y0063409D01*
X0134568Y0061591D01*
X0133930Y0060050D01*
X0136070Y0060050D01*
X0135431Y0061591D01*
X0135431Y0063409D01*
X0136127Y0065088D01*
X0137412Y0066373D01*
X0139091Y0067068D01*
X0140909Y0067068D01*
X0142588Y0066373D01*
X0143873Y0065088D01*
X0144568Y0063409D01*
X0144568Y0061591D01*
X0143930Y0060050D01*
X0146070Y0060050D01*
X0145431Y0061591D01*
X0145431Y0063409D01*
X0146127Y0065088D01*
X0146139Y0065100D01*
X0144523Y0065100D01*
X0143641Y0065465D01*
X0141097Y0068009D01*
X0140909Y0067931D01*
X0139091Y0067931D01*
X0137412Y0068627D01*
X0136127Y0069912D01*
X0135431Y0071591D01*
X0135431Y0073409D01*
X0136127Y0075088D01*
X0137412Y0076373D01*
X0139091Y0077068D01*
X0140909Y0077068D01*
X0141419Y0076857D01*
X0141419Y0077494D01*
X0138701Y0079940D01*
X0138641Y0079965D01*
X0138348Y0080258D01*
X0138040Y0080535D01*
X0138012Y0080594D01*
X0137965Y0080641D01*
X0137807Y0081023D01*
X0137628Y0081397D01*
X0137625Y0081462D01*
X0137600Y0081523D01*
X0137600Y0081937D01*
X0137578Y0082351D01*
X0137600Y0082412D01*
X0137600Y0085188D01*
X0135141Y0087646D01*
X0132195Y0084700D01*
X0130200Y0084700D01*
X0130200Y0089800D01*
X0129800Y0089800D01*
X0129800Y0084700D01*
X0127805Y0084700D01*
X0124700Y0087805D01*
X0124700Y0089800D01*
X0129800Y0089800D01*
X0129800Y0090200D01*
X0129800Y0095300D01*
X0127805Y0095300D01*
X0124700Y0092195D01*
X0124700Y0090200D01*
X0129800Y0090200D01*
X0130200Y0090200D01*
X0130200Y0095300D01*
X0132195Y0095300D01*
X0135141Y0092354D01*
X0137888Y0095100D01*
X0142112Y0095100D01*
X0145000Y0092212D01*
X0147888Y0095100D01*
X0152112Y0095100D01*
X0155000Y0092212D01*
X0157888Y0095100D01*
X0162112Y0095100D01*
X0165000Y0092212D01*
X0167888Y0095100D01*
X0172112Y0095100D01*
X0175000Y0092212D01*
X0175336Y0092548D01*
X0173238Y0095600D01*
X0120205Y0095600D01*
X0104247Y0074184D01*
X0104568Y0073409D01*
X0104568Y0071591D01*
X0103873Y0069912D01*
X0102588Y0068627D01*
X0100909Y0067931D01*
X0099091Y0067931D01*
X0097412Y0068627D01*
X0096127Y0069912D01*
X0095431Y0071591D01*
X0095431Y0073409D01*
X0096127Y0075088D01*
X0097412Y0076373D01*
X0099091Y0077068D01*
X0100411Y0077068D01*
X0116897Y0099194D01*
X0116965Y0099359D01*
X0117180Y0099574D01*
X0117361Y0099817D01*
X0117514Y0099908D01*
X0117641Y0100035D01*
X0117920Y0100151D01*
X0118181Y0100306D01*
X0118358Y0100332D01*
X0118523Y0100400D01*
X0118826Y0100400D01*
X0119125Y0100444D01*
X0119299Y0100400D01*
X0174248Y0100400D01*
X0174468Y0100447D01*
X0174720Y0100400D01*
X0174977Y0100400D01*
X0175185Y0100314D01*
X0175316Y0100290D01*
X0170706Y0104900D01*
X0167888Y0104900D01*
X0165000Y0107788D01*
X0162112Y0104900D01*
X0157888Y0104900D01*
X0155000Y0107788D01*
X0152112Y0104900D01*
X0147888Y0104900D01*
X0145000Y0107788D01*
X0142112Y0104900D01*
X0137888Y0104900D01*
X0135141Y0107646D01*
X0132195Y0104700D01*
X0130200Y0104700D01*
X0130200Y0109800D01*
X0129800Y0109800D01*
X0129800Y0104700D01*
X0127805Y0104700D01*
X0124700Y0107805D01*
X0124700Y0109800D01*
X0129800Y0109800D01*
X0129800Y0110200D01*
X0129800Y0115300D01*
X0127805Y0115300D01*
X0124700Y0112195D01*
X0124700Y0110200D01*
X0129800Y0110200D01*
X0130200Y0110200D01*
X0130200Y0115300D01*
X0132195Y0115300D01*
X0135141Y0112354D01*
X0137592Y0114804D01*
X0137600Y0115041D01*
X0137600Y0115477D01*
X0137616Y0115517D01*
X0137618Y0115560D01*
X0137799Y0115957D01*
X0137965Y0116359D01*
X0137996Y0116390D01*
X0138013Y0116429D01*
X0138332Y0116726D01*
X0138641Y0117035D01*
X0138680Y0117051D01*
X0143919Y0121941D01*
X0143919Y0122712D01*
X0144464Y0124029D01*
X0145471Y0125036D01*
X0146788Y0125581D01*
X0148212Y0125581D01*
X0149529Y0125036D01*
X0150536Y0124029D01*
X0151081Y0122712D01*
X0151081Y0121288D01*
X0150536Y0119971D01*
X0149529Y0118964D01*
X0148212Y0118419D01*
X0147181Y0118419D01*
X0142842Y0114370D01*
X0145000Y0112212D01*
X0147888Y0115100D01*
X0152112Y0115100D01*
X0155000Y0112212D01*
X0157888Y0115100D01*
X0162112Y0115100D01*
X0165000Y0112212D01*
X0167888Y0115100D01*
X0172112Y0115100D01*
X0175000Y0112212D01*
X0177888Y0115100D01*
X0182112Y0115100D01*
X0182600Y0114612D01*
X0182600Y0115072D01*
X0182583Y0115119D01*
X0182600Y0115548D01*
X0182600Y0115977D01*
X0182619Y0116023D01*
X0182621Y0116073D01*
X0182801Y0116463D01*
X0182965Y0116859D01*
X0183001Y0116895D01*
X0183021Y0116940D01*
X0183337Y0117231D01*
X0183641Y0117535D01*
X0183686Y0117554D01*
X0189837Y0123231D01*
X0190141Y0123535D01*
X0190186Y0123554D01*
X0190223Y0123587D01*
X0190626Y0123736D01*
X0191023Y0123900D01*
X0191072Y0123900D01*
X0191119Y0123917D01*
X0191548Y0123900D01*
X0218036Y0123900D01*
X0217964Y0123971D01*
X0217419Y0125288D01*
X0217419Y0126712D01*
X0217661Y0127298D01*
X0211581Y0127298D01*
X0210644Y0128235D01*
X0210644Y0133891D01*
X0211581Y0134828D01*
X0216434Y0134828D01*
X0216778Y0135172D01*
X0211581Y0135172D01*
X0210644Y0136109D01*
X0210644Y0136537D01*
X0206078Y0136537D01*
X0205196Y0136902D01*
X0204520Y0137578D01*
X0200785Y0141313D01*
X0201225Y0140873D02*
X0196600Y0140873D01*
X0196600Y0139275D02*
X0202823Y0139275D01*
X0204422Y0137676D02*
X0196600Y0137676D01*
X0196600Y0136078D02*
X0210675Y0136078D01*
X0211232Y0134479D02*
X0097874Y0134479D01*
X0097400Y0132881D02*
X0210644Y0132881D01*
X0210644Y0131282D02*
X0097400Y0131282D01*
X0097400Y0129684D02*
X0210644Y0129684D01*
X0210794Y0128085D02*
X0097400Y0128085D01*
X0097400Y0126487D02*
X0217419Y0126487D01*
X0217584Y0124888D02*
X0149676Y0124888D01*
X0150842Y0123290D02*
X0189896Y0123290D01*
X0188169Y0121691D02*
X0151081Y0121691D01*
X0150586Y0120093D02*
X0186437Y0120093D01*
X0184705Y0118494D02*
X0148394Y0118494D01*
X0145549Y0116896D02*
X0183001Y0116896D01*
X0182590Y0115297D02*
X0143836Y0115297D01*
X0143514Y0113699D02*
X0146486Y0113699D01*
X0140000Y0115000D02*
X0140000Y0110000D01*
X0140000Y0115000D02*
X0147500Y0122000D01*
X0144158Y0123290D02*
X0097400Y0123290D01*
X0097400Y0124888D02*
X0145324Y0124888D01*
X0143652Y0121691D02*
X0097400Y0121691D01*
X0097400Y0120093D02*
X0141939Y0120093D01*
X0140227Y0118494D02*
X0097400Y0118494D01*
X0097400Y0116896D02*
X0138502Y0116896D01*
X0137600Y0115297D02*
X0132198Y0115297D01*
X0130200Y0115297D02*
X0129800Y0115297D01*
X0129800Y0113699D02*
X0130200Y0113699D01*
X0130200Y0112100D02*
X0129800Y0112100D01*
X0129800Y0110502D02*
X0130200Y0110502D01*
X0130200Y0108903D02*
X0129800Y0108903D01*
X0129800Y0107305D02*
X0130200Y0107305D01*
X0130200Y0105706D02*
X0129800Y0105706D01*
X0126798Y0105706D02*
X0097400Y0105706D01*
X0097400Y0104108D02*
X0171498Y0104108D01*
X0173097Y0102509D02*
X0097400Y0102509D01*
X0097400Y0100911D02*
X0174695Y0100911D01*
X0174500Y0098000D02*
X0180000Y0090000D01*
X0215000Y0090000D01*
X0220000Y0101000D01*
X0221424Y0097714D02*
X0250156Y0097714D01*
X0250938Y0096600D02*
X0251876Y0095663D01*
X0251876Y0087251D01*
X0250938Y0086313D01*
X0244888Y0086313D01*
X0243951Y0087251D01*
X0243951Y0095663D01*
X0244888Y0096600D01*
X0250938Y0096600D01*
X0251423Y0096115D02*
X0258577Y0096115D01*
X0258124Y0095663D02*
X0259062Y0096600D01*
X0265112Y0096600D01*
X0266049Y0095663D01*
X0266049Y0087251D01*
X0265112Y0086313D01*
X0259062Y0086313D01*
X0258124Y0087251D01*
X0258124Y0095663D01*
X0258124Y0094517D02*
X0251876Y0094517D01*
X0251876Y0092918D02*
X0258124Y0092918D01*
X0258124Y0091320D02*
X0251876Y0091320D01*
X0251876Y0089721D02*
X0258124Y0089721D01*
X0258124Y0088123D02*
X0251876Y0088123D01*
X0251149Y0086524D02*
X0258851Y0086524D01*
X0265322Y0086524D02*
X0310000Y0086524D01*
X0310000Y0084926D02*
X0182138Y0084926D01*
X0183737Y0086524D02*
X0244678Y0086524D01*
X0243951Y0088123D02*
X0216517Y0088123D01*
X0217510Y0089721D02*
X0243951Y0089721D01*
X0243951Y0091320D02*
X0218236Y0091320D01*
X0218963Y0092918D02*
X0243951Y0092918D01*
X0243951Y0094517D02*
X0219689Y0094517D01*
X0220416Y0096115D02*
X0244404Y0096115D01*
X0250050Y0099312D02*
X0223177Y0099312D01*
X0223581Y0100911D02*
X0250050Y0100911D01*
X0250050Y0102509D02*
X0232574Y0102509D01*
X0233507Y0104108D02*
X0250050Y0104108D01*
X0250562Y0105706D02*
X0233581Y0105706D01*
X0232760Y0107305D02*
X0254301Y0107305D01*
X0253031Y0105706D02*
X0253032Y0105706D01*
X0253031Y0104108D02*
X0253032Y0104108D01*
X0253031Y0102509D02*
X0253032Y0102509D01*
X0253031Y0100911D02*
X0253032Y0100911D01*
X0253031Y0099312D02*
X0253032Y0099312D01*
X0253031Y0097714D02*
X0253032Y0097714D01*
X0256969Y0101398D02*
X0256969Y0108031D01*
X0255000Y0110000D01*
X0235000Y0110000D01*
X0235000Y0115000D01*
X0238337Y0113699D02*
X0310000Y0113699D01*
X0310000Y0115297D02*
X0238581Y0115297D01*
X0238091Y0116896D02*
X0310000Y0116896D01*
X0310000Y0118494D02*
X0243907Y0118494D01*
X0241063Y0121260D02*
X0256260Y0121260D01*
X0270000Y0135000D01*
X0270000Y0155000D01*
X0265063Y0159937D01*
X0261500Y0159937D01*
X0259937Y0161500D01*
X0256172Y0161654D02*
X0255828Y0161654D01*
X0255828Y0160056D02*
X0256172Y0160056D01*
X0256172Y0158457D02*
X0255828Y0158457D01*
X0259094Y0155906D02*
X0260000Y0155000D01*
X0260000Y0150063D01*
X0259937Y0150000D01*
X0259937Y0139000D01*
X0259937Y0135606D01*
X0249331Y0125000D01*
X0249394Y0125063D01*
X0249111Y0128175D02*
X0246896Y0128175D01*
X0245959Y0127238D01*
X0245959Y0123660D01*
X0244272Y0123660D01*
X0243497Y0124435D01*
X0238629Y0124435D01*
X0238094Y0123900D01*
X0223964Y0123900D01*
X0224036Y0123971D01*
X0224581Y0125288D01*
X0224581Y0126187D01*
X0227035Y0128641D01*
X0227400Y0129523D01*
X0227400Y0135014D01*
X0235663Y0135014D01*
X0236600Y0135951D01*
X0236600Y0142001D01*
X0235663Y0142939D01*
X0227400Y0142939D01*
X0227400Y0157061D01*
X0235663Y0157061D01*
X0236600Y0157999D01*
X0236600Y0164049D01*
X0235663Y0164986D01*
X0234550Y0164986D01*
X0234664Y0165100D01*
X0245069Y0165100D01*
X0248298Y0161871D01*
X0248298Y0158305D01*
X0245493Y0158305D01*
X0245112Y0158687D01*
X0237684Y0158687D01*
X0236746Y0157749D01*
X0236746Y0154062D01*
X0236871Y0153937D01*
X0236746Y0153812D01*
X0236746Y0150125D01*
X0236777Y0150094D01*
X0236669Y0149907D01*
X0236546Y0149450D01*
X0236546Y0148032D01*
X0241398Y0148032D01*
X0246249Y0148032D01*
X0246249Y0149450D01*
X0246126Y0149907D01*
X0246018Y0150094D01*
X0246049Y0150125D01*
X0246049Y0153506D01*
X0248385Y0153506D01*
X0248298Y0153419D01*
X0248298Y0149629D01*
X0246249Y0147580D01*
X0246249Y0148031D01*
X0241398Y0148031D01*
X0241398Y0148032D01*
X0241398Y0148031D01*
X0236546Y0148031D01*
X0236546Y0146613D01*
X0236669Y0146156D01*
X0236777Y0145969D01*
X0236746Y0145938D01*
X0236746Y0142251D01*
X0237684Y0141313D01*
X0238998Y0141313D01*
X0238998Y0132567D01*
X0238529Y0133036D01*
X0237212Y0133581D01*
X0235788Y0133581D01*
X0234471Y0133036D01*
X0233464Y0132029D01*
X0232919Y0130712D01*
X0232919Y0129288D01*
X0233464Y0127971D01*
X0234471Y0126964D01*
X0235788Y0126419D01*
X0237212Y0126419D01*
X0237691Y0126617D01*
X0237691Y0126503D01*
X0238629Y0125565D01*
X0243497Y0125565D01*
X0244435Y0126503D01*
X0244435Y0130978D01*
X0243798Y0131615D01*
X0243798Y0141313D01*
X0245112Y0141313D01*
X0245493Y0141694D01*
X0245974Y0141694D01*
X0248298Y0139371D01*
X0248298Y0135581D01*
X0249235Y0134644D01*
X0254891Y0134644D01*
X0255828Y0135581D01*
X0255828Y0142419D01*
X0254891Y0143356D01*
X0251101Y0143356D01*
X0249957Y0144500D01*
X0251101Y0145644D01*
X0254891Y0145644D01*
X0255828Y0146581D01*
X0255828Y0153419D01*
X0255741Y0153506D01*
X0256259Y0153506D01*
X0256172Y0153419D01*
X0256172Y0146581D01*
X0257109Y0145644D01*
X0257537Y0145644D01*
X0257537Y0143356D01*
X0257109Y0143356D01*
X0256172Y0142419D01*
X0256172Y0135581D01*
X0256345Y0135408D01*
X0249111Y0128175D01*
X0250620Y0129684D02*
X0244435Y0129684D01*
X0244435Y0128085D02*
X0246807Y0128085D01*
X0245959Y0126487D02*
X0244419Y0126487D01*
X0245959Y0124888D02*
X0224416Y0124888D01*
X0224881Y0126487D02*
X0235624Y0126487D01*
X0237376Y0126487D02*
X0237707Y0126487D01*
X0241063Y0128740D02*
X0241063Y0129063D01*
X0240126Y0130000D01*
X0236500Y0130000D01*
X0233155Y0131282D02*
X0227400Y0131282D01*
X0227400Y0129684D02*
X0232919Y0129684D01*
X0233417Y0128085D02*
X0226479Y0128085D01*
X0225000Y0130000D02*
X0221000Y0126000D01*
X0225000Y0130000D02*
X0225000Y0160000D01*
X0221063Y0163937D01*
X0215000Y0163937D01*
X0209240Y0163937D01*
X0201303Y0156000D01*
X0201398Y0155906D02*
X0201555Y0156063D01*
X0215000Y0156063D01*
X0220000Y0151063D01*
X0220000Y0135000D01*
X0216063Y0131063D01*
X0215000Y0131063D01*
X0227400Y0132881D02*
X0234316Y0132881D01*
X0236600Y0136078D02*
X0238998Y0136078D01*
X0238998Y0137676D02*
X0236600Y0137676D01*
X0236600Y0139275D02*
X0238998Y0139275D01*
X0238998Y0140873D02*
X0236600Y0140873D01*
X0236746Y0142472D02*
X0236129Y0142472D01*
X0236746Y0144070D02*
X0227400Y0144070D01*
X0227400Y0145669D02*
X0236746Y0145669D01*
X0236546Y0147268D02*
X0227400Y0147268D01*
X0227400Y0148866D02*
X0236546Y0148866D01*
X0236746Y0150465D02*
X0227400Y0150465D01*
X0227400Y0152063D02*
X0236746Y0152063D01*
X0236746Y0153662D02*
X0227400Y0153662D01*
X0227400Y0155260D02*
X0236746Y0155260D01*
X0236746Y0156859D02*
X0227400Y0156859D01*
X0226313Y0162081D02*
X0223098Y0165296D01*
X0223098Y0165296D01*
X0222422Y0165972D01*
X0221540Y0166337D01*
X0219356Y0166337D01*
X0219356Y0166765D01*
X0218419Y0167702D01*
X0211581Y0167702D01*
X0210644Y0166765D01*
X0210644Y0166337D01*
X0208763Y0166337D01*
X0207881Y0165972D01*
X0200596Y0158687D01*
X0197684Y0158687D01*
X0196746Y0157749D01*
X0196746Y0154062D01*
X0196871Y0153937D01*
X0196746Y0153812D01*
X0196746Y0150125D01*
X0196777Y0150094D01*
X0196669Y0149907D01*
X0196546Y0149450D01*
X0196546Y0148032D01*
X0201398Y0148032D01*
X0201398Y0148031D01*
X0196546Y0148031D01*
X0196546Y0146613D01*
X0196578Y0146494D01*
X0179356Y0146494D01*
X0179356Y0148891D01*
X0178419Y0149828D01*
X0171581Y0149828D01*
X0170644Y0148891D01*
X0170644Y0148038D01*
X0170028Y0147422D01*
X0169006Y0146400D01*
X0166192Y0146400D01*
X0166249Y0146613D01*
X0166249Y0148031D01*
X0161398Y0148031D01*
X0161398Y0148032D01*
X0166249Y0148032D01*
X0166249Y0149450D01*
X0166126Y0149907D01*
X0166018Y0150094D01*
X0166049Y0150125D01*
X0166049Y0153506D01*
X0170644Y0153506D01*
X0170644Y0151109D01*
X0171581Y0150172D01*
X0178419Y0150172D01*
X0179356Y0151109D01*
X0179356Y0156765D01*
X0178419Y0157702D01*
X0174629Y0157702D01*
X0174391Y0157940D01*
X0173509Y0158305D01*
X0165493Y0158305D01*
X0165112Y0158687D01*
X0157684Y0158687D01*
X0157303Y0158305D01*
X0156600Y0158305D01*
X0156600Y0164049D01*
X0155663Y0164986D01*
X0147251Y0164986D01*
X0146313Y0164049D01*
X0146313Y0158543D01*
X0141545Y0161849D01*
X0141359Y0162035D01*
X0141156Y0162119D01*
X0140975Y0162244D01*
X0140719Y0162300D01*
X0140477Y0162400D01*
X0140257Y0162400D01*
X0140042Y0162447D01*
X0139784Y0162400D01*
X0130216Y0162400D01*
X0129958Y0162447D01*
X0129743Y0162400D01*
X0129523Y0162400D01*
X0129281Y0162300D01*
X0129025Y0162244D01*
X0128844Y0162119D01*
X0128641Y0162035D01*
X0128455Y0161849D01*
X0123894Y0158687D01*
X0117684Y0158687D01*
X0116746Y0157749D01*
X0116746Y0154062D01*
X0116871Y0153937D01*
X0116746Y0153812D01*
X0116746Y0150125D01*
X0116777Y0150094D01*
X0116669Y0149907D01*
X0116546Y0149450D01*
X0116546Y0148032D01*
X0121398Y0148032D01*
X0126249Y0148032D01*
X0126249Y0149450D01*
X0126209Y0149600D01*
X0127477Y0149600D01*
X0128359Y0149965D01*
X0129931Y0151537D01*
X0130644Y0151537D01*
X0130644Y0151109D01*
X0131581Y0150172D01*
X0135371Y0150172D01*
X0135715Y0149828D01*
X0131581Y0149828D01*
X0130644Y0148891D01*
X0130644Y0144038D01*
X0129006Y0142400D01*
X0126486Y0142400D01*
X0126049Y0142837D01*
X0126049Y0145938D01*
X0126018Y0145969D01*
X0126126Y0146156D01*
X0126249Y0146613D01*
X0126249Y0148031D01*
X0121398Y0148031D01*
X0121398Y0148032D01*
X0121398Y0148031D01*
X0116546Y0148031D01*
X0116546Y0146613D01*
X0116604Y0146400D01*
X0103523Y0146400D01*
X0102641Y0146035D01*
X0101965Y0145359D01*
X0097400Y0140794D01*
X0097400Y0165506D01*
X0106313Y0174419D01*
X0106313Y0170951D01*
X0107251Y0170014D01*
X0115663Y0170014D01*
X0116600Y0170951D01*
X0116600Y0176600D01*
X0117397Y0176600D01*
X0117684Y0176313D01*
X0125112Y0176313D01*
X0125493Y0176694D01*
X0134572Y0176694D01*
X0135454Y0177060D01*
X0135531Y0177137D01*
X0135609Y0177060D01*
X0136491Y0176694D01*
X0146313Y0176694D01*
X0146313Y0170951D01*
X0147251Y0170014D01*
X0155663Y0170014D01*
X0156600Y0170951D01*
X0156600Y0176694D01*
X0157303Y0176694D01*
X0157684Y0176313D01*
X0165112Y0176313D01*
X0165398Y0176600D01*
X0169977Y0176600D01*
X0170859Y0176965D01*
X0171387Y0177492D01*
X0171581Y0177298D01*
X0175371Y0177298D01*
X0175609Y0177060D01*
X0176491Y0176694D01*
X0186313Y0176694D01*
X0186313Y0170951D01*
X0187251Y0170014D01*
X0195663Y0170014D01*
X0196600Y0170951D01*
X0196600Y0176694D01*
X0197303Y0176694D01*
X0197684Y0176313D01*
X0205112Y0176313D01*
X0205398Y0176600D01*
X0210477Y0176600D01*
X0211359Y0176965D01*
X0211692Y0177298D01*
X0215371Y0177298D01*
X0215609Y0177060D01*
X0216491Y0176694D01*
X0226313Y0176694D01*
X0226313Y0170951D01*
X0227251Y0170014D01*
X0229450Y0170014D01*
X0228964Y0169529D01*
X0228419Y0168212D01*
X0228419Y0166788D01*
X0228964Y0165471D01*
X0229450Y0164986D01*
X0227251Y0164986D01*
X0226313Y0164049D01*
X0226313Y0162081D01*
X0226313Y0163253D02*
X0225141Y0163253D01*
X0223543Y0164851D02*
X0227116Y0164851D01*
X0228559Y0166450D02*
X0219356Y0166450D01*
X0226313Y0171245D02*
X0196600Y0171245D01*
X0196600Y0172844D02*
X0226313Y0172844D01*
X0226313Y0174442D02*
X0196600Y0174442D01*
X0196600Y0176041D02*
X0226313Y0176041D01*
X0219356Y0181494D02*
X0219356Y0183891D01*
X0218419Y0184828D01*
X0211581Y0184828D01*
X0210644Y0183891D01*
X0210644Y0183038D01*
X0210028Y0182422D01*
X0209006Y0181400D01*
X0206192Y0181400D01*
X0206249Y0181613D01*
X0206249Y0183031D01*
X0201398Y0183031D01*
X0201398Y0183032D01*
X0206249Y0183032D01*
X0206249Y0184450D01*
X0206126Y0184907D01*
X0206018Y0185094D01*
X0206049Y0185125D01*
X0206049Y0188506D01*
X0208100Y0188506D01*
X0208641Y0187965D01*
X0209523Y0187600D01*
X0210644Y0187600D01*
X0210644Y0186109D01*
X0211581Y0185172D01*
X0218419Y0185172D01*
X0219356Y0186109D01*
X0219356Y0191765D01*
X0218419Y0192702D01*
X0211581Y0192702D01*
X0211279Y0192400D01*
X0210994Y0192400D01*
X0210454Y0192940D01*
X0209572Y0193305D01*
X0205493Y0193305D01*
X0205112Y0193687D01*
X0202400Y0193687D01*
X0202400Y0200477D01*
X0202035Y0201359D01*
X0201359Y0202035D01*
X0196794Y0206600D01*
X0204053Y0206600D01*
X0204081Y0206589D01*
X0204529Y0206600D01*
X0204977Y0206600D01*
X0205005Y0206612D01*
X0205036Y0206612D01*
X0205446Y0206794D01*
X0205859Y0206965D01*
X0205881Y0206987D01*
X0205909Y0206999D01*
X0206218Y0207324D01*
X0206535Y0207641D01*
X0206546Y0207669D01*
X0214542Y0216064D01*
X0222965Y0207641D01*
X0223641Y0206965D01*
X0224523Y0206600D01*
X0234036Y0206600D01*
X0233464Y0206029D01*
X0232919Y0204712D01*
X0232919Y0203288D01*
X0233464Y0201971D01*
X0234471Y0200964D01*
X0235788Y0200419D01*
X0236591Y0200419D01*
X0237600Y0199158D01*
X0237600Y0193603D01*
X0236746Y0192749D01*
X0236746Y0189062D01*
X0236871Y0188937D01*
X0236746Y0188812D01*
X0236746Y0185125D01*
X0236777Y0185094D01*
X0236669Y0184907D01*
X0236546Y0184450D01*
X0236546Y0183032D01*
X0241398Y0183032D01*
X0241398Y0183031D01*
X0236546Y0183031D01*
X0236546Y0181613D01*
X0236578Y0181494D01*
X0219356Y0181494D01*
X0219356Y0182435D02*
X0236546Y0182435D01*
X0236546Y0184033D02*
X0219214Y0184033D01*
X0218879Y0185632D02*
X0236746Y0185632D01*
X0236746Y0187230D02*
X0219356Y0187230D01*
X0219356Y0188829D02*
X0236763Y0188829D01*
X0236746Y0190427D02*
X0219356Y0190427D01*
X0219095Y0192026D02*
X0236746Y0192026D01*
X0236600Y0192999D02*
X0235663Y0192061D01*
X0227251Y0192061D01*
X0226313Y0192999D01*
X0226313Y0199049D01*
X0227251Y0199986D01*
X0235663Y0199986D01*
X0236600Y0199049D01*
X0236600Y0192999D01*
X0236600Y0193624D02*
X0237600Y0193624D01*
X0237600Y0195223D02*
X0236600Y0195223D01*
X0236600Y0196821D02*
X0237600Y0196821D01*
X0237600Y0198420D02*
X0236600Y0198420D01*
X0236912Y0200018D02*
X0202400Y0200018D01*
X0202400Y0198420D02*
X0226313Y0198420D01*
X0226313Y0196821D02*
X0202400Y0196821D01*
X0202400Y0195223D02*
X0226313Y0195223D01*
X0226313Y0193624D02*
X0205174Y0193624D01*
X0201398Y0190906D02*
X0200000Y0192303D01*
X0200000Y0200000D01*
X0195000Y0205000D01*
X0190000Y0205000D01*
X0186709Y0206412D02*
X0156982Y0206412D01*
X0156794Y0206600D02*
X0162477Y0206600D01*
X0163359Y0206965D01*
X0173692Y0217298D01*
X0175107Y0217298D01*
X0183497Y0207716D01*
X0183528Y0207641D01*
X0183810Y0207359D01*
X0184072Y0207060D01*
X0184145Y0207023D01*
X0184203Y0206965D01*
X0184571Y0206813D01*
X0184928Y0206637D01*
X0185010Y0206631D01*
X0185086Y0206600D01*
X0185484Y0206600D01*
X0185881Y0206574D01*
X0185958Y0206600D01*
X0186787Y0206600D01*
X0186419Y0205712D01*
X0186419Y0204288D01*
X0186964Y0202971D01*
X0187971Y0201964D01*
X0189288Y0201419D01*
X0190712Y0201419D01*
X0192029Y0201964D01*
X0192664Y0202600D01*
X0194006Y0202600D01*
X0197600Y0199006D01*
X0197600Y0193603D01*
X0196746Y0192749D01*
X0196746Y0189062D01*
X0196871Y0188937D01*
X0196746Y0188812D01*
X0196746Y0185125D01*
X0196777Y0185094D01*
X0196669Y0184907D01*
X0196546Y0184450D01*
X0196546Y0183032D01*
X0201398Y0183032D01*
X0201398Y0183031D01*
X0196546Y0183031D01*
X0196546Y0181613D01*
X0196578Y0181494D01*
X0179356Y0181494D01*
X0179356Y0183891D01*
X0178419Y0184828D01*
X0171581Y0184828D01*
X0170644Y0183891D01*
X0170644Y0183280D01*
X0170203Y0183098D01*
X0169528Y0182422D01*
X0168506Y0181400D01*
X0166192Y0181400D01*
X0166249Y0181613D01*
X0166249Y0183031D01*
X0161398Y0183031D01*
X0161398Y0183032D01*
X0166249Y0183032D01*
X0166249Y0184450D01*
X0166126Y0184907D01*
X0166018Y0185094D01*
X0166049Y0185125D01*
X0166049Y0188506D01*
X0168100Y0188506D01*
X0168641Y0187965D01*
X0169523Y0187600D01*
X0170644Y0187600D01*
X0170644Y0186109D01*
X0171581Y0185172D01*
X0178419Y0185172D01*
X0179356Y0186109D01*
X0179356Y0191765D01*
X0178419Y0192702D01*
X0171581Y0192702D01*
X0171279Y0192400D01*
X0170994Y0192400D01*
X0170454Y0192940D01*
X0169572Y0193305D01*
X0165493Y0193305D01*
X0165112Y0193687D01*
X0162400Y0193687D01*
X0162400Y0200477D01*
X0162035Y0201359D01*
X0161359Y0202035D01*
X0156794Y0206600D01*
X0155000Y0205000D02*
X0160000Y0200000D01*
X0160000Y0192303D01*
X0161398Y0190906D01*
X0169094Y0190906D01*
X0170000Y0190000D01*
X0173937Y0190000D01*
X0175000Y0188937D01*
X0175000Y0190000D01*
X0179356Y0190427D02*
X0196746Y0190427D01*
X0196763Y0188829D02*
X0179356Y0188829D01*
X0179356Y0187230D02*
X0196746Y0187230D01*
X0196746Y0185632D02*
X0178879Y0185632D01*
X0179214Y0184033D02*
X0196546Y0184033D01*
X0196546Y0182435D02*
X0179356Y0182435D01*
X0170786Y0184033D02*
X0166249Y0184033D01*
X0166249Y0182435D02*
X0169541Y0182435D01*
X0171121Y0185632D02*
X0166049Y0185632D01*
X0166049Y0187230D02*
X0170644Y0187230D01*
X0165174Y0193624D02*
X0186313Y0193624D01*
X0186313Y0192999D02*
X0187251Y0192061D01*
X0195663Y0192061D01*
X0196600Y0192999D01*
X0196600Y0199049D01*
X0195663Y0199986D01*
X0187251Y0199986D01*
X0186313Y0199049D01*
X0186313Y0192999D01*
X0186313Y0195223D02*
X0162400Y0195223D01*
X0162400Y0196821D02*
X0186313Y0196821D01*
X0186313Y0198420D02*
X0162400Y0198420D01*
X0162400Y0200018D02*
X0196587Y0200018D01*
X0196600Y0198420D02*
X0197600Y0198420D01*
X0197600Y0196821D02*
X0196600Y0196821D01*
X0196600Y0195223D02*
X0197600Y0195223D01*
X0197600Y0193624D02*
X0196600Y0193624D01*
X0196746Y0192026D02*
X0179095Y0192026D01*
X0186863Y0203215D02*
X0160179Y0203215D01*
X0161777Y0201617D02*
X0188810Y0201617D01*
X0191190Y0201617D02*
X0194989Y0201617D01*
X0198580Y0204814D02*
X0232961Y0204814D01*
X0232949Y0203215D02*
X0200179Y0203215D01*
X0201777Y0201617D02*
X0233819Y0201617D01*
X0236500Y0204000D02*
X0238000Y0202500D01*
X0240000Y0200000D01*
X0240000Y0192303D01*
X0241398Y0190906D01*
X0241492Y0191000D01*
X0246049Y0187230D02*
X0250376Y0187230D01*
X0251121Y0185632D02*
X0246049Y0185632D01*
X0246249Y0184033D02*
X0250786Y0184033D01*
X0250644Y0182435D02*
X0246249Y0182435D01*
X0236600Y0176041D02*
X0310000Y0176041D01*
X0310000Y0174442D02*
X0236600Y0174442D01*
X0236600Y0172844D02*
X0310000Y0172844D01*
X0310000Y0171245D02*
X0236600Y0171245D01*
X0229082Y0169647D02*
X0101541Y0169647D01*
X0103139Y0171245D02*
X0106313Y0171245D01*
X0106313Y0172844D02*
X0104738Y0172844D01*
X0099548Y0174442D02*
X0098581Y0174442D01*
X0098581Y0174288D02*
X0098581Y0175712D01*
X0098036Y0177029D01*
X0097400Y0177664D01*
X0097400Y0182336D01*
X0098036Y0182971D01*
X0098581Y0184288D01*
X0098581Y0185712D01*
X0098036Y0187029D01*
X0097029Y0188036D01*
X0095712Y0188581D01*
X0094288Y0188581D01*
X0092971Y0188036D01*
X0092900Y0187964D01*
X0092900Y0197506D01*
X0102494Y0207100D01*
X0123914Y0207100D01*
X0124796Y0207465D01*
X0125472Y0208141D01*
X0134629Y0217298D01*
X0135371Y0217298D01*
X0144146Y0208523D01*
X0142971Y0208036D01*
X0141964Y0207029D01*
X0141419Y0205712D01*
X0141419Y0204288D01*
X0141964Y0202971D01*
X0142971Y0201964D01*
X0144288Y0201419D01*
X0145712Y0201419D01*
X0147029Y0201964D01*
X0147664Y0202600D01*
X0154006Y0202600D01*
X0157600Y0199006D01*
X0157600Y0193603D01*
X0156746Y0192749D01*
X0156746Y0189062D01*
X0156871Y0188937D01*
X0156746Y0188812D01*
X0156746Y0185125D01*
X0156777Y0185094D01*
X0156669Y0184907D01*
X0156546Y0184450D01*
X0156546Y0183032D01*
X0161398Y0183032D01*
X0161398Y0183031D01*
X0156546Y0183031D01*
X0156546Y0181613D01*
X0156578Y0181494D01*
X0139356Y0181494D01*
X0139356Y0183891D01*
X0138419Y0184828D01*
X0131581Y0184828D01*
X0130644Y0183891D01*
X0130644Y0181494D01*
X0126217Y0181494D01*
X0126249Y0181613D01*
X0126249Y0183031D01*
X0121398Y0183031D01*
X0121398Y0183032D01*
X0126249Y0183032D01*
X0126249Y0184450D01*
X0126126Y0184907D01*
X0126018Y0185094D01*
X0126049Y0185125D01*
X0126049Y0188506D01*
X0128100Y0188506D01*
X0128641Y0187965D01*
X0129523Y0187600D01*
X0130644Y0187600D01*
X0130644Y0186109D01*
X0131581Y0185172D01*
X0138419Y0185172D01*
X0139356Y0186109D01*
X0139356Y0191765D01*
X0138419Y0192702D01*
X0131581Y0192702D01*
X0131279Y0192400D01*
X0130994Y0192400D01*
X0130454Y0192940D01*
X0129572Y0193305D01*
X0125493Y0193305D01*
X0125112Y0193687D01*
X0117684Y0193687D01*
X0117303Y0193305D01*
X0116600Y0193305D01*
X0116600Y0199049D01*
X0115663Y0199986D01*
X0107251Y0199986D01*
X0106313Y0199049D01*
X0106313Y0193305D01*
X0105089Y0193305D01*
X0103581Y0194813D01*
X0103581Y0195712D01*
X0103036Y0197029D01*
X0102029Y0198036D01*
X0100712Y0198581D01*
X0099288Y0198581D01*
X0097971Y0198036D01*
X0096964Y0197029D01*
X0096419Y0195712D01*
X0096419Y0194288D01*
X0096964Y0192971D01*
X0097971Y0191964D01*
X0099288Y0191419D01*
X0100187Y0191419D01*
X0102735Y0188871D01*
X0103617Y0188506D01*
X0116746Y0188506D01*
X0116746Y0185125D01*
X0116777Y0185094D01*
X0116669Y0184907D01*
X0116546Y0184450D01*
X0116546Y0183032D01*
X0121398Y0183032D01*
X0121398Y0183031D01*
X0116546Y0183031D01*
X0116546Y0181613D01*
X0116604Y0181400D01*
X0107023Y0181400D01*
X0106141Y0181035D01*
X0093641Y0168535D01*
X0092965Y0167859D01*
X0092900Y0167702D01*
X0092900Y0172036D01*
X0092971Y0171964D01*
X0094288Y0171419D01*
X0095712Y0171419D01*
X0097029Y0171964D01*
X0098036Y0172971D01*
X0098581Y0174288D01*
X0097950Y0172844D02*
X0097908Y0172844D01*
X0096351Y0171245D02*
X0092900Y0171245D01*
X0092900Y0169647D02*
X0094753Y0169647D01*
X0093154Y0168048D02*
X0092900Y0168048D01*
X0098344Y0166450D02*
X0210644Y0166450D01*
X0206760Y0164851D02*
X0195797Y0164851D01*
X0195663Y0164986D02*
X0196600Y0164049D01*
X0196600Y0157999D01*
X0195663Y0157061D01*
X0187251Y0157061D01*
X0186313Y0157999D01*
X0186313Y0164049D01*
X0187251Y0164986D01*
X0195663Y0164986D01*
X0196600Y0163253D02*
X0205162Y0163253D01*
X0203563Y0161654D02*
X0196600Y0161654D01*
X0196600Y0160056D02*
X0201965Y0160056D01*
X0197454Y0158457D02*
X0196600Y0158457D01*
X0196746Y0156859D02*
X0179262Y0156859D01*
X0179356Y0155260D02*
X0196746Y0155260D01*
X0196746Y0153662D02*
X0179356Y0153662D01*
X0179356Y0152063D02*
X0196746Y0152063D01*
X0196746Y0150465D02*
X0178712Y0150465D01*
X0179356Y0148866D02*
X0196546Y0148866D01*
X0196546Y0147268D02*
X0179356Y0147268D01*
X0175000Y0146063D02*
X0175000Y0145000D01*
X0170028Y0147422D02*
X0170028Y0147422D01*
X0169873Y0147268D02*
X0166249Y0147268D01*
X0166249Y0148866D02*
X0170644Y0148866D01*
X0171288Y0150465D02*
X0166049Y0150465D01*
X0166049Y0152063D02*
X0170644Y0152063D01*
X0173031Y0155906D02*
X0175000Y0153937D01*
X0173031Y0155906D02*
X0161398Y0155906D01*
X0145906Y0155906D01*
X0140000Y0160000D01*
X0130000Y0160000D01*
X0124094Y0155906D01*
X0121398Y0155906D01*
X0121429Y0152000D02*
X0127000Y0152000D01*
X0128937Y0153937D01*
X0135000Y0153937D01*
X0138937Y0150000D01*
X0150000Y0150000D01*
X0151969Y0151969D01*
X0161398Y0151969D01*
X0156578Y0149569D02*
X0156546Y0149450D01*
X0156546Y0148032D01*
X0161398Y0148032D01*
X0161398Y0148031D01*
X0156546Y0148031D01*
X0156546Y0146613D01*
X0156578Y0146494D01*
X0139356Y0146494D01*
X0139356Y0147600D01*
X0150477Y0147600D01*
X0151359Y0147965D01*
X0152963Y0149569D01*
X0156578Y0149569D01*
X0156546Y0148866D02*
X0152260Y0148866D01*
X0156546Y0147268D02*
X0139356Y0147268D01*
X0134268Y0140873D02*
X0146313Y0140873D01*
X0146313Y0139275D02*
X0132669Y0139275D01*
X0130662Y0137676D02*
X0146313Y0137676D01*
X0146313Y0136078D02*
X0116600Y0136078D01*
X0116600Y0137676D02*
X0124830Y0137676D01*
X0122823Y0139275D02*
X0116600Y0139275D01*
X0116600Y0140873D02*
X0121225Y0140873D01*
X0126414Y0142472D02*
X0129078Y0142472D01*
X0130644Y0144070D02*
X0126049Y0144070D01*
X0126049Y0145669D02*
X0130644Y0145669D01*
X0130644Y0147268D02*
X0126249Y0147268D01*
X0126249Y0148866D02*
X0130644Y0148866D01*
X0131288Y0150465D02*
X0128859Y0150465D01*
X0121429Y0152000D02*
X0121398Y0151969D01*
X0116746Y0152063D02*
X0097400Y0152063D01*
X0097400Y0150465D02*
X0116746Y0150465D01*
X0116546Y0148866D02*
X0097400Y0148866D01*
X0097400Y0147268D02*
X0116546Y0147268D01*
X0116746Y0153662D02*
X0097400Y0153662D01*
X0097400Y0155260D02*
X0116746Y0155260D01*
X0116746Y0156859D02*
X0097400Y0156859D01*
X0097400Y0158457D02*
X0106313Y0158457D01*
X0106313Y0157999D02*
X0107251Y0157061D01*
X0115663Y0157061D01*
X0116600Y0157999D01*
X0116600Y0164049D01*
X0115663Y0164986D01*
X0107251Y0164986D01*
X0106313Y0164049D01*
X0106313Y0157999D01*
X0106313Y0160056D02*
X0097400Y0160056D01*
X0097400Y0161654D02*
X0106313Y0161654D01*
X0106313Y0163253D02*
X0097400Y0163253D01*
X0097400Y0164851D02*
X0107116Y0164851D01*
X0099942Y0168048D02*
X0228419Y0168048D01*
X0232000Y0167500D02*
X0246063Y0167500D01*
X0252063Y0161500D01*
X0248298Y0161654D02*
X0236600Y0161654D01*
X0236600Y0160056D02*
X0248298Y0160056D01*
X0248298Y0158457D02*
X0245341Y0158457D01*
X0241398Y0155906D02*
X0259094Y0155906D01*
X0256172Y0152063D02*
X0255828Y0152063D01*
X0255828Y0150465D02*
X0256172Y0150465D01*
X0256172Y0148866D02*
X0255828Y0148866D01*
X0255828Y0147268D02*
X0256172Y0147268D01*
X0257084Y0145669D02*
X0254916Y0145669D01*
X0257537Y0144070D02*
X0250387Y0144070D01*
X0246969Y0144094D02*
X0252063Y0139000D01*
X0255828Y0139275D02*
X0256172Y0139275D01*
X0256172Y0140873D02*
X0255828Y0140873D01*
X0255775Y0142472D02*
X0256225Y0142472D01*
X0256172Y0137676D02*
X0255828Y0137676D01*
X0255828Y0136078D02*
X0256172Y0136078D01*
X0255416Y0134479D02*
X0243798Y0134479D01*
X0243798Y0132881D02*
X0253818Y0132881D01*
X0252219Y0131282D02*
X0244130Y0131282D01*
X0241398Y0129075D02*
X0241063Y0128740D01*
X0241398Y0129075D02*
X0241398Y0144094D01*
X0246157Y0144094D01*
X0246969Y0144094D01*
X0246157Y0144094D02*
X0252063Y0150000D01*
X0248298Y0150465D02*
X0246049Y0150465D01*
X0246049Y0152063D02*
X0248298Y0152063D01*
X0247535Y0148866D02*
X0246249Y0148866D01*
X0246795Y0140873D02*
X0243798Y0140873D01*
X0243798Y0139275D02*
X0248298Y0139275D01*
X0248298Y0137676D02*
X0243798Y0137676D01*
X0243798Y0136078D02*
X0248298Y0136078D01*
X0238998Y0134479D02*
X0227400Y0134479D01*
X0238684Y0132881D02*
X0238998Y0132881D01*
X0239303Y0121500D02*
X0191500Y0121500D01*
X0185000Y0115500D01*
X0185000Y0103500D01*
X0182500Y0096500D02*
X0207500Y0096500D01*
X0215000Y0105000D02*
X0230000Y0105000D01*
X0227426Y0102509D02*
X0223251Y0102509D01*
X0215000Y0105000D02*
X0210000Y0110000D01*
X0213514Y0113699D02*
X0216486Y0113699D01*
X0220000Y0110000D02*
X0235000Y0110000D01*
X0231663Y0113699D02*
X0223514Y0113699D01*
X0231419Y0115297D02*
X0188319Y0115297D01*
X0190050Y0116896D02*
X0231909Y0116896D01*
X0234078Y0118494D02*
X0191782Y0118494D01*
X0193514Y0113699D02*
X0196486Y0113699D01*
X0203514Y0113699D02*
X0206486Y0113699D01*
X0182500Y0096500D02*
X0170000Y0109000D01*
X0170000Y0110000D01*
X0173514Y0113699D02*
X0176486Y0113699D01*
X0166486Y0113699D02*
X0163514Y0113699D01*
X0156486Y0113699D02*
X0153514Y0113699D01*
X0154517Y0107305D02*
X0155483Y0107305D01*
X0157081Y0105706D02*
X0152919Y0105706D01*
X0147081Y0105706D02*
X0142919Y0105706D01*
X0144517Y0107305D02*
X0145483Y0107305D01*
X0137081Y0105706D02*
X0133202Y0105706D01*
X0134800Y0107305D02*
X0135483Y0107305D01*
X0136486Y0113699D02*
X0133797Y0113699D01*
X0127802Y0115297D02*
X0097400Y0115297D01*
X0097400Y0113699D02*
X0126203Y0113699D01*
X0124700Y0112100D02*
X0097400Y0112100D01*
X0097400Y0110502D02*
X0124700Y0110502D01*
X0124700Y0108903D02*
X0097400Y0108903D01*
X0097400Y0107305D02*
X0125200Y0107305D01*
X0116946Y0099312D02*
X0097400Y0099312D01*
X0097400Y0097714D02*
X0115794Y0097714D01*
X0114603Y0096115D02*
X0097400Y0096115D01*
X0097400Y0094517D02*
X0113412Y0094517D01*
X0112221Y0092918D02*
X0097400Y0092918D01*
X0097400Y0091320D02*
X0111030Y0091320D01*
X0109838Y0089721D02*
X0097400Y0089721D01*
X0097400Y0088123D02*
X0108647Y0088123D01*
X0107456Y0086524D02*
X0097400Y0086524D01*
X0097400Y0084926D02*
X0106265Y0084926D01*
X0105074Y0083327D02*
X0097400Y0083327D01*
X0097400Y0081729D02*
X0103883Y0081729D01*
X0102692Y0080130D02*
X0097400Y0080130D01*
X0097400Y0078532D02*
X0101501Y0078532D01*
X0098764Y0076933D02*
X0097363Y0076933D01*
X0096374Y0075334D02*
X0096229Y0075334D01*
X0095567Y0073736D02*
X0094630Y0073736D01*
X0094568Y0072137D02*
X0095431Y0072137D01*
X0095867Y0070539D02*
X0094133Y0070539D01*
X0092901Y0068940D02*
X0097099Y0068940D01*
X0100000Y0072500D02*
X0119000Y0098000D01*
X0174500Y0098000D01*
X0173982Y0094517D02*
X0172696Y0094517D01*
X0174294Y0092918D02*
X0175081Y0092918D01*
X0170000Y0090000D02*
X0170000Y0080000D01*
X0175000Y0075000D01*
X0175000Y0070000D01*
X0178000Y0067500D01*
X0205500Y0067500D01*
X0210000Y0062500D01*
X0213217Y0065743D02*
X0216783Y0065743D01*
X0215736Y0064145D02*
X0214264Y0064145D01*
X0214568Y0062546D02*
X0215431Y0062546D01*
X0215698Y0060948D02*
X0214302Y0060948D01*
X0217412Y0068627D02*
X0219091Y0067931D01*
X0220909Y0067931D01*
X0222588Y0068627D01*
X0223873Y0069912D01*
X0224568Y0071591D01*
X0224568Y0073409D01*
X0223873Y0075088D01*
X0222588Y0076373D01*
X0220909Y0077068D01*
X0219091Y0077068D01*
X0217412Y0076373D01*
X0216127Y0075088D01*
X0215431Y0073409D01*
X0215431Y0071591D01*
X0216127Y0069912D01*
X0217412Y0068627D01*
X0217099Y0068940D02*
X0212901Y0068940D01*
X0214133Y0070539D02*
X0215867Y0070539D01*
X0215431Y0072137D02*
X0214568Y0072137D01*
X0214433Y0073736D02*
X0215567Y0073736D01*
X0216374Y0075334D02*
X0213626Y0075334D01*
X0211236Y0076933D02*
X0218764Y0076933D01*
X0221236Y0076933D02*
X0228764Y0076933D01*
X0229091Y0077068D02*
X0227412Y0076373D01*
X0226127Y0075088D01*
X0225431Y0073409D01*
X0225431Y0071591D01*
X0226127Y0069912D01*
X0227412Y0068627D01*
X0229091Y0067931D01*
X0230909Y0067931D01*
X0232588Y0068627D01*
X0233873Y0069912D01*
X0234568Y0071591D01*
X0234568Y0073409D01*
X0233873Y0075088D01*
X0232588Y0076373D01*
X0230909Y0077068D01*
X0229091Y0077068D01*
X0231236Y0076933D02*
X0238764Y0076933D01*
X0239091Y0077068D02*
X0237412Y0076373D01*
X0236127Y0075088D01*
X0235431Y0073409D01*
X0235431Y0071591D01*
X0236127Y0069912D01*
X0237412Y0068627D01*
X0239091Y0067931D01*
X0240909Y0067931D01*
X0242588Y0068627D01*
X0243873Y0069912D01*
X0244568Y0071591D01*
X0244568Y0073409D01*
X0243873Y0075088D01*
X0242588Y0076373D01*
X0240909Y0077068D01*
X0239091Y0077068D01*
X0241236Y0076933D02*
X0248764Y0076933D01*
X0249091Y0077068D02*
X0247412Y0076373D01*
X0246127Y0075088D01*
X0245431Y0073409D01*
X0245431Y0071591D01*
X0246127Y0069912D01*
X0247412Y0068627D01*
X0249091Y0067931D01*
X0250909Y0067931D01*
X0252588Y0068627D01*
X0253873Y0069912D01*
X0254568Y0071591D01*
X0254568Y0073409D01*
X0253873Y0075088D01*
X0252588Y0076373D01*
X0250909Y0077068D01*
X0249091Y0077068D01*
X0251236Y0076933D02*
X0258764Y0076933D01*
X0259091Y0077068D02*
X0257412Y0076373D01*
X0256127Y0075088D01*
X0255431Y0073409D01*
X0255431Y0071591D01*
X0256127Y0069912D01*
X0257412Y0068627D01*
X0259091Y0067931D01*
X0260909Y0067931D01*
X0262588Y0068627D01*
X0263873Y0069912D01*
X0264568Y0071591D01*
X0264568Y0073409D01*
X0263873Y0075088D01*
X0262588Y0076373D01*
X0260909Y0077068D01*
X0259091Y0077068D01*
X0261236Y0076933D02*
X0268764Y0076933D01*
X0269091Y0077068D02*
X0267412Y0076373D01*
X0266127Y0075088D01*
X0265431Y0073409D01*
X0265431Y0071591D01*
X0266127Y0069912D01*
X0267412Y0068627D01*
X0269091Y0067931D01*
X0270909Y0067931D01*
X0272588Y0068627D01*
X0273873Y0069912D01*
X0274568Y0071591D01*
X0274568Y0073409D01*
X0273873Y0075088D01*
X0272588Y0076373D01*
X0270909Y0077068D01*
X0269091Y0077068D01*
X0271236Y0076933D02*
X0278764Y0076933D01*
X0279091Y0077068D02*
X0277412Y0076373D01*
X0276127Y0075088D01*
X0275431Y0073409D01*
X0275431Y0071591D01*
X0276127Y0069912D01*
X0277412Y0068627D01*
X0279091Y0067931D01*
X0280909Y0067931D01*
X0282588Y0068627D01*
X0283873Y0069912D01*
X0284568Y0071591D01*
X0284568Y0073409D01*
X0283873Y0075088D01*
X0282588Y0076373D01*
X0280909Y0077068D01*
X0279091Y0077068D01*
X0281236Y0076933D02*
X0288212Y0076933D01*
X0288170Y0076919D02*
X0287501Y0076578D01*
X0286894Y0076137D01*
X0286363Y0075606D01*
X0285922Y0074999D01*
X0285581Y0074330D01*
X0285349Y0073617D01*
X0285231Y0072875D01*
X0285231Y0072684D01*
X0289816Y0072684D01*
X0289816Y0072316D01*
X0290184Y0072316D01*
X0290184Y0067731D01*
X0290375Y0067731D01*
X0291117Y0067849D01*
X0291830Y0068081D01*
X0292499Y0068422D01*
X0293106Y0068863D01*
X0293637Y0069394D01*
X0294078Y0070001D01*
X0294419Y0070670D01*
X0294651Y0071383D01*
X0294768Y0072125D01*
X0294768Y0072316D01*
X0290184Y0072316D01*
X0290184Y0072684D01*
X0294768Y0072684D01*
X0294768Y0072875D01*
X0294651Y0073617D01*
X0294419Y0074330D01*
X0294078Y0074999D01*
X0293637Y0075606D01*
X0293106Y0076137D01*
X0292499Y0076578D01*
X0291830Y0076919D01*
X0291117Y0077151D01*
X0290375Y0077268D01*
X0290184Y0077268D01*
X0290184Y0072684D01*
X0289816Y0072684D01*
X0289816Y0077268D01*
X0289625Y0077268D01*
X0288883Y0077151D01*
X0288170Y0076919D01*
X0289816Y0076933D02*
X0290184Y0076933D01*
X0290184Y0075334D02*
X0289816Y0075334D01*
X0289816Y0073736D02*
X0290184Y0073736D01*
X0290000Y0072500D02*
X0300000Y0072500D01*
X0300000Y0062500D01*
X0290000Y0062500D01*
X0290184Y0062546D02*
X0299816Y0062546D01*
X0299816Y0062684D02*
X0295231Y0062684D01*
X0295231Y0062875D01*
X0295349Y0063617D01*
X0295581Y0064330D01*
X0295922Y0064999D01*
X0296363Y0065606D01*
X0296894Y0066137D01*
X0297501Y0066578D01*
X0298170Y0066919D01*
X0298883Y0067151D01*
X0299625Y0067268D01*
X0299816Y0067268D01*
X0299816Y0062684D01*
X0300184Y0062684D02*
X0300184Y0067268D01*
X0300375Y0067268D01*
X0301117Y0067151D01*
X0301830Y0066919D01*
X0302499Y0066578D01*
X0303106Y0066137D01*
X0303637Y0065606D01*
X0304078Y0064999D01*
X0304419Y0064330D01*
X0304651Y0063617D01*
X0304768Y0062875D01*
X0304768Y0062684D01*
X0300184Y0062684D01*
X0300184Y0062546D02*
X0309354Y0062546D01*
X0310000Y0064145D02*
X0304479Y0064145D01*
X0303500Y0065743D02*
X0310000Y0065743D01*
X0310000Y0067342D02*
X0208871Y0067342D01*
X0205867Y0070539D02*
X0204133Y0070539D01*
X0204568Y0072137D02*
X0205431Y0072137D01*
X0205567Y0073736D02*
X0204433Y0073736D01*
X0203626Y0075334D02*
X0206374Y0075334D01*
X0208764Y0076933D02*
X0201236Y0076933D01*
X0198764Y0076933D02*
X0191236Y0076933D01*
X0188764Y0076933D02*
X0181236Y0076933D01*
X0178764Y0076933D02*
X0176461Y0076933D01*
X0174863Y0078532D02*
X0310000Y0078532D01*
X0310000Y0080130D02*
X0173264Y0080130D01*
X0172400Y0081729D02*
X0310000Y0081729D01*
X0310000Y0083327D02*
X0172400Y0083327D01*
X0172400Y0084926D02*
X0177862Y0084926D01*
X0176263Y0086524D02*
X0173737Y0086524D01*
X0165706Y0092918D02*
X0164294Y0092918D01*
X0162696Y0094517D02*
X0167304Y0094517D01*
X0160000Y0090000D02*
X0160000Y0085000D01*
X0155000Y0080000D01*
X0155000Y0070000D01*
X0152500Y0067500D01*
X0145000Y0067500D01*
X0140000Y0072500D01*
X0135867Y0070539D02*
X0134133Y0070539D01*
X0133873Y0069912D02*
X0134568Y0071591D01*
X0134568Y0073409D01*
X0133873Y0075088D01*
X0132588Y0076373D01*
X0130909Y0077068D01*
X0129091Y0077068D01*
X0127412Y0076373D01*
X0126127Y0075088D01*
X0125431Y0073409D01*
X0125431Y0071591D01*
X0126127Y0069912D01*
X0127412Y0068627D01*
X0129091Y0067931D01*
X0130909Y0067931D01*
X0132588Y0068627D01*
X0133873Y0069912D01*
X0132901Y0068940D02*
X0137099Y0068940D01*
X0135431Y0072137D02*
X0134568Y0072137D01*
X0134433Y0073736D02*
X0135567Y0073736D01*
X0136374Y0075334D02*
X0133626Y0075334D01*
X0131236Y0076933D02*
X0138764Y0076933D01*
X0140266Y0078532D02*
X0107487Y0078532D01*
X0108678Y0080130D02*
X0138476Y0080130D01*
X0137600Y0081729D02*
X0109869Y0081729D01*
X0111060Y0083327D02*
X0137600Y0083327D01*
X0137600Y0084926D02*
X0132421Y0084926D01*
X0130200Y0084926D02*
X0129800Y0084926D01*
X0129800Y0086524D02*
X0130200Y0086524D01*
X0130200Y0088123D02*
X0129800Y0088123D01*
X0129800Y0089721D02*
X0130200Y0089721D01*
X0130200Y0091320D02*
X0129800Y0091320D01*
X0129800Y0092918D02*
X0130200Y0092918D01*
X0130200Y0094517D02*
X0129800Y0094517D01*
X0127021Y0094517D02*
X0119398Y0094517D01*
X0118206Y0092918D02*
X0125423Y0092918D01*
X0124700Y0091320D02*
X0117015Y0091320D01*
X0115824Y0089721D02*
X0124700Y0089721D01*
X0124700Y0088123D02*
X0114633Y0088123D01*
X0113442Y0086524D02*
X0125981Y0086524D01*
X0127579Y0084926D02*
X0112251Y0084926D01*
X0110909Y0077068D02*
X0109091Y0077068D01*
X0107412Y0076373D01*
X0106127Y0075088D01*
X0105431Y0073409D01*
X0105431Y0071591D01*
X0106127Y0069912D01*
X0107412Y0068627D01*
X0109091Y0067931D01*
X0110909Y0067931D01*
X0112588Y0068627D01*
X0113873Y0069912D01*
X0114568Y0071591D01*
X0114568Y0073409D01*
X0113873Y0075088D01*
X0112588Y0076373D01*
X0110909Y0077068D01*
X0111236Y0076933D02*
X0118764Y0076933D01*
X0119091Y0077068D02*
X0117412Y0076373D01*
X0116127Y0075088D01*
X0115431Y0073409D01*
X0115431Y0071591D01*
X0116127Y0069912D01*
X0117412Y0068627D01*
X0119091Y0067931D01*
X0120909Y0067931D01*
X0122588Y0068627D01*
X0123873Y0069912D01*
X0124568Y0071591D01*
X0124568Y0073409D01*
X0123873Y0075088D01*
X0122588Y0076373D01*
X0120909Y0077068D01*
X0119091Y0077068D01*
X0121236Y0076933D02*
X0128764Y0076933D01*
X0126374Y0075334D02*
X0123626Y0075334D01*
X0124433Y0073736D02*
X0125567Y0073736D01*
X0125431Y0072137D02*
X0124568Y0072137D01*
X0124133Y0070539D02*
X0125867Y0070539D01*
X0127099Y0068940D02*
X0122901Y0068940D01*
X0117099Y0068940D02*
X0112901Y0068940D01*
X0114133Y0070539D02*
X0115867Y0070539D01*
X0115431Y0072137D02*
X0114568Y0072137D01*
X0114433Y0073736D02*
X0115567Y0073736D01*
X0116374Y0075334D02*
X0113626Y0075334D01*
X0108764Y0076933D02*
X0106296Y0076933D01*
X0106374Y0075334D02*
X0105105Y0075334D01*
X0105567Y0073736D02*
X0104433Y0073736D01*
X0104568Y0072137D02*
X0105431Y0072137D01*
X0105867Y0070539D02*
X0104133Y0070539D01*
X0102901Y0068940D02*
X0107099Y0068940D01*
X0106783Y0065743D02*
X0103217Y0065743D01*
X0104264Y0064145D02*
X0105736Y0064145D01*
X0105431Y0062546D02*
X0104568Y0062546D01*
X0104302Y0060948D02*
X0105698Y0060948D01*
X0114302Y0060948D02*
X0115698Y0060948D01*
X0115431Y0062546D02*
X0114568Y0062546D01*
X0114264Y0064145D02*
X0115736Y0064145D01*
X0116783Y0065743D02*
X0113217Y0065743D01*
X0123217Y0065743D02*
X0126783Y0065743D01*
X0125736Y0064145D02*
X0124264Y0064145D01*
X0124568Y0062546D02*
X0125431Y0062546D01*
X0125698Y0060948D02*
X0124302Y0060948D01*
X0133217Y0065743D02*
X0136783Y0065743D01*
X0135736Y0064145D02*
X0134264Y0064145D01*
X0134568Y0062546D02*
X0135431Y0062546D01*
X0135698Y0060948D02*
X0134302Y0060948D01*
X0141764Y0067342D02*
X0092400Y0067342D01*
X0093217Y0065743D02*
X0096783Y0065743D01*
X0095736Y0064145D02*
X0094264Y0064145D01*
X0094568Y0062546D02*
X0095431Y0062546D01*
X0095698Y0060948D02*
X0094302Y0060948D01*
X0090000Y0062500D02*
X0090000Y0065000D01*
X0090000Y0072500D01*
X0095000Y0077500D01*
X0095000Y0135000D01*
X0099472Y0136078D02*
X0106313Y0136078D01*
X0106313Y0137676D02*
X0101071Y0137676D01*
X0102669Y0139275D02*
X0106313Y0139275D01*
X0106313Y0140873D02*
X0104268Y0140873D01*
X0100676Y0144070D02*
X0097400Y0144070D01*
X0097400Y0142472D02*
X0099078Y0142472D01*
X0097479Y0140873D02*
X0097400Y0140873D01*
X0097400Y0145669D02*
X0102275Y0145669D01*
X0101965Y0145359D02*
X0101965Y0145359D01*
X0116600Y0158457D02*
X0117454Y0158457D01*
X0116600Y0160056D02*
X0125868Y0160056D01*
X0128174Y0161654D02*
X0116600Y0161654D01*
X0116600Y0163253D02*
X0146313Y0163253D01*
X0146313Y0161654D02*
X0141826Y0161654D01*
X0144132Y0160056D02*
X0146313Y0160056D01*
X0147116Y0164851D02*
X0115797Y0164851D01*
X0116600Y0171245D02*
X0146313Y0171245D01*
X0146313Y0172844D02*
X0116600Y0172844D01*
X0116600Y0174442D02*
X0146313Y0174442D01*
X0146313Y0176041D02*
X0116600Y0176041D01*
X0116546Y0182435D02*
X0097499Y0182435D01*
X0097400Y0180836D02*
X0105942Y0180836D01*
X0104344Y0179238D02*
X0097400Y0179238D01*
X0097425Y0177639D02*
X0102745Y0177639D01*
X0101147Y0176041D02*
X0098445Y0176041D01*
X0095000Y0175000D02*
X0095000Y0185000D01*
X0097834Y0187230D02*
X0116746Y0187230D01*
X0116746Y0185632D02*
X0098581Y0185632D01*
X0098476Y0184033D02*
X0116546Y0184033D01*
X0126049Y0185632D02*
X0131121Y0185632D01*
X0130786Y0184033D02*
X0126249Y0184033D01*
X0126249Y0182435D02*
X0130644Y0182435D01*
X0130644Y0187230D02*
X0126049Y0187230D01*
X0129094Y0190906D02*
X0121398Y0190906D01*
X0104094Y0190906D01*
X0100000Y0195000D01*
X0096694Y0193624D02*
X0092900Y0193624D01*
X0092900Y0192026D02*
X0097910Y0192026D01*
X0096419Y0195223D02*
X0092900Y0195223D01*
X0092900Y0196821D02*
X0096878Y0196821D01*
X0098898Y0198420D02*
X0093814Y0198420D01*
X0095412Y0200018D02*
X0156588Y0200018D01*
X0155663Y0199986D02*
X0156600Y0199049D01*
X0156600Y0192999D01*
X0155663Y0192061D01*
X0147251Y0192061D01*
X0146313Y0192999D01*
X0146313Y0199049D01*
X0147251Y0199986D01*
X0155663Y0199986D01*
X0154989Y0201617D02*
X0146190Y0201617D01*
X0143810Y0201617D02*
X0097011Y0201617D01*
X0098610Y0203215D02*
X0141863Y0203215D01*
X0141419Y0204814D02*
X0100208Y0204814D01*
X0101807Y0206412D02*
X0141709Y0206412D01*
X0142947Y0208011D02*
X0125342Y0208011D01*
X0125472Y0208141D02*
X0125472Y0208141D01*
X0126941Y0209609D02*
X0143059Y0209609D01*
X0141461Y0211208D02*
X0128539Y0211208D01*
X0130138Y0212806D02*
X0139862Y0212806D01*
X0138264Y0214405D02*
X0131736Y0214405D01*
X0133335Y0216003D02*
X0136665Y0216003D01*
X0140257Y0219201D02*
X0156546Y0219201D01*
X0156546Y0219094D02*
X0156546Y0217676D01*
X0156669Y0217219D01*
X0156906Y0216808D01*
X0157241Y0216473D01*
X0157652Y0216236D01*
X0158109Y0216113D01*
X0161398Y0216113D01*
X0164686Y0216113D01*
X0165144Y0216236D01*
X0165554Y0216473D01*
X0165889Y0216808D01*
X0166126Y0217219D01*
X0166249Y0217676D01*
X0166249Y0219094D01*
X0161398Y0219094D01*
X0161398Y0219095D01*
X0161398Y0219094D01*
X0161398Y0216113D01*
X0161398Y0219094D01*
X0161398Y0219094D01*
X0156546Y0219094D01*
X0156566Y0217602D02*
X0155999Y0217602D01*
X0156600Y0216003D02*
X0165609Y0216003D01*
X0166229Y0217602D02*
X0167208Y0217602D01*
X0166249Y0219201D02*
X0168806Y0219201D01*
X0170405Y0220799D02*
X0166172Y0220799D01*
X0166049Y0222398D02*
X0170644Y0222398D01*
X0170749Y0223996D02*
X0166049Y0223996D01*
X0166049Y0225595D02*
X0171158Y0225595D01*
X0167913Y0227193D02*
X0166049Y0227193D01*
X0169563Y0228937D02*
X0175000Y0228937D01*
X0182000Y0236000D01*
X0184652Y0233587D02*
X0186313Y0233587D01*
X0186313Y0235186D02*
X0185539Y0235186D01*
X0185551Y0236784D02*
X0186313Y0236784D01*
X0186313Y0238383D02*
X0184682Y0238383D01*
X0179318Y0238383D02*
X0156600Y0238383D01*
X0156600Y0236784D02*
X0178449Y0236784D01*
X0177814Y0235186D02*
X0156600Y0235186D01*
X0156600Y0233587D02*
X0157584Y0233587D01*
X0156746Y0231989D02*
X0139132Y0231989D01*
X0139356Y0230390D02*
X0156746Y0230390D01*
X0156746Y0228792D02*
X0139356Y0228792D01*
X0139356Y0227193D02*
X0156746Y0227193D01*
X0156746Y0225595D02*
X0138842Y0225595D01*
X0139251Y0223996D02*
X0156746Y0223996D01*
X0156746Y0222398D02*
X0139356Y0222398D01*
X0139356Y0220799D02*
X0156623Y0220799D01*
X0161398Y0217602D02*
X0161398Y0217602D01*
X0164011Y0214405D02*
X0156600Y0214405D01*
X0156600Y0212806D02*
X0162412Y0212806D01*
X0162000Y0209000D02*
X0174063Y0221063D01*
X0175000Y0221063D01*
X0185563Y0209000D01*
X0183239Y0208011D02*
X0164405Y0208011D01*
X0166004Y0209609D02*
X0181839Y0209609D01*
X0180440Y0211208D02*
X0167602Y0211208D01*
X0169201Y0212806D02*
X0179040Y0212806D01*
X0177640Y0214405D02*
X0170799Y0214405D01*
X0172398Y0216003D02*
X0176240Y0216003D01*
X0162000Y0209000D02*
X0147063Y0209000D01*
X0135000Y0221063D01*
X0123437Y0209500D01*
X0101500Y0209500D01*
X0090500Y0198500D01*
X0090500Y0085000D01*
X0085000Y0079500D01*
X0085000Y0070000D01*
X0090000Y0065000D01*
X0086323Y0065283D02*
X0086127Y0065088D01*
X0085431Y0063409D01*
X0085431Y0061591D01*
X0086070Y0060050D01*
X0084768Y0060050D01*
X0084768Y0062316D01*
X0080184Y0062316D01*
X0080184Y0062684D01*
X0079816Y0062684D01*
X0079816Y0062316D01*
X0075231Y0062316D01*
X0075231Y0060050D01*
X0070000Y0060050D01*
X0070000Y0100953D01*
X0071657Y0101331D01*
X0077250Y0104025D01*
X0077250Y0104025D01*
X0082104Y0107896D01*
X0085975Y0112750D01*
X0088100Y0117163D01*
X0088100Y0085994D01*
X0082965Y0080859D01*
X0082600Y0079977D01*
X0082600Y0079023D01*
X0082600Y0076505D01*
X0082499Y0076578D01*
X0081830Y0076919D01*
X0081117Y0077151D01*
X0080375Y0077268D01*
X0080184Y0077268D01*
X0080184Y0072684D01*
X0079816Y0072684D01*
X0079816Y0072316D01*
X0080184Y0072316D01*
X0080184Y0067731D01*
X0080375Y0067731D01*
X0081117Y0067849D01*
X0081830Y0068081D01*
X0082499Y0068422D01*
X0082927Y0068733D01*
X0082965Y0068641D01*
X0083641Y0067965D01*
X0086323Y0065283D01*
X0085862Y0065743D02*
X0084758Y0065743D01*
X0084768Y0065705D02*
X0084646Y0066163D01*
X0084409Y0066574D01*
X0084074Y0066909D01*
X0083663Y0067146D01*
X0083205Y0067268D01*
X0080184Y0067268D01*
X0080184Y0062684D01*
X0084768Y0062684D01*
X0084768Y0065705D01*
X0084768Y0064145D02*
X0085736Y0064145D01*
X0085431Y0062546D02*
X0080184Y0062546D01*
X0079816Y0062546D02*
X0070000Y0062546D01*
X0070000Y0060948D02*
X0075231Y0060948D01*
X0075231Y0062684D02*
X0079816Y0062684D01*
X0079816Y0067268D01*
X0076795Y0067268D01*
X0076337Y0067146D01*
X0075926Y0066909D01*
X0075591Y0066574D01*
X0075354Y0066163D01*
X0075231Y0065705D01*
X0075231Y0062684D01*
X0075231Y0064145D02*
X0070000Y0064145D01*
X0070000Y0065743D02*
X0075242Y0065743D01*
X0077501Y0068422D02*
X0078170Y0068081D01*
X0078883Y0067849D01*
X0079625Y0067731D01*
X0079816Y0067731D01*
X0079816Y0072316D01*
X0075231Y0072316D01*
X0075231Y0072125D01*
X0075349Y0071383D01*
X0075581Y0070670D01*
X0075922Y0070001D01*
X0076363Y0069394D01*
X0076894Y0068863D01*
X0077501Y0068422D01*
X0076816Y0068940D02*
X0070000Y0068940D01*
X0070000Y0067342D02*
X0084264Y0067342D01*
X0080184Y0068940D02*
X0079816Y0068940D01*
X0079816Y0070539D02*
X0080184Y0070539D01*
X0080184Y0072137D02*
X0079816Y0072137D01*
X0079816Y0072684D02*
X0075231Y0072684D01*
X0075231Y0072875D01*
X0075349Y0073617D01*
X0075581Y0074330D01*
X0075922Y0074999D01*
X0076363Y0075606D01*
X0076894Y0076137D01*
X0077501Y0076578D01*
X0078170Y0076919D01*
X0078883Y0077151D01*
X0079625Y0077268D01*
X0079816Y0077268D01*
X0079816Y0072684D01*
X0079816Y0073736D02*
X0080184Y0073736D01*
X0080184Y0075334D02*
X0079816Y0075334D01*
X0079816Y0076933D02*
X0080184Y0076933D01*
X0081788Y0076933D02*
X0082600Y0076933D01*
X0082600Y0078532D02*
X0070000Y0078532D01*
X0070000Y0080130D02*
X0075572Y0080130D01*
X0075504Y0080178D02*
X0075785Y0079981D01*
X0075888Y0079999D01*
X0075910Y0079989D01*
X0075962Y0079899D01*
X0076293Y0079810D01*
X0076604Y0079665D01*
X0076701Y0079701D01*
X0076725Y0079694D01*
X0076792Y0079615D01*
X0077133Y0079585D01*
X0077465Y0079496D01*
X0077555Y0079548D01*
X0077579Y0079546D01*
X0077658Y0079479D01*
X0078000Y0079509D01*
X0078342Y0079479D01*
X0078421Y0079546D01*
X0078445Y0079548D01*
X0078535Y0079496D01*
X0078867Y0079585D01*
X0079208Y0079615D01*
X0079275Y0079694D01*
X0079298Y0079701D01*
X0079396Y0079665D01*
X0079707Y0079810D01*
X0080038Y0079899D01*
X0080090Y0079989D01*
X0080112Y0079999D01*
X0080214Y0079981D01*
X0080496Y0080178D01*
X0080806Y0080323D01*
X0080842Y0080420D01*
X0080862Y0080434D01*
X0080966Y0080434D01*
X0081208Y0080677D01*
X0081489Y0080873D01*
X0081507Y0080976D01*
X0081524Y0080993D01*
X0081627Y0081011D01*
X0081823Y0081292D01*
X0082066Y0081534D01*
X0082066Y0081638D01*
X0082080Y0081658D01*
X0082177Y0081694D01*
X0082322Y0082004D01*
X0082519Y0082285D01*
X0082501Y0082388D01*
X0082511Y0082410D01*
X0082601Y0082462D01*
X0082690Y0082793D01*
X0082835Y0083104D01*
X0082799Y0083201D01*
X0082806Y0083225D01*
X0082885Y0083292D01*
X0082915Y0083633D01*
X0083004Y0083965D01*
X0082952Y0084055D01*
X0082954Y0084079D01*
X0083021Y0084158D01*
X0082991Y0084500D01*
X0083021Y0084842D01*
X0082954Y0084921D01*
X0082952Y0084945D01*
X0083004Y0085035D01*
X0082915Y0085367D01*
X0082885Y0085708D01*
X0082806Y0085775D01*
X0082799Y0085798D01*
X0082835Y0085896D01*
X0082690Y0086207D01*
X0082601Y0086538D01*
X0082511Y0086590D01*
X0082501Y0086612D01*
X0082519Y0086714D01*
X0082322Y0086996D01*
X0082177Y0087306D01*
X0082080Y0087342D01*
X0082066Y0087362D01*
X0082066Y0087466D01*
X0081823Y0087708D01*
X0081627Y0087989D01*
X0081524Y0088007D01*
X0081507Y0088024D01*
X0081489Y0088127D01*
X0081208Y0088323D01*
X0080966Y0088566D01*
X0080862Y0088566D01*
X0080842Y0088580D01*
X0080806Y0088677D01*
X0080496Y0088822D01*
X0080214Y0089019D01*
X0080112Y0089001D01*
X0080090Y0089011D01*
X0080038Y0089101D01*
X0079707Y0089190D01*
X0079396Y0089335D01*
X0079298Y0089299D01*
X0079275Y0089306D01*
X0079208Y0089385D01*
X0078867Y0089415D01*
X0078535Y0089504D01*
X0078445Y0089452D01*
X0078421Y0089454D01*
X0078342Y0089521D01*
X0078000Y0089491D01*
X0077658Y0089521D01*
X0077579Y0089454D01*
X0077555Y0089452D01*
X0077465Y0089504D01*
X0077133Y0089415D01*
X0076792Y0089385D01*
X0076725Y0089306D01*
X0076701Y0089299D01*
X0076604Y0089335D01*
X0076293Y0089190D01*
X0075962Y0089101D01*
X0075910Y0089011D01*
X0075888Y0089001D01*
X0075785Y0089019D01*
X0075504Y0088822D01*
X0075194Y0088677D01*
X0075158Y0088580D01*
X0075138Y0088566D01*
X0075034Y0088566D01*
X0074792Y0088323D01*
X0074511Y0088127D01*
X0074493Y0088024D01*
X0074476Y0088007D01*
X0074373Y0087989D01*
X0074177Y0087708D01*
X0073934Y0087466D01*
X0073934Y0087362D01*
X0073920Y0087342D01*
X0073823Y0087306D01*
X0073678Y0086996D01*
X0073481Y0086714D01*
X0073499Y0086612D01*
X0073489Y0086590D01*
X0073399Y0086538D01*
X0073310Y0086207D01*
X0073165Y0085896D01*
X0073201Y0085798D01*
X0073194Y0085775D01*
X0073115Y0085708D01*
X0073085Y0085367D01*
X0072996Y0085035D01*
X0073048Y0084945D01*
X0073046Y0084921D01*
X0072979Y0084842D01*
X0073009Y0084500D01*
X0072979Y0084158D01*
X0073046Y0084079D01*
X0073048Y0084055D01*
X0072996Y0083965D01*
X0073085Y0083633D01*
X0073115Y0083292D01*
X0073194Y0083225D01*
X0073201Y0083201D01*
X0073165Y0083104D01*
X0073310Y0082793D01*
X0073399Y0082462D01*
X0073489Y0082410D01*
X0073499Y0082388D01*
X0073481Y0082285D01*
X0073678Y0082004D01*
X0073823Y0081694D01*
X0073920Y0081658D01*
X0073934Y0081638D01*
X0073934Y0081534D01*
X0074177Y0081292D01*
X0074373Y0081011D01*
X0074476Y0080993D01*
X0074493Y0080976D01*
X0074511Y0080873D01*
X0074792Y0080677D01*
X0075034Y0080434D01*
X0075138Y0080434D01*
X0075158Y0080420D01*
X0075194Y0080323D01*
X0075504Y0080178D01*
X0073806Y0081729D02*
X0070000Y0081729D01*
X0070000Y0083327D02*
X0073112Y0083327D01*
X0073046Y0084926D02*
X0070000Y0084926D01*
X0070000Y0086524D02*
X0073395Y0086524D01*
X0074510Y0088123D02*
X0070000Y0088123D01*
X0070000Y0089721D02*
X0088100Y0089721D01*
X0088100Y0088123D02*
X0081490Y0088123D01*
X0082605Y0086524D02*
X0088100Y0086524D01*
X0087031Y0084926D02*
X0082954Y0084926D01*
X0082888Y0083327D02*
X0085433Y0083327D01*
X0083834Y0081729D02*
X0082194Y0081729D01*
X0082663Y0080130D02*
X0080427Y0080130D01*
X0078212Y0076933D02*
X0070000Y0076933D01*
X0070000Y0075334D02*
X0076165Y0075334D01*
X0075388Y0073736D02*
X0070000Y0073736D01*
X0070000Y0072137D02*
X0075231Y0072137D01*
X0075647Y0070539D02*
X0070000Y0070539D01*
X0079816Y0065743D02*
X0080184Y0065743D01*
X0080184Y0064145D02*
X0079816Y0064145D01*
X0084768Y0060948D02*
X0085698Y0060948D01*
X0088100Y0091320D02*
X0070000Y0091320D01*
X0070000Y0092918D02*
X0088100Y0092918D01*
X0088100Y0094517D02*
X0070000Y0094517D01*
X0070000Y0096115D02*
X0088100Y0096115D01*
X0088100Y0097714D02*
X0070000Y0097714D01*
X0070000Y0099312D02*
X0088100Y0099312D01*
X0088100Y0100911D02*
X0070000Y0100911D01*
X0071657Y0101331D02*
X0071657Y0101331D01*
X0074102Y0102509D02*
X0088100Y0102509D01*
X0088100Y0104108D02*
X0077354Y0104108D01*
X0079358Y0105706D02*
X0088100Y0105706D01*
X0088100Y0107305D02*
X0081363Y0107305D01*
X0082104Y0107896D02*
X0082104Y0107896D01*
X0082104Y0107896D01*
X0082907Y0108903D02*
X0088100Y0108903D01*
X0088100Y0110502D02*
X0084182Y0110502D01*
X0085457Y0112100D02*
X0088100Y0112100D01*
X0088100Y0113699D02*
X0086432Y0113699D01*
X0085975Y0112750D02*
X0085975Y0112750D01*
X0087202Y0115297D02*
X0088100Y0115297D01*
X0088100Y0116896D02*
X0087971Y0116896D01*
X0132979Y0094517D02*
X0137304Y0094517D01*
X0135706Y0092918D02*
X0134577Y0092918D01*
X0140000Y0090000D02*
X0140000Y0082000D01*
X0145000Y0077500D01*
X0141419Y0076933D02*
X0141236Y0076933D01*
X0136263Y0086524D02*
X0134019Y0086524D01*
X0144294Y0092918D02*
X0145706Y0092918D01*
X0147304Y0094517D02*
X0142696Y0094517D01*
X0152696Y0094517D02*
X0157304Y0094517D01*
X0155706Y0092918D02*
X0154294Y0092918D01*
X0162919Y0105706D02*
X0167081Y0105706D01*
X0165483Y0107305D02*
X0164517Y0107305D01*
X0156600Y0136078D02*
X0186313Y0136078D01*
X0186313Y0137676D02*
X0156600Y0137676D01*
X0156600Y0139275D02*
X0186313Y0139275D01*
X0186313Y0140873D02*
X0156600Y0140873D01*
X0156600Y0158457D02*
X0157454Y0158457D01*
X0156600Y0160056D02*
X0186313Y0160056D01*
X0186313Y0161654D02*
X0156600Y0161654D01*
X0156600Y0163253D02*
X0186313Y0163253D01*
X0187116Y0164851D02*
X0155797Y0164851D01*
X0165341Y0158457D02*
X0186313Y0158457D01*
X0206049Y0153662D02*
X0210644Y0153662D01*
X0206049Y0152063D02*
X0215606Y0152063D01*
X0217204Y0150465D02*
X0206049Y0150465D01*
X0236600Y0158457D02*
X0237454Y0158457D01*
X0236600Y0163253D02*
X0246916Y0163253D01*
X0245318Y0164851D02*
X0235797Y0164851D01*
X0247152Y0169647D02*
X0310000Y0169647D01*
X0310000Y0168048D02*
X0248909Y0168048D01*
X0250507Y0166450D02*
X0310000Y0166450D01*
X0310000Y0164851D02*
X0263702Y0164851D01*
X0263702Y0163253D02*
X0310000Y0163253D01*
X0310000Y0161654D02*
X0266740Y0161654D01*
X0268338Y0160056D02*
X0310000Y0160056D01*
X0310000Y0158457D02*
X0269937Y0158457D01*
X0271536Y0156859D02*
X0310000Y0156859D01*
X0310000Y0155260D02*
X0272400Y0155260D01*
X0272400Y0153662D02*
X0310000Y0153662D01*
X0310000Y0152063D02*
X0272400Y0152063D01*
X0272400Y0150465D02*
X0310000Y0150465D01*
X0310000Y0148866D02*
X0272400Y0148866D01*
X0272400Y0147268D02*
X0310000Y0147268D01*
X0310000Y0145669D02*
X0272400Y0145669D01*
X0272400Y0144070D02*
X0310000Y0144070D01*
X0310000Y0142472D02*
X0272400Y0142472D01*
X0272400Y0140873D02*
X0310000Y0140873D01*
X0310000Y0139275D02*
X0272400Y0139275D01*
X0272400Y0137676D02*
X0310000Y0137676D01*
X0310000Y0136078D02*
X0272400Y0136078D01*
X0272382Y0134479D02*
X0310000Y0134479D01*
X0310000Y0132881D02*
X0271275Y0132881D01*
X0269677Y0131282D02*
X0310000Y0131282D01*
X0310000Y0129684D02*
X0268078Y0129684D01*
X0266479Y0128085D02*
X0310000Y0128085D01*
X0310000Y0126487D02*
X0264881Y0126487D01*
X0263282Y0124888D02*
X0310000Y0124888D01*
X0310000Y0123290D02*
X0261684Y0123290D01*
X0260085Y0121691D02*
X0310000Y0121691D01*
X0310000Y0120093D02*
X0258487Y0120093D01*
X0256201Y0112100D02*
X0310000Y0112100D01*
X0310000Y0110502D02*
X0257892Y0110502D01*
X0259205Y0108903D02*
X0310000Y0108903D01*
X0310000Y0107305D02*
X0259368Y0107305D01*
X0259368Y0105706D02*
X0310000Y0105706D01*
X0310000Y0104108D02*
X0259750Y0104108D01*
X0259750Y0102509D02*
X0310000Y0102509D01*
X0310000Y0100911D02*
X0259750Y0100911D01*
X0259750Y0099312D02*
X0310000Y0099312D01*
X0310000Y0097714D02*
X0259750Y0097714D01*
X0256969Y0101398D02*
X0256969Y0103031D01*
X0265596Y0096115D02*
X0310000Y0096115D01*
X0310000Y0094517D02*
X0266049Y0094517D01*
X0266049Y0092918D02*
X0310000Y0092918D01*
X0310000Y0091320D02*
X0266049Y0091320D01*
X0266049Y0089721D02*
X0310000Y0089721D01*
X0310000Y0088123D02*
X0266049Y0088123D01*
X0266374Y0075334D02*
X0263626Y0075334D01*
X0264433Y0073736D02*
X0265567Y0073736D01*
X0265431Y0072137D02*
X0264568Y0072137D01*
X0264133Y0070539D02*
X0265867Y0070539D01*
X0267099Y0068940D02*
X0262901Y0068940D01*
X0257099Y0068940D02*
X0252901Y0068940D01*
X0254133Y0070539D02*
X0255867Y0070539D01*
X0255431Y0072137D02*
X0254568Y0072137D01*
X0254433Y0073736D02*
X0255567Y0073736D01*
X0256374Y0075334D02*
X0253626Y0075334D01*
X0246374Y0075334D02*
X0243626Y0075334D01*
X0244433Y0073736D02*
X0245567Y0073736D01*
X0245431Y0072137D02*
X0244568Y0072137D01*
X0244133Y0070539D02*
X0245867Y0070539D01*
X0247099Y0068940D02*
X0242901Y0068940D01*
X0243217Y0065743D02*
X0246783Y0065743D01*
X0245736Y0064145D02*
X0244264Y0064145D01*
X0244568Y0062546D02*
X0245431Y0062546D01*
X0245698Y0060948D02*
X0244302Y0060948D01*
X0235698Y0060948D02*
X0234302Y0060948D01*
X0234568Y0062546D02*
X0235431Y0062546D01*
X0235736Y0064145D02*
X0234264Y0064145D01*
X0233217Y0065743D02*
X0236783Y0065743D01*
X0237099Y0068940D02*
X0232901Y0068940D01*
X0234133Y0070539D02*
X0235867Y0070539D01*
X0235431Y0072137D02*
X0234568Y0072137D01*
X0234433Y0073736D02*
X0235567Y0073736D01*
X0236374Y0075334D02*
X0233626Y0075334D01*
X0226374Y0075334D02*
X0223626Y0075334D01*
X0224433Y0073736D02*
X0225567Y0073736D01*
X0225431Y0072137D02*
X0224568Y0072137D01*
X0224133Y0070539D02*
X0225867Y0070539D01*
X0227099Y0068940D02*
X0222901Y0068940D01*
X0223217Y0065743D02*
X0226783Y0065743D01*
X0225736Y0064145D02*
X0224264Y0064145D01*
X0224568Y0062546D02*
X0225431Y0062546D01*
X0225698Y0060948D02*
X0224302Y0060948D01*
X0195867Y0070539D02*
X0194133Y0070539D01*
X0194568Y0072137D02*
X0195431Y0072137D01*
X0195567Y0073736D02*
X0194433Y0073736D01*
X0193626Y0075334D02*
X0196374Y0075334D01*
X0186374Y0075334D02*
X0183626Y0075334D01*
X0184433Y0073736D02*
X0185567Y0073736D01*
X0185431Y0072137D02*
X0184568Y0072137D01*
X0184133Y0070539D02*
X0185867Y0070539D01*
X0145736Y0064145D02*
X0144264Y0064145D01*
X0144568Y0062546D02*
X0145431Y0062546D01*
X0145698Y0060948D02*
X0144302Y0060948D01*
X0143362Y0065743D02*
X0143217Y0065743D01*
X0235922Y0118494D02*
X0238219Y0118494D01*
X0239303Y0121500D02*
X0241063Y0121260D01*
X0255828Y0163253D02*
X0256172Y0163253D01*
X0256172Y0164851D02*
X0255828Y0164851D01*
X0215000Y0188937D02*
X0213937Y0190000D01*
X0210000Y0190000D01*
X0209094Y0190906D01*
X0201398Y0190906D01*
X0206049Y0187230D02*
X0210644Y0187230D01*
X0211121Y0185632D02*
X0206049Y0185632D01*
X0206249Y0184033D02*
X0210786Y0184033D01*
X0210041Y0182435D02*
X0206249Y0182435D01*
X0186313Y0176041D02*
X0156600Y0176041D01*
X0156600Y0174442D02*
X0186313Y0174442D01*
X0186313Y0172844D02*
X0156600Y0172844D01*
X0156600Y0171245D02*
X0186313Y0171245D01*
X0156546Y0182435D02*
X0139356Y0182435D01*
X0139214Y0184033D02*
X0156546Y0184033D01*
X0156746Y0185632D02*
X0138879Y0185632D01*
X0139356Y0187230D02*
X0156746Y0187230D01*
X0156763Y0188829D02*
X0139356Y0188829D01*
X0139356Y0190427D02*
X0156746Y0190427D01*
X0156746Y0192026D02*
X0139095Y0192026D01*
X0135000Y0188937D02*
X0133937Y0190000D01*
X0130000Y0190000D01*
X0129094Y0190906D01*
X0125174Y0193624D02*
X0146313Y0193624D01*
X0146313Y0195223D02*
X0116600Y0195223D01*
X0116600Y0196821D02*
X0146313Y0196821D01*
X0146313Y0198420D02*
X0116600Y0198420D01*
X0116600Y0193624D02*
X0117621Y0193624D01*
X0106313Y0193624D02*
X0104770Y0193624D01*
X0103581Y0195223D02*
X0106313Y0195223D01*
X0106313Y0196821D02*
X0103122Y0196821D01*
X0101102Y0198420D02*
X0106313Y0198420D01*
X0101179Y0190427D02*
X0092900Y0190427D01*
X0092900Y0188829D02*
X0102837Y0188829D01*
X0090223Y0201617D02*
X0089819Y0201617D01*
X0089454Y0203215D02*
X0091821Y0203215D01*
X0093420Y0204814D02*
X0089089Y0204814D01*
X0088724Y0206412D02*
X0095018Y0206412D01*
X0096617Y0208011D02*
X0088016Y0208011D01*
X0088669Y0206657D02*
X0088669Y0206657D01*
X0087247Y0209609D02*
X0098215Y0209609D01*
X0099814Y0211208D02*
X0086477Y0211208D01*
X0085531Y0212806D02*
X0106313Y0212806D01*
X0106313Y0214405D02*
X0084256Y0214405D01*
X0082982Y0216003D02*
X0106313Y0216003D01*
X0106914Y0217602D02*
X0081480Y0217602D01*
X0082104Y0217104D02*
X0082104Y0217104D01*
X0079475Y0219201D02*
X0116546Y0219201D01*
X0116546Y0219094D02*
X0116546Y0217676D01*
X0116669Y0217219D01*
X0116906Y0216808D01*
X0117241Y0216473D01*
X0117652Y0216236D01*
X0118109Y0216113D01*
X0121398Y0216113D01*
X0124686Y0216113D01*
X0125144Y0216236D01*
X0125554Y0216473D01*
X0125889Y0216808D01*
X0126126Y0217219D01*
X0126249Y0217676D01*
X0126249Y0219094D01*
X0121398Y0219094D01*
X0121398Y0219095D01*
X0121398Y0219094D01*
X0121398Y0216113D01*
X0121398Y0219094D01*
X0121398Y0219094D01*
X0116546Y0219094D01*
X0116566Y0217602D02*
X0115999Y0217602D01*
X0116600Y0216003D02*
X0126546Y0216003D01*
X0126229Y0217602D02*
X0128145Y0217602D01*
X0129743Y0219201D02*
X0126249Y0219201D01*
X0126172Y0220799D02*
X0130644Y0220799D01*
X0130644Y0222398D02*
X0126049Y0222398D01*
X0126049Y0223996D02*
X0130749Y0223996D01*
X0131158Y0225595D02*
X0126049Y0225595D01*
X0126049Y0227193D02*
X0129413Y0227193D01*
X0131063Y0228937D02*
X0135000Y0228937D01*
X0135000Y0240000D01*
X0136500Y0241500D01*
X0196500Y0241500D01*
X0195053Y0244777D02*
X0070000Y0244777D01*
X0070000Y0243178D02*
X0134784Y0243178D01*
X0133186Y0241580D02*
X0070000Y0241580D01*
X0070000Y0239981D02*
X0107246Y0239981D01*
X0107251Y0239986D02*
X0106313Y0239049D01*
X0106313Y0232999D01*
X0107251Y0232061D01*
X0115663Y0232061D01*
X0116600Y0232999D01*
X0116600Y0239049D01*
X0115663Y0239986D01*
X0107251Y0239986D01*
X0106313Y0238383D02*
X0070000Y0238383D01*
X0070000Y0236784D02*
X0106313Y0236784D01*
X0106313Y0235186D02*
X0070000Y0235186D01*
X0070000Y0233587D02*
X0106313Y0233587D01*
X0116600Y0233587D02*
X0117584Y0233587D01*
X0116746Y0231989D02*
X0070000Y0231989D01*
X0070000Y0230390D02*
X0116746Y0230390D01*
X0116746Y0228792D02*
X0070000Y0228792D01*
X0070000Y0227193D02*
X0116746Y0227193D01*
X0116746Y0225595D02*
X0070000Y0225595D01*
X0070222Y0223996D02*
X0116746Y0223996D01*
X0116746Y0222398D02*
X0074296Y0222398D01*
X0077250Y0220975D02*
X0077250Y0220975D01*
X0077471Y0220799D02*
X0116623Y0220799D01*
X0121398Y0217602D02*
X0121398Y0217602D01*
X0124948Y0214405D02*
X0116600Y0214405D01*
X0116600Y0212806D02*
X0123349Y0212806D01*
X0141855Y0217602D02*
X0146914Y0217602D01*
X0146313Y0216003D02*
X0143454Y0216003D01*
X0145052Y0214405D02*
X0146313Y0214405D01*
X0145000Y0205000D02*
X0155000Y0205000D01*
X0158580Y0204814D02*
X0186419Y0204814D01*
X0196982Y0206412D02*
X0233848Y0206412D01*
X0226313Y0212806D02*
X0224588Y0212806D01*
X0222989Y0214405D02*
X0226313Y0214405D01*
X0226313Y0216003D02*
X0221391Y0216003D01*
X0219792Y0217602D02*
X0226914Y0217602D01*
X0217799Y0212806D02*
X0211439Y0212806D01*
X0209917Y0211208D02*
X0219398Y0211208D01*
X0220996Y0209609D02*
X0208395Y0209609D01*
X0206872Y0208011D02*
X0222595Y0208011D01*
X0216201Y0214405D02*
X0212962Y0214405D01*
X0214484Y0216003D02*
X0214602Y0216003D01*
X0214500Y0219500D02*
X0214500Y0221063D01*
X0210144Y0220799D02*
X0206172Y0220799D01*
X0206249Y0219201D02*
X0210144Y0219201D01*
X0209378Y0217602D02*
X0206229Y0217602D01*
X0206249Y0217676D02*
X0206249Y0219094D01*
X0201398Y0219094D01*
X0201398Y0219095D01*
X0201398Y0219094D01*
X0201398Y0216113D01*
X0204686Y0216113D01*
X0205144Y0216236D01*
X0205554Y0216473D01*
X0205889Y0216808D01*
X0206126Y0217219D01*
X0206249Y0217676D01*
X0207856Y0216003D02*
X0196600Y0216003D01*
X0197241Y0216473D02*
X0197652Y0216236D01*
X0198109Y0216113D01*
X0201398Y0216113D01*
X0201398Y0219094D01*
X0201398Y0219094D01*
X0196546Y0219094D01*
X0196546Y0217676D01*
X0196669Y0217219D01*
X0196906Y0216808D01*
X0197241Y0216473D01*
X0196566Y0217602D02*
X0195999Y0217602D01*
X0201398Y0217602D02*
X0201398Y0217602D01*
X0206049Y0222398D02*
X0210144Y0222398D01*
X0210249Y0223996D02*
X0206049Y0223996D01*
X0206049Y0225595D02*
X0210658Y0225595D01*
X0208413Y0227193D02*
X0206049Y0227193D01*
X0201492Y0231000D02*
X0201398Y0230906D01*
X0201492Y0231000D02*
X0208000Y0231000D01*
X0207193Y0233587D02*
X0205211Y0233587D01*
X0213981Y0233587D02*
X0226313Y0233587D01*
X0226313Y0235186D02*
X0215580Y0235186D01*
X0206333Y0214405D02*
X0196600Y0214405D01*
X0196600Y0212806D02*
X0204811Y0212806D01*
X0176230Y0233587D02*
X0165211Y0233587D01*
X0167500Y0231000D02*
X0169563Y0228937D01*
X0167500Y0231000D02*
X0161492Y0231000D01*
X0161398Y0230906D01*
X0169905Y0231989D02*
X0170868Y0231989D01*
X0146313Y0233587D02*
X0137400Y0233587D01*
X0137400Y0235186D02*
X0146313Y0235186D01*
X0146313Y0236784D02*
X0137400Y0236784D01*
X0137400Y0238383D02*
X0146313Y0238383D01*
X0132600Y0238383D02*
X0116600Y0238383D01*
X0116600Y0236784D02*
X0132600Y0236784D01*
X0132600Y0235186D02*
X0116600Y0235186D01*
X0121398Y0230906D02*
X0121492Y0231000D01*
X0129000Y0231000D01*
X0131063Y0228937D01*
X0132600Y0233587D02*
X0125211Y0233587D01*
X0132600Y0239981D02*
X0115667Y0239981D01*
X0156600Y0198420D02*
X0157600Y0198420D01*
X0157600Y0196821D02*
X0156600Y0196821D01*
X0156600Y0195223D02*
X0157600Y0195223D01*
X0157600Y0193624D02*
X0156600Y0193624D01*
X0258842Y0225595D02*
X0310000Y0225595D01*
X0310000Y0227193D02*
X0259356Y0227193D01*
X0259251Y0223996D02*
X0310000Y0223996D01*
X0310000Y0222398D02*
X0259356Y0222398D01*
X0304225Y0260762D02*
X0310000Y0260762D01*
X0309641Y0262360D02*
X0304568Y0262360D01*
X0300375Y0077268D02*
X0300184Y0077268D01*
X0300184Y0072684D01*
X0304768Y0072684D01*
X0304768Y0072875D01*
X0304651Y0073617D01*
X0304419Y0074330D01*
X0304078Y0074999D01*
X0303637Y0075606D01*
X0303106Y0076137D01*
X0302499Y0076578D01*
X0301830Y0076919D01*
X0301117Y0077151D01*
X0300375Y0077268D01*
X0300184Y0076933D02*
X0299816Y0076933D01*
X0299816Y0077268D02*
X0299816Y0072684D01*
X0299816Y0072316D01*
X0300184Y0072316D01*
X0300184Y0067731D01*
X0300375Y0067731D01*
X0301117Y0067849D01*
X0301830Y0068081D01*
X0302499Y0068422D01*
X0303106Y0068863D01*
X0303637Y0069394D01*
X0304078Y0070001D01*
X0304419Y0070670D01*
X0304651Y0071383D01*
X0304768Y0072125D01*
X0304768Y0072316D01*
X0300184Y0072316D01*
X0300184Y0072684D01*
X0299816Y0072684D01*
X0295231Y0072684D01*
X0295231Y0072875D01*
X0295349Y0073617D01*
X0295581Y0074330D01*
X0295922Y0074999D01*
X0296363Y0075606D01*
X0296894Y0076137D01*
X0297501Y0076578D01*
X0298170Y0076919D01*
X0298883Y0077151D01*
X0299625Y0077268D01*
X0299816Y0077268D01*
X0298212Y0076933D02*
X0291788Y0076933D01*
X0293835Y0075334D02*
X0296165Y0075334D01*
X0295388Y0073736D02*
X0294612Y0073736D01*
X0295231Y0072316D02*
X0295231Y0072125D01*
X0295349Y0071383D01*
X0295581Y0070670D01*
X0295922Y0070001D01*
X0296363Y0069394D01*
X0296894Y0068863D01*
X0297501Y0068422D01*
X0298170Y0068081D01*
X0298883Y0067849D01*
X0299625Y0067731D01*
X0299816Y0067731D01*
X0299816Y0072316D01*
X0295231Y0072316D01*
X0295231Y0072137D02*
X0294768Y0072137D01*
X0294353Y0070539D02*
X0295647Y0070539D01*
X0296816Y0068940D02*
X0293184Y0068940D01*
X0291830Y0066919D02*
X0291117Y0067151D01*
X0290375Y0067268D01*
X0290184Y0067268D01*
X0290184Y0062684D01*
X0294768Y0062684D01*
X0294768Y0062875D01*
X0294651Y0063617D01*
X0294419Y0064330D01*
X0294078Y0064999D01*
X0293637Y0065606D01*
X0293106Y0066137D01*
X0292499Y0066578D01*
X0291830Y0066919D01*
X0290184Y0065743D02*
X0289816Y0065743D01*
X0289816Y0067268D02*
X0289816Y0062684D01*
X0285231Y0062684D01*
X0285231Y0062875D01*
X0285349Y0063617D01*
X0285581Y0064330D01*
X0285922Y0064999D01*
X0286363Y0065606D01*
X0286894Y0066137D01*
X0287501Y0066578D01*
X0288170Y0066919D01*
X0288883Y0067151D01*
X0289625Y0067268D01*
X0289816Y0067268D01*
X0289816Y0067731D02*
X0289816Y0072316D01*
X0285231Y0072316D01*
X0285231Y0072125D01*
X0285349Y0071383D01*
X0285581Y0070670D01*
X0285922Y0070001D01*
X0286363Y0069394D01*
X0286894Y0068863D01*
X0287501Y0068422D01*
X0288170Y0068081D01*
X0288883Y0067849D01*
X0289625Y0067731D01*
X0289816Y0067731D01*
X0289816Y0068940D02*
X0290184Y0068940D01*
X0290184Y0070539D02*
X0289816Y0070539D01*
X0289816Y0072137D02*
X0290184Y0072137D01*
X0286816Y0068940D02*
X0282901Y0068940D01*
X0284133Y0070539D02*
X0285647Y0070539D01*
X0285231Y0072137D02*
X0284568Y0072137D01*
X0284433Y0073736D02*
X0285388Y0073736D01*
X0286165Y0075334D02*
X0283626Y0075334D01*
X0276374Y0075334D02*
X0273626Y0075334D01*
X0274433Y0073736D02*
X0275567Y0073736D01*
X0275431Y0072137D02*
X0274568Y0072137D01*
X0274133Y0070539D02*
X0275867Y0070539D01*
X0277099Y0068940D02*
X0272901Y0068940D01*
X0273217Y0065743D02*
X0276783Y0065743D01*
X0275736Y0064145D02*
X0274264Y0064145D01*
X0274568Y0062546D02*
X0275431Y0062546D01*
X0275698Y0060948D02*
X0274302Y0060948D01*
X0265698Y0060948D02*
X0264302Y0060948D01*
X0264568Y0062546D02*
X0265431Y0062546D01*
X0265736Y0064145D02*
X0264264Y0064145D01*
X0263217Y0065743D02*
X0266783Y0065743D01*
X0256783Y0065743D02*
X0253217Y0065743D01*
X0254264Y0064145D02*
X0255736Y0064145D01*
X0255431Y0062546D02*
X0254568Y0062546D01*
X0254302Y0060948D02*
X0255698Y0060948D01*
X0283217Y0065743D02*
X0286500Y0065743D01*
X0285521Y0064145D02*
X0284264Y0064145D01*
X0284568Y0062546D02*
X0289816Y0062546D01*
X0289816Y0064145D02*
X0290184Y0064145D01*
X0293500Y0065743D02*
X0296500Y0065743D01*
X0295521Y0064145D02*
X0294479Y0064145D01*
X0294510Y0060948D02*
X0295490Y0060948D01*
X0299816Y0064145D02*
X0300184Y0064145D01*
X0300184Y0065743D02*
X0299816Y0065743D01*
X0299816Y0068940D02*
X0300184Y0068940D01*
X0300184Y0070539D02*
X0299816Y0070539D01*
X0299816Y0072137D02*
X0300184Y0072137D01*
X0300184Y0073736D02*
X0299816Y0073736D01*
X0299816Y0075334D02*
X0300184Y0075334D01*
X0301788Y0076933D02*
X0310000Y0076933D01*
X0310000Y0075334D02*
X0303835Y0075334D01*
X0304612Y0073736D02*
X0310000Y0073736D01*
X0310000Y0072137D02*
X0304768Y0072137D01*
X0304353Y0070539D02*
X0310000Y0070539D01*
X0310000Y0068940D02*
X0303184Y0068940D01*
X0285490Y0060948D02*
X0284302Y0060948D01*
D23*
X0220000Y0101000D03*
X0207500Y0096500D03*
X0230000Y0105000D03*
X0235000Y0115000D03*
X0221000Y0126000D03*
X0236500Y0130000D03*
X0210000Y0145000D03*
X0232000Y0167500D03*
X0236500Y0204000D03*
X0190000Y0205000D03*
X0182000Y0236000D03*
X0196500Y0241500D03*
X0222000Y0241500D03*
X0145000Y0205000D03*
X0100000Y0195000D03*
X0095000Y0185000D03*
X0095000Y0175000D03*
X0147500Y0122000D03*
X0185000Y0103500D03*
X0145000Y0077500D03*
M02*
